<svg width="141" height="142" viewBox="0 0 141 142" fill="none" xmlns="http://www.w3.org/2000/svg">
<mask id="mask0_22_1159" style="mask-type:luminance" maskUnits="userSpaceOnUse" x="32" y="32" width="28" height="64">
<path d="M32.0132 41.6602V75.9502C35.7132 77.6902 39.8732 79.9702 44.2132 82.9402C50.5432 87.2802 55.4332 91.8602 59.0832 95.8102V41.6602L45.7532 32.9502L32.0132 41.6602Z" fill="white"/>
</mask>
<g mask="url(#mask0_22_1159)">
<path d="M45.6132 32.9502H32.0132V95.8102H45.6132V32.9502Z" fill="#4E245D"/>
</g>
<mask id="mask1_22_1159" style="mask-type:luminance" maskUnits="userSpaceOnUse" x="32" y="32" width="28" height="64">
<path d="M32.0132 41.6602V75.9502C35.7132 77.6902 39.8732 79.9702 44.2132 82.9402C50.5432 87.2802 55.4332 91.8602 59.0832 95.8102V41.6602L45.7532 32.9502L32.0132 41.6602Z" fill="white"/>
</mask>
<g mask="url(#mask1_22_1159)">
<path d="M45.6533 32.9502H45.6133V95.8102H45.6533V32.9502Z" fill="#4E245D"/>
</g>
<mask id="mask2_22_1159" style="mask-type:luminance" maskUnits="userSpaceOnUse" x="32" y="32" width="28" height="64">
<path d="M32.0132 41.6602V75.9502C35.7132 77.6902 39.8732 79.9702 44.2132 82.9402C50.5432 87.2802 55.4332 91.8602 59.0832 95.8102V41.6602L45.7532 32.9502L32.0132 41.6602Z" fill="white"/>
</mask>
<g mask="url(#mask2_22_1159)">
<path d="M45.6933 32.9502H45.6533V95.8102H45.6933V32.9502Z" fill="#4F245E"/>
</g>
<mask id="mask3_22_1159" style="mask-type:luminance" maskUnits="userSpaceOnUse" x="32" y="32" width="28" height="64">
<path d="M32.0132 41.6602V75.9502C35.7132 77.6902 39.8732 79.9702 44.2132 82.9402C50.5432 87.2802 55.4332 91.8602 59.0832 95.8102V41.6602L45.7532 32.9502L32.0132 41.6602Z" fill="white"/>
</mask>
<g mask="url(#mask3_22_1159)">
<path d="M45.6931 32.9502H45.6831V95.8102H45.6931V32.9502Z" fill="#4F245E"/>
</g>
<mask id="mask4_22_1159" style="mask-type:luminance" maskUnits="userSpaceOnUse" x="32" y="32" width="28" height="64">
<path d="M32.0132 41.6602V75.9502C35.7132 77.6902 39.8732 79.9702 44.2132 82.9402C50.5432 87.2802 55.4332 91.8602 59.0832 95.8102V41.6602L45.7532 32.9502L32.0132 41.6602Z" fill="white"/>
</mask>
<g mask="url(#mask4_22_1159)">
<path d="M45.7031 32.9502H45.6931V95.8102H45.7031V32.9502Z" fill="#50275F"/>
</g>
<mask id="mask5_22_1159" style="mask-type:luminance" maskUnits="userSpaceOnUse" x="32" y="32" width="28" height="64">
<path d="M32.0132 41.6602V75.9502C35.7132 77.6902 39.8732 79.9702 44.2132 82.9402C50.5432 87.2802 55.4332 91.8602 59.0832 95.8102V41.6602L45.7532 32.9502L32.0132 41.6602Z" fill="white"/>
</mask>
<g mask="url(#mask5_22_1159)">
<path d="M45.7131 32.9502H45.7031V95.8102H45.7131V32.9502Z" fill="#4F295F"/>
</g>
<mask id="mask6_22_1159" style="mask-type:luminance" maskUnits="userSpaceOnUse" x="32" y="32" width="28" height="64">
<path d="M32.0132 41.6602V75.9502C35.7132 77.6902 39.8732 79.9702 44.2132 82.9402C50.5432 87.2802 55.4332 91.8602 59.0832 95.8102V41.6602L45.7532 32.9502L32.0132 41.6602Z" fill="white"/>
</mask>
<g mask="url(#mask6_22_1159)">
<path d="M45.7131 32.9502H45.7031V95.8102H45.7131V32.9502Z" fill="#522A61"/>
</g>
<mask id="mask7_22_1159" style="mask-type:luminance" maskUnits="userSpaceOnUse" x="32" y="32" width="28" height="64">
<path d="M32.0132 41.6602V75.9502C35.7132 77.6902 39.8732 79.9702 44.2132 82.9402C50.5432 87.2802 55.4332 91.8602 59.0832 95.8102V41.6602L45.7532 32.9502L32.0132 41.6602Z" fill="white"/>
</mask>
<g mask="url(#mask7_22_1159)">
<path d="M45.7231 32.9502H45.7131V95.8102H45.7231V32.9502Z" fill="#522B60"/>
</g>
<mask id="mask8_22_1159" style="mask-type:luminance" maskUnits="userSpaceOnUse" x="32" y="32" width="28" height="64">
<path d="M32.0132 41.6602V75.9502C35.7132 77.6902 39.8732 79.9702 44.2132 82.9402C50.5432 87.2802 55.4332 91.8602 59.0832 95.8102V41.6602L45.7532 32.9502L32.0132 41.6602Z" fill="white"/>
</mask>
<g mask="url(#mask8_22_1159)">
<path d="M59.0832 32.9502H45.8032V95.8102H59.0832V32.9502Z" fill="#B5B6B6"/>
</g>
<mask id="mask9_22_1159" style="mask-type:luminance" maskUnits="userSpaceOnUse" x="52" y="0" width="38" height="120">
<path d="M52.5432 12.91V34.87L61.2532 40.82V99.56C62.7932 101.66 64.4432 104.26 65.9632 107.36C68.1532 111.85 69.3732 115.99 70.0632 119.3C70.3432 116.53 71.0132 112.88 72.6432 108.89C75.3332 102.27 79.3432 97.86 81.9432 95.42V39.92L89.7032 35.07V13.36L70.8932 0L52.5432 12.91Z" fill="white"/>
</mask>
<g mask="url(#mask9_22_1159)">
<path d="M70.9332 -0.0100098H52.5432V119.29H70.9332V-0.0100098Z" fill="#4E245D"/>
</g>
<mask id="mask10_22_1159" style="mask-type:luminance" maskUnits="userSpaceOnUse" x="52" y="0" width="38" height="120">
<path d="M52.5432 12.91V34.87L61.2532 40.82V99.56C62.7932 101.66 64.4432 104.26 65.9632 107.36C68.1532 111.85 69.3732 115.99 70.0632 119.3C70.3432 116.53 71.0132 112.88 72.6432 108.89C75.3332 102.27 79.3432 97.86 81.9432 95.42V39.92L89.7032 35.07V13.36L70.8932 0L52.5432 12.91Z" fill="white"/>
</mask>
<g mask="url(#mask10_22_1159)">
<path d="M71.0532 -0.0100098H71.0332V119.29H71.0532V-0.0100098Z" fill="#B5B6B6"/>
</g>
<mask id="mask11_22_1159" style="mask-type:luminance" maskUnits="userSpaceOnUse" x="52" y="0" width="38" height="120">
<path d="M52.5432 12.91V34.87L61.2532 40.82V99.56C62.7932 101.66 64.4432 104.26 65.9632 107.36C68.1532 111.85 69.3732 115.99 70.0632 119.3C70.3432 116.53 71.0132 112.88 72.6432 108.89C75.3332 102.27 79.3432 97.86 81.9432 95.42V39.92L89.7032 35.07V13.36L70.8932 0L52.5432 12.91Z" fill="white"/>
</mask>
<g mask="url(#mask11_22_1159)">
<path d="M71.0732 -0.0100098H71.0532V119.29H71.0732V-0.0100098Z" fill="#B5B6B6"/>
</g>
<mask id="mask12_22_1159" style="mask-type:luminance" maskUnits="userSpaceOnUse" x="52" y="0" width="38" height="120">
<path d="M52.5432 12.91V34.87L61.2532 40.82V99.56C62.7932 101.66 64.4432 104.26 65.9632 107.36C68.1532 111.85 69.3732 115.99 70.0632 119.3C70.3432 116.53 71.0132 112.88 72.6432 108.89C75.3332 102.27 79.3432 97.86 81.9432 95.42V39.92L89.7032 35.07V13.36L70.8932 0L52.5432 12.91Z" fill="white"/>
</mask>
<g mask="url(#mask12_22_1159)">
<path d="M71.0933 -0.0100098H71.0732V119.29H71.0933V-0.0100098Z" fill="#B5B6B6"/>
</g>
<mask id="mask13_22_1159" style="mask-type:luminance" maskUnits="userSpaceOnUse" x="52" y="0" width="38" height="120">
<path d="M52.5432 12.91V34.87L61.2532 40.82V99.56C62.7932 101.66 64.4432 104.26 65.9632 107.36C68.1532 111.85 69.3732 115.99 70.0632 119.3C70.3432 116.53 71.0132 112.88 72.6432 108.89C75.3332 102.27 79.3432 97.86 81.9432 95.42V39.92L89.7032 35.07V13.36L70.8932 0L52.5432 12.91Z" fill="white"/>
</mask>
<g mask="url(#mask13_22_1159)">
<path d="M89.7032 -0.0100098H71.0833V119.29H89.7032V-0.0100098Z" fill="#B5B6B6"/>
</g>
<mask id="mask14_22_1159" style="mask-type:luminance" maskUnits="userSpaceOnUse" x="84" y="32" width="28" height="60">
<path d="M84.313 40.8202V91.2602C87.613 88.0502 91.983 84.3302 97.543 80.8102C102.593 77.6102 107.363 75.3702 111.373 73.8002V42.6202L97.543 32.9502L84.313 40.8202Z" fill="white"/>
</mask>
<g mask="url(#mask14_22_1159)">
<path d="M97.913 32.9502H84.313V91.2602H97.913V32.9502Z" fill="#4E245D"/>
</g>
<mask id="mask15_22_1159" style="mask-type:luminance" maskUnits="userSpaceOnUse" x="84" y="32" width="28" height="60">
<path d="M84.313 40.8202V91.2602C87.613 88.0502 91.983 84.3302 97.543 80.8102C102.593 77.6102 107.363 75.3702 111.373 73.8002V42.6202L97.543 32.9502L84.313 40.8202Z" fill="white"/>
</mask>
<g mask="url(#mask15_22_1159)">
<path d="M97.9531 32.9502H97.9131V91.2602H97.9531V32.9502Z" fill="#4E245D"/>
</g>
<mask id="mask16_22_1159" style="mask-type:luminance" maskUnits="userSpaceOnUse" x="84" y="32" width="28" height="60">
<path d="M84.313 40.8202V91.2602C87.613 88.0502 91.983 84.3302 97.543 80.8102C102.593 77.6102 107.363 75.3702 111.373 73.8002V42.6202L97.543 32.9502L84.313 40.8202Z" fill="white"/>
</mask>
<g mask="url(#mask16_22_1159)">
<path d="M97.9829 32.9502H97.9429V91.2602H97.9829V32.9502Z" fill="#4F245E"/>
</g>
<mask id="mask17_22_1159" style="mask-type:luminance" maskUnits="userSpaceOnUse" x="84" y="32" width="28" height="60">
<path d="M84.313 40.8202V91.2602C87.613 88.0502 91.983 84.3302 97.543 80.8102C102.593 77.6102 107.363 75.3702 111.373 73.8002V42.6202L97.543 32.9502L84.313 40.8202Z" fill="white"/>
</mask>
<g mask="url(#mask17_22_1159)">
<path d="M97.9929 32.9502H97.9829V91.2602H97.9929V32.9502Z" fill="#4F245E"/>
</g>
<mask id="mask18_22_1159" style="mask-type:luminance" maskUnits="userSpaceOnUse" x="84" y="32" width="28" height="60">
<path d="M84.313 40.8202V91.2602C87.613 88.0502 91.983 84.3302 97.543 80.8102C102.593 77.6102 107.363 75.3702 111.373 73.8002V42.6202L97.543 32.9502L84.313 40.8202Z" fill="white"/>
</mask>
<g mask="url(#mask18_22_1159)">
<path d="M98.0029 32.9502H97.9929V91.2602H98.0029V32.9502Z" fill="#50275F"/>
</g>
<mask id="mask19_22_1159" style="mask-type:luminance" maskUnits="userSpaceOnUse" x="84" y="32" width="28" height="60">
<path d="M84.313 40.8202V91.2602C87.613 88.0502 91.983 84.3302 97.543 80.8102C102.593 77.6102 107.363 75.3702 111.373 73.8002V42.6202L97.543 32.9502L84.313 40.8202Z" fill="white"/>
</mask>
<g mask="url(#mask19_22_1159)">
<path d="M98.0029 32.9502H97.9929V91.2602H98.0029V32.9502Z" fill="#4F295F"/>
</g>
<mask id="mask20_22_1159" style="mask-type:luminance" maskUnits="userSpaceOnUse" x="84" y="32" width="28" height="60">
<path d="M84.313 40.8202V91.2602C87.613 88.0502 91.983 84.3302 97.543 80.8102C102.593 77.6102 107.363 75.3702 111.373 73.8002V42.6202L97.543 32.9502L84.313 40.8202Z" fill="white"/>
</mask>
<g mask="url(#mask20_22_1159)">
<path d="M98.0129 32.9502H98.0029V91.2602H98.0129V32.9502Z" fill="#522A61"/>
</g>
<mask id="mask21_22_1159" style="mask-type:luminance" maskUnits="userSpaceOnUse" x="84" y="32" width="28" height="60">
<path d="M84.313 40.8202V91.2602C87.613 88.0502 91.983 84.3302 97.543 80.8102C102.593 77.6102 107.363 75.3702 111.373 73.8002V42.6202L97.543 32.9502L84.313 40.8202Z" fill="white"/>
</mask>
<g mask="url(#mask21_22_1159)">
<path d="M98.0129 32.9502H98.0029V91.2602H98.0129V32.9502Z" fill="#522B60"/>
</g>
<mask id="mask22_22_1159" style="mask-type:luminance" maskUnits="userSpaceOnUse" x="84" y="32" width="28" height="60">
<path d="M84.313 40.8202V91.2602C87.613 88.0502 91.983 84.3302 97.543 80.8102C102.593 77.6102 107.363 75.3702 111.373 73.8002V42.6202L97.543 32.9502L84.313 40.8202Z" fill="white"/>
</mask>
<g mask="url(#mask22_22_1159)">
<path d="M111.373 32.9502H98.103V91.2602H111.373V32.9502Z" fill="#B5B6B6"/>
</g>
<path d="M73.2733 134.43C73.0733 126.88 74.0733 115.19 80.9233 103.85C88.4333 91.4201 99.7833 84.6701 104.423 81.9201C112.823 76.9301 116.033 77.2701 122.593 72.1901C130.453 66.1101 134.873 58.6301 137.363 53.3201C139.183 58.5301 143.513 73.2501 137.463 89.3801C131.683 104.78 119.623 113.02 115.743 115.67C108.423 120.67 105.293 120.37 93.8633 126.98C85.0233 132.1 78.3333 137.24 74.0233 140.83C75.3933 136.62 78.0133 130.32 83.1433 123.93C99.8033 104.15 124.293 102.59 131.403 77.5201C118.913 101.86 81.4033 106.33 73.2733 134.43Z" fill="#B5B6B6"/>
<path d="M67.6132 135.29C67.8632 126.62 66.6732 115.16 59.9632 104.71C52.1232 92.5001 38.8332 84.9101 32.1232 81.0801C20.1132 74.2201 9.51317 71.3001 4.36317 60.2201C3.32317 57.9901 2.78316 56.0101 2.48316 54.6501C0.833163 60.7201 -3.99684 81.4401 7.01316 99.1301C12.3532 107.71 20.1132 113.46 22.4032 115.13C30.8832 121.32 35.8531 121.66 47.0331 127.85C52.8431 131.07 59.6732 135.5 66.8732 141.7C65.5032 137.5 62.8832 131.19 57.7532 124.8C41.0932 105.02 16.5932 103.46 9.49316 78.3801C21.9732 102.72 59.4732 107.19 67.6132 135.29Z" fill="#4E245D"/>
</svg>
