<svg width="150" height="125" viewBox="0 0 150 125" fill="none" xmlns="http://www.w3.org/2000/svg">
<g clip-path="url(#clip0_24_759)">
<path d="M150 39.3926V125H138.625V0C138.625 0 150 13.3866 150 39.3926Z" fill="#612C7C"/>
<path d="M120.863 53.644L109.469 64.939V100.879H120.863V53.644Z" fill="#69686C"/>
<path d="M109.453 104.063V125H113.259V116.804H117.364V125H120.91V104.063H109.453ZM119.346 113.852H111.275V111.597H119.346V113.852Z" fill="#69686C"/>
<path d="M135.433 13.5239V125H124.058V48.6803C124.058 25.4803 135.433 13.5239 135.433 13.5239Z" fill="#612C7C"/>
<path d="M0.0229492 108.468V92.4131C0.0229492 89.5344 1.46206 88.1455 3.65963 88.1455C5.96651 88.1455 7.29632 89.5344 7.29632 92.4131V97.8333C7.29632 97.9358 7.24167 98.0019 7.16052 98.0019H4.96294C4.8818 98.0019 4.82715 97.9341 4.82715 97.8333V92.5487C4.82715 91.2276 4.52906 90.8556 3.68779 90.8556C2.76537 90.8556 2.49378 91.3301 2.49378 92.5487V108.197C2.49378 109.451 2.87301 109.89 3.68779 109.89C4.50256 109.89 4.8553 109.348 4.8553 108.23V102.709H3.85174C3.77059 102.709 3.71594 102.642 3.71594 102.506V100.17C3.71594 100.069 3.77059 100.001 3.85174 100.001H7.16218C7.24333 100.001 7.29797 100.069 7.29797 100.17V112.161C7.29797 112.262 7.24333 112.329 7.16218 112.329H5.72307C5.64193 112.329 5.58728 112.295 5.58728 112.194L5.23454 110.466H5.09874C4.71951 111.787 3.93123 112.634 2.79186 112.634C0.864223 112.634 0.0229492 111.177 0.0229492 108.467V108.468Z" fill="#69686C"/>
<path d="M10.1729 109.315V95.3942C10.1729 95.2934 10.2275 95.2256 10.3086 95.2256H12.3721C12.4532 95.2256 12.5079 95.2934 12.5079 95.3942V108.706C12.5079 109.756 12.6702 110.231 13.2945 110.231C14 110.231 14.1623 109.553 14.1623 108.334V95.3959C14.1623 95.295 14.2169 95.2272 14.2981 95.2272H16.3599C16.441 95.2272 16.4956 95.295 16.4956 95.3959V112.162C16.4956 112.263 16.441 112.331 16.3599 112.331H14.2981C14.2169 112.331 14.1623 112.263 14.1623 112.162V111.011H14.0265C13.8095 112.028 13.0494 112.637 12.0458 112.637C10.6349 112.637 10.1729 111.383 10.1729 109.317V109.315Z" fill="#69686C"/>
<path d="M19.4814 112.16V88.6198C19.4814 88.519 19.5361 88.4512 19.6172 88.4512H21.6807C21.7618 88.4512 21.8165 88.519 21.8165 88.6198V112.16C21.8165 112.261 21.7618 112.329 21.6807 112.329H19.6172C19.5361 112.329 19.4814 112.261 19.4814 112.16Z" fill="#69686C"/>
<path d="M25.1536 112.16V97.7983H23.8785C23.7973 97.7983 23.7427 97.7305 23.7427 97.6297V95.5297C23.7427 95.4289 23.7973 95.3611 23.8785 95.3611H25.1536V91.229C25.1536 89.1969 25.778 88.4512 27.3512 88.4512H29.1149C29.196 88.4512 29.2507 88.519 29.2507 88.6198V90.7197C29.2507 90.8206 29.196 90.8884 29.1149 90.8884H28.1643C27.5946 90.8884 27.4853 91.0571 27.4853 91.9384V95.3594H29.0867C29.1679 95.3594 29.2225 95.4272 29.2225 95.5281V97.628C29.2225 97.7289 29.1679 97.7967 29.0867 97.7967H27.4853V112.159C27.4853 112.26 27.4307 112.327 27.3496 112.327H25.2861C25.205 112.327 25.1503 112.26 25.1503 112.159L25.1536 112.16Z" fill="#69686C"/>
<path d="M35.6841 108.333V88.6198C35.6841 88.519 35.7387 88.4512 35.8199 88.4512H38.0175C38.0986 88.4512 38.1533 88.519 38.1533 88.6198V108.197C38.1533 109.483 38.506 109.89 39.3208 109.89C40.1885 109.89 40.4883 109.383 40.4883 108.197V88.6198C40.4883 88.519 40.5429 88.4512 40.6241 88.4512H42.8217C42.9028 88.4512 42.9575 88.519 42.9575 88.6198V108.333C42.9575 111.314 41.4918 112.635 39.2943 112.635C37.0967 112.635 35.6841 111.213 35.6841 108.333Z" fill="#69686C"/>
<path d="M45.9434 112.161V95.3945C45.9434 95.2936 45.998 95.2258 46.0792 95.2258H48.1426C48.2237 95.2258 48.2784 95.2936 48.2784 95.3945V96.5453H48.4142C48.6593 95.4953 49.3913 94.9199 50.3948 94.9199C51.8869 94.9199 52.2678 96.2411 52.2678 98.2401V112.161C52.2678 112.262 52.2132 112.329 52.132 112.329H50.0686C49.9874 112.329 49.9328 112.262 49.9328 112.161V98.8486C49.9328 97.7308 49.7705 97.3241 49.1462 97.3241C48.4672 97.3241 48.2784 98.0351 48.2784 99.2206V112.159C48.2784 112.26 48.2237 112.328 48.1426 112.328H46.0792C45.998 112.328 45.9434 112.26 45.9434 112.159V112.161Z" fill="#69686C"/>
<path d="M55.1162 92.1087V88.9919C55.1162 88.891 55.1709 88.8232 55.252 88.8232H57.3154C57.3966 88.8232 57.4512 88.891 57.4512 88.9919V92.1087C57.4512 92.2096 57.3966 92.2774 57.3154 92.2774H55.252C55.1709 92.2774 55.1162 92.2096 55.1162 92.1087ZM55.1162 112.161V95.3942C55.1162 95.2933 55.1709 95.2255 55.252 95.2255H57.3154C57.3966 95.2255 57.4512 95.2933 57.4512 95.3942V112.161C57.4512 112.261 57.3966 112.329 57.3154 112.329H55.252C55.1709 112.329 55.1162 112.261 55.1162 112.161Z" fill="#69686C"/>
<path d="M61.4939 112.161L59.3774 95.4275C59.4321 95.4953 59.2963 95.2241 59.5132 95.2241H61.575C61.6562 95.2241 61.7108 95.2919 61.7108 95.3928L62.769 108.298H62.9313L64.0177 95.3928C64.0177 95.325 64.0723 95.2241 64.1535 95.2241H66.2153C66.3246 95.2241 66.3776 95.3266 66.3511 95.4275L64.2346 112.161C64.2081 112.262 64.1535 112.329 64.0988 112.329H61.6297C61.5485 112.329 61.4939 112.262 61.4939 112.161Z" fill="#69686C"/>
<path d="M67.9805 108.639V98.7823C67.9805 96.2078 69.1198 94.9214 71.1551 94.9214C73.1904 94.9214 74.3033 96.2425 74.3033 98.7823V104.439C74.3033 104.54 74.2486 104.607 74.1675 104.607H70.3138V108.571C70.3138 109.722 70.4761 110.264 71.1551 110.264C71.8341 110.264 71.9699 109.621 71.9699 108.571V106.064C71.9699 105.963 72.0245 105.896 72.1057 105.896H74.1691C74.2503 105.896 74.3049 105.963 74.3049 106.064V108.639C74.3049 111.349 73.1921 112.635 71.1568 112.635C69.1215 112.635 67.9821 111.281 67.9821 108.639H67.9805ZM71.9699 102.44V98.8501C71.9699 97.8679 71.8606 97.2925 71.1551 97.2925C70.4496 97.2925 70.3138 97.9357 70.3138 98.8501V102.44H71.9699Z" fill="#69686C"/>
<path d="M77.0176 112.161V95.3945C77.0176 95.2936 77.0722 95.2258 77.1534 95.2258H79.2152C79.2963 95.2258 79.351 95.2936 79.351 95.3945V96.5453H79.4867C79.7318 95.4953 80.4092 94.9199 81.4144 94.9199C82.8535 94.9199 83.2327 96.1402 83.2327 98.1723V101.119C83.2327 101.22 83.1781 101.287 83.0969 101.287H81.0335C80.9524 101.287 80.8977 101.22 80.8977 101.119V98.7825C80.8977 97.8681 80.8166 97.3935 80.1922 97.3935C79.4602 97.3935 79.351 98.2401 79.351 99.257V112.162C79.351 112.263 79.2963 112.331 79.2152 112.331H77.1534C77.0722 112.331 77.0176 112.263 77.0176 112.162V112.161Z" fill="#69686C"/>
<path d="M84.9434 108.875V105.996C84.9434 105.896 84.998 105.828 85.0792 105.828H87.1426C87.2237 105.828 87.2784 105.896 87.2784 105.996V108.706C87.2784 109.791 87.4953 110.264 88.1197 110.264C88.8251 110.264 88.9344 109.689 88.9344 108.706V107.081C88.9344 104.541 84.945 103.524 84.945 100.375V98.6467C84.945 96.1069 86.0579 94.9214 88.1197 94.9214C90.1814 94.9214 91.2943 96.1417 91.2943 98.7823V100.95C91.2943 101.051 91.2397 101.119 91.1585 101.119H89.0686C88.9874 101.119 88.9328 101.051 88.9328 100.95V98.9857C88.9328 97.8348 88.7705 97.2925 88.118 97.2925C87.4655 97.2925 87.2767 97.9026 87.2767 98.8501V100.036C87.2767 102.339 91.2927 103.424 91.2927 106.775V108.875C91.2927 111.347 90.2609 112.635 88.118 112.635C85.9751 112.635 84.9434 111.415 84.9434 108.875Z" fill="#69686C"/>
<path d="M93.3827 109.553V106.132C93.3827 104.065 93.8166 103.389 95.1464 102.678L96.7196 101.932C97.2347 101.628 97.344 101.458 97.3705 101.018V98.7492C97.3705 97.6314 97.18 97.3272 96.5292 97.3272C95.8237 97.3272 95.7144 97.8017 95.7144 98.7492V100.781C95.7144 100.882 95.6598 100.95 95.5786 100.95H93.5152C93.434 100.95 93.3794 100.882 93.3794 100.781V98.5789C93.3794 96.1069 94.4376 94.9214 96.5275 94.9214C98.6175 94.9214 99.7022 96.0722 99.7022 98.5789V109.249C99.7022 109.927 99.8926 109.892 100.543 109.892C100.625 109.892 100.679 109.96 100.679 110.061V112.161C100.679 112.261 100.625 112.329 100.543 112.329C98.8063 112.329 98.5082 112.364 98.1008 112.058C97.6934 111.787 97.45 111.347 97.3688 110.669H97.2877C97.0442 111.922 96.3106 112.533 95.3335 112.533C93.8414 112.533 93.3794 111.483 93.3794 109.551L93.3827 109.553ZM97.3456 108.435L97.3721 103.829C97.291 103.93 97.2098 103.964 97.127 104.032L96.4762 104.404C95.9065 104.708 95.7161 105.318 95.7161 106.436V108.3C95.7161 109.417 95.8784 109.925 96.4762 109.925C97.1552 109.925 97.344 109.079 97.344 108.435H97.3456Z" fill="#69686C"/>
<path d="M102.421 112.16V88.6198C102.421 88.519 102.476 88.4512 102.557 88.4512H104.619C104.7 88.4512 104.755 88.519 104.755 88.6198V112.16C104.755 112.261 104.7 112.329 104.619 112.329H102.557C102.476 112.329 102.421 112.261 102.421 112.16Z" fill="#69686C"/>
<path d="M7.82951 81.1164V84.1093H7.39893C6.12874 84.1093 5.10365 83.6744 4.54887 82.216C4.1597 82.4459 3.68773 82.5748 3.19588 82.5748C0.63397 82.5748 -0.00195312 80.6816 -0.00195312 77.8161V76.8438C-0.00195312 73.5187 1.35104 72.6738 3.40123 72.6738H6.29104C6.35231 72.6738 6.39371 72.725 6.39371 72.8011V79.1968C6.39371 80.7576 6.57753 81.1148 7.336 81.1148H7.82785L7.82951 81.1164ZM1.29142 70.0894V68.0424C1.29142 67.9663 1.33282 67.915 1.3941 67.915H3.03359C3.09486 67.915 3.13626 67.9663 3.13626 68.0424V70.0894C3.13626 70.1654 3.09486 70.2167 3.03359 70.2167H1.3941C1.33282 70.2167 1.29142 70.1654 1.29142 70.0894ZM3.99741 75.7955C3.99741 75.7195 3.95601 75.6682 3.89473 75.6682H3.40288C2.60301 75.6682 2.39932 76.2817 2.39932 77.1779V78.0988C2.39932 79.2761 2.72722 79.582 3.19919 79.582C3.83511 79.582 3.99906 78.9934 3.99906 78.0988V75.7972L3.99741 75.7955ZM3.66951 70.0894V68.0424C3.66951 67.9663 3.71091 67.915 3.77218 67.915H5.41167C5.47295 67.915 5.51435 67.9663 5.51435 68.0424V70.0894C5.51435 70.1654 5.47295 70.2167 5.41167 70.2167H3.77218C3.71091 70.2167 3.66951 70.1654 3.66951 70.0894Z" fill="#612C7C"/>
<path d="M12.3604 81.1167V84.1095H7.42041V81.1167H12.3604Z" fill="#612C7C"/>
<path d="M17.8535 81.1167V84.1096H16.5618C15.8232 84.1096 15.4142 83.5722 15.1889 82.6776C14.7385 83.5738 13.98 84.1096 12.8109 84.1096H11.9497V81.1167H12.9748C13.4865 81.1167 13.7531 80.8092 13.7531 79.7096V74.7723C13.7531 74.6963 13.7945 74.645 13.8558 74.645H16.0484C16.1097 74.645 16.1511 74.6963 16.1511 74.7723V79.9147C16.1511 80.8357 16.4591 81.1167 16.9294 81.1167H17.8519H17.8535ZM14.4719 86.5666V88.6136C14.4719 88.6897 14.4305 88.741 14.3692 88.741H12.7297C12.6684 88.741 12.627 88.6897 12.627 88.6136V86.5666C12.627 86.4906 12.6684 86.4393 12.7297 86.4393H14.3692C14.4305 86.4393 14.4719 86.4906 14.4719 86.5666ZM17.0338 86.5666V88.6136C17.0338 88.6897 16.9924 88.741 16.9311 88.741H15.2916C15.2303 88.741 15.1889 88.6897 15.1889 88.6136V86.5666C15.1889 86.4906 15.2303 86.4393 15.2916 86.4393H16.9311C16.9924 86.4393 17.0338 86.4906 17.0338 86.5666Z" fill="#612C7C"/>
<path d="M27.0163 81.1165V84.1093H22.2817C21.1539 84.1093 20.253 83.853 19.6585 83.0858C19.2892 83.7505 18.7361 84.1093 17.8749 84.1093H17.4443V81.1165H17.9362C18.5108 81.1165 18.8785 80.7577 18.8785 79.2993V77.4326C18.8785 74.5671 19.5144 72.6738 22.0763 72.6738C24.0039 72.6738 25.2741 74.5671 25.2741 77.4326V81.1165H27.0163ZM22.8762 77.1515C22.8762 76.2553 22.7122 75.6683 22.0763 75.6683C21.6043 75.6683 21.2764 75.9758 21.2764 77.1515V79.6069C21.2764 80.5031 21.4818 81.1165 22.28 81.1165H22.8745V77.1515H22.8762Z" fill="#612C7C"/>
<path d="M26.6057 81.1166H29.2288V65.0497C29.2288 64.9736 29.2702 64.9224 29.3315 64.9224H31.5241C31.5854 64.9224 31.6268 64.9736 31.6268 65.0497V83.9821C31.6268 84.0581 31.5854 84.1094 31.5241 84.1094H26.604V81.1166H26.6057Z" fill="#612C7C"/>
<path d="M37.7773 84.1094H35.8099C33.6173 84.1094 33.0625 82.3187 33.0625 79.6069V65.0497C33.0625 64.9736 33.1039 64.9224 33.1652 64.9224H35.3578C35.4191 64.9224 35.4605 64.9736 35.4605 65.0497V79.6069C35.4605 80.809 36.0136 81.1166 36.8333 81.1166H37.7756V84.1094H37.7773Z" fill="#612C7C"/>
<path d="M37.1631 81.1167H40.7716C39.3988 79.6335 39.3375 77.9701 39.3375 73.5702C39.3375 73.4941 39.3789 73.4429 39.4402 73.4429H42.9046C45.2827 73.4429 46.8609 75.4899 46.8609 78.023C46.8609 78.9953 46.3492 80.5562 45.5692 81.1183H48.5617V84.1111H46.5728C45.1585 84.1111 44.0108 83.9574 43.0669 83.2927C42.3912 83.9574 41.6112 84.1111 40.6888 84.1111H37.1631V81.1183V81.1167ZM43.1282 81.0406C44.2559 80.2982 44.6037 79.1738 44.6037 78.1751C44.6037 76.8457 44.1119 76.4357 42.739 76.4357H41.7338C41.7537 79.4037 42.0816 80.2982 43.1282 81.0406Z" fill="#612C7C"/>
<path d="M48.1491 81.1166H50.7723V65.0497C50.7723 64.9736 50.8137 64.9224 50.875 64.9224H53.0676C53.1289 64.9224 53.1703 64.9736 53.1703 65.0497V83.9821C53.1703 84.0581 53.1289 84.1094 53.0676 84.1094H48.1475V81.1166H48.1491Z" fill="#612C7C"/>
<path d="M55.1198 64.9224H57.3124C57.3736 64.9224 57.4151 64.9736 57.4151 65.0497V83.9821C57.4151 84.0581 57.3736 84.1094 57.3124 84.1094H55.1198C55.0585 84.1094 55.0171 84.0581 55.0171 83.9821V65.0497C55.0171 64.9736 55.0585 64.9224 55.1198 64.9224Z" fill="#612C7C"/>
<path d="M69.754 81.1168V84.1096H64.1582C63.0106 84.1096 62.272 85.0306 62.272 86.694C62.272 88.3574 63.0106 89.2784 64.1582 89.2784H66.6804C66.7417 89.2784 66.7831 89.3297 66.7831 89.4057V92.1422C66.7831 92.2183 66.7417 92.2696 66.6804 92.2696H64.1582C61.5748 92.2696 59.874 90.0175 59.874 86.36C59.874 83.1109 61.5748 81.1152 64.1582 81.1152H65.2032C65.1419 80.8076 65.1005 80.4753 65.1005 80.1181V76.3068C65.1005 75.1047 64.7726 74.7972 64.3006 74.7972C63.6647 74.7972 63.5008 75.4106 63.5008 76.3068V78.7622C63.5008 78.8383 63.4594 78.8896 63.3981 78.8896H61.2055C61.1442 78.8896 61.1028 78.8383 61.1028 78.7622V75.9728C61.1028 72.6477 62.373 71.8027 64.3006 71.8027C66.8626 71.8027 67.4985 73.7472 67.4985 76.6888V79.8618C67.4985 80.8589 67.8264 81.1152 68.3182 81.1152H69.7524L69.754 81.1168ZM67.5001 85.8507V87.8977C67.5001 87.9738 67.4587 88.0251 67.3975 88.0251H65.758C65.6967 88.0251 65.6553 87.9738 65.6553 87.8977V85.8507C65.6553 85.7747 65.6967 85.7234 65.758 85.7234H67.3975C67.4587 85.7234 67.5001 85.7747 67.5001 85.8507Z" fill="#612C7C"/>
<path d="M74.2852 81.1167V84.1095H69.3452V81.1167H74.2852Z" fill="#612C7C"/>
<path d="M79.7783 81.1167V84.1096H78.4866C77.748 84.1096 77.339 83.5722 77.1137 82.6776C76.6633 83.5738 75.9048 84.1096 74.7357 84.1096H73.8745V81.1167H74.8996C75.4113 81.1167 75.678 80.8092 75.678 79.7096V74.7723C75.678 74.6963 75.7194 74.645 75.7806 74.645H77.9749C78.0362 74.645 78.0776 74.6963 78.0776 74.7723V79.9147C78.0776 80.8357 78.3856 81.1167 78.8559 81.1167H79.7783ZM76.3967 86.5666V88.6136C76.3967 88.6897 76.3553 88.741 76.294 88.741H74.6545C74.5932 88.741 74.5518 88.6897 74.5518 88.6136V86.5666C74.5518 86.4906 74.5932 86.4393 74.6545 86.4393H76.294C76.3553 86.4393 76.3967 86.4906 76.3967 86.5666ZM78.9586 86.5666V88.6136C78.9586 88.6897 78.9172 88.741 78.8559 88.741H77.2164C77.1551 88.741 77.1137 88.6897 77.1137 88.6136V86.5666C77.1137 86.4906 77.1551 86.4393 77.2164 86.4393H78.8559C78.9172 86.4393 78.9586 86.4906 78.9586 86.5666Z" fill="#612C7C"/>
<path d="M85.8874 81.1166V84.1094H84.5956C83.857 84.1094 83.448 83.572 83.2228 82.6775C82.7723 83.5736 82.0139 84.1094 80.8447 84.1094H79.3691V81.1166H81.0086C81.5204 81.1166 81.787 80.809 81.787 79.7095V65.0497C81.787 64.9736 81.8284 64.9224 81.8896 64.9224H84.0823C84.1435 64.9224 84.1849 64.9736 84.1849 65.0497V79.9128C84.1849 80.8338 84.493 81.1149 84.9633 81.1149H85.8857L85.8874 81.1166Z" fill="#612C7C"/>
<path d="M95.9097 81.1165V84.1094H85.4766V81.1165H91.4218C91.3605 80.809 91.3191 80.4766 91.3191 80.1195V76.3082C91.3191 75.1061 90.9912 74.7986 90.5192 74.7986C89.8833 74.7986 89.7194 75.412 89.7194 76.3082V77.7401C89.7194 77.8162 89.678 77.8675 89.6167 77.8675H87.4241C87.3628 77.8675 87.3214 77.8162 87.3214 77.7401V75.9742C87.3214 72.6739 88.5916 71.8041 90.5192 71.8041C93.0811 71.8041 93.7171 73.7486 93.7171 76.6902V79.8632C93.7171 80.8603 94.045 81.1165 94.5368 81.1165H95.9097ZM89.5968 69.2197V67.1727C89.5968 67.0967 89.6382 67.0454 89.6995 67.0454H91.339C91.4002 67.0454 91.4416 67.0967 91.4416 67.1727V69.2197C91.4416 69.2958 91.4002 69.3471 91.339 69.3471H89.6995C89.6382 69.3471 89.5968 69.2958 89.5968 69.2197Z" fill="#612C7C"/>
<path d="M95.5007 81.1166H98.1239V65.0497C98.1239 64.9736 98.1653 64.9224 98.2265 64.9224H100.419C100.48 64.9224 100.522 64.9736 100.522 65.0497V83.9821C100.522 84.0581 100.48 84.1094 100.419 84.1094H95.499V81.1166H95.5007Z" fill="#612C7C"/>
<path d="M102.469 64.9224H104.662C104.723 64.9224 104.765 64.9736 104.765 65.0497V83.9821C104.765 84.0581 104.723 84.1094 104.662 84.1094H102.469C102.408 84.1094 102.367 84.0581 102.367 83.9821V65.0497C102.367 64.9736 102.408 64.9224 102.469 64.9224Z" fill="#612C7C"/>
<path d="M0.00976562 123.089V115.198C0.00976562 115.164 0.0296382 115.142 0.0611032 115.142H1.46543C2.39448 115.142 3.02378 115.584 3.02378 116.582V118.669C3.02378 119.701 2.35308 120.121 1.46543 120.121H1.19715V123.09C1.19715 123.125 1.17728 123.147 1.14582 123.147H0.0611032C0.0296382 123.147 0.00976562 123.123 0.00976562 123.09V123.089ZM1.47371 118.985C1.72212 118.985 1.83473 118.882 1.83473 118.6V116.65C1.83473 116.377 1.73206 116.265 1.47371 116.265H1.1955V118.985H1.47371Z" fill="#69686C"/>
<path d="M3.75556 123.089V117.467C3.75556 117.432 3.77543 117.41 3.8069 117.41H4.81875C4.85021 117.41 4.87008 117.434 4.87008 117.467V117.887H4.93136C5.00422 117.513 5.28244 117.296 5.70473 117.296C6.27276 117.296 6.43671 117.705 6.43671 118.396V119.654C6.43671 119.689 6.41683 119.71 6.38537 119.71H5.36359C5.33212 119.71 5.31225 119.687 5.31225 119.654V118.669C5.31225 118.442 5.29238 118.307 5.10524 118.307C4.8883 118.307 4.86843 118.522 4.86843 118.839V123.09C4.86843 123.125 4.84855 123.146 4.81709 123.146H3.80524C3.77378 123.146 3.75391 123.123 3.75391 123.09L3.75556 123.089Z" fill="#69686C"/>
<path d="M6.93359 121.829V118.724C6.93359 117.817 7.45028 117.295 8.28493 117.295C9.16264 117.295 9.63627 117.85 9.63627 118.724V121.829C9.63627 122.737 9.11958 123.257 8.28493 123.257C7.40722 123.257 6.93359 122.702 6.93359 121.829ZM8.51347 121.863V118.689C8.51347 118.428 8.49359 118.28 8.28659 118.28C8.07958 118.28 8.04977 118.439 8.04977 118.689V121.863C8.04977 122.136 8.12264 122.26 8.28659 122.26C8.482 122.26 8.51347 122.102 8.51347 121.863Z" fill="#69686C"/>
<path d="M10.4229 124.856V117.465C10.4229 117.431 10.4427 117.409 10.4742 117.409H11.486C11.5175 117.409 11.5374 117.432 11.5374 117.465V117.885H11.5986C11.6715 117.512 11.9696 117.295 12.4035 117.295C12.9715 117.295 13.1255 117.703 13.1255 118.394V122.26C13.1255 122.928 12.8572 123.257 12.3207 123.257C11.8967 123.257 11.6814 122.963 11.5986 122.646H11.5374V124.856C11.5374 124.891 11.5175 124.913 11.486 124.913H10.4742C10.4427 124.913 10.4229 124.889 10.4229 124.856ZM12.0011 121.739V118.679C12.0011 118.429 11.9812 118.305 11.7841 118.305C11.5672 118.305 11.5357 118.499 11.5357 118.838V121.637C11.5357 121.966 11.5871 122.169 11.7841 122.169C11.9812 122.169 12.0011 122.011 12.0011 121.738V121.739Z" fill="#69686C"/>
<path d="M13.8078 121.91V118.634C13.8078 117.693 14.3543 117.296 15.1591 117.296C16.0054 117.296 16.5105 117.716 16.5105 118.634V120.504C16.5105 120.539 16.4906 120.56 16.4591 120.56H14.9207V121.886C14.9207 122.169 14.9819 122.295 15.1575 122.295C15.3529 122.295 15.3844 122.136 15.3844 121.886V120.98C15.3844 120.946 15.4042 120.924 15.4357 120.924H16.4575C16.489 120.924 16.5088 120.947 16.5088 120.98V121.91C16.5088 122.85 15.9723 123.259 15.1575 123.259C14.3427 123.259 13.8062 122.817 13.8062 121.91H13.8078ZM15.386 119.699V118.656C15.386 118.406 15.3662 118.259 15.1591 118.259C14.9521 118.259 14.9223 118.417 14.9223 118.656V119.699H15.386Z" fill="#69686C"/>
<path d="M17.2956 123.089V117.467C17.2956 117.432 17.3155 117.41 17.3469 117.41H18.3588C18.3903 117.41 18.4101 117.434 18.4101 117.467V117.887H18.4714C18.5443 117.513 18.8225 117.296 19.2448 117.296C19.8128 117.296 19.9767 117.705 19.9767 118.396V119.654C19.9767 119.689 19.9569 119.71 19.9254 119.71H18.9036C18.8722 119.71 18.8523 119.687 18.8523 119.654V118.669C18.8523 118.442 18.8324 118.307 18.6453 118.307C18.4283 118.307 18.4085 118.522 18.4085 118.839V123.09C18.4085 123.125 18.3886 123.146 18.3571 123.146H17.3453C17.3138 123.146 17.2939 123.123 17.2939 123.09L17.2956 123.089Z" fill="#69686C"/>
<path d="M20.6923 122.169V118.406H20.2286C20.1971 118.406 20.1772 118.383 20.1772 118.35V117.465C20.1772 117.43 20.1971 117.409 20.2286 117.409H20.6923V115.947C20.6923 115.913 20.7122 115.891 20.7436 115.891H21.7555C21.7869 115.891 21.8068 115.914 21.8068 115.947V117.409H22.3748C22.4063 117.409 22.4262 117.432 22.4262 117.465V118.35C22.4262 118.385 22.4063 118.406 22.3748 118.406H21.8068V121.863C21.8068 122.067 21.8581 122.136 22.0436 122.136H22.3732C22.4046 122.136 22.4245 122.159 22.4245 122.193V123.089C22.4245 123.123 22.4046 123.145 22.3732 123.145H21.5584C20.9291 123.145 20.6923 122.794 20.6923 122.169Z" fill="#69686C"/>
<path d="M25.5527 117.465L24.6237 124.03C24.5409 124.698 24.3753 124.891 23.8602 124.891H22.807C22.7755 124.891 22.7557 124.868 22.7557 124.835V123.939C22.7557 123.904 22.7755 123.882 22.807 123.882H23.2922C23.4678 123.882 23.529 123.815 23.5506 123.61L23.592 123.292L23.5092 123.304C23.4893 123.304 23.4678 123.281 23.4578 123.247L22.6215 117.467L22.6315 117.478C22.6116 117.455 22.5901 117.411 22.6729 117.411H23.6946C23.7261 117.411 23.746 117.434 23.746 117.467L24.0557 121.515H24.1169L24.4366 117.467C24.4366 117.432 24.4564 117.411 24.4879 117.411H25.4997C25.5411 117.411 25.5726 117.445 25.5511 117.467L25.5527 117.465Z" fill="#69686C"/>
<path d="M27.689 123.089V115.198C27.689 115.164 27.7088 115.142 27.7403 115.142H29.2158C30.1449 115.142 30.7841 115.572 30.7841 116.582V121.695C30.7841 122.738 30.1234 123.147 29.2158 123.147H27.7403C27.7088 123.147 27.689 123.123 27.689 123.09V123.089ZM29.2374 122.011C29.4858 122.011 29.5984 121.908 29.5984 121.625V116.648C29.5984 116.376 29.4957 116.263 29.2374 116.263H28.8764V122.011H29.2374Z" fill="#69686C"/>
<path d="M31.5178 121.91V118.634C31.5178 117.693 32.0643 117.296 32.8691 117.296C33.7153 117.296 34.2204 117.716 34.2204 118.634V120.504C34.2204 120.539 34.2006 120.56 34.1691 120.56H32.6306V121.886C32.6306 122.169 32.6919 122.295 32.8675 122.295C33.0629 122.295 33.0943 122.136 33.0943 121.886V120.98C33.0943 120.946 33.1142 120.924 33.1457 120.924H34.1675C34.1989 120.924 34.2188 120.947 34.2188 120.98V121.91C34.2188 122.85 33.6822 123.259 32.8675 123.259C32.0527 123.259 31.5161 122.817 31.5161 121.91H31.5178ZM33.0976 119.699V118.656C33.0976 118.406 33.0778 118.259 32.8708 118.259C32.6638 118.259 32.6339 118.417 32.6339 118.656V119.699H33.0976Z" fill="#69686C"/>
<path d="M37.5359 117.465L36.7311 123.087C36.7212 123.122 36.6996 123.143 36.6798 123.143H35.4725C35.441 123.143 35.4212 123.12 35.4212 123.087L34.6064 117.465L34.6163 117.477C34.5964 117.454 34.5749 117.409 34.6577 117.409H35.6795C35.711 117.409 35.7308 117.432 35.7308 117.465L36.0405 121.513H36.1018L36.4214 117.465C36.4214 117.431 36.4413 117.409 36.4728 117.409H37.4846C37.526 117.409 37.5575 117.444 37.5359 117.465Z" fill="#69686C"/>
<path d="M37.9167 121.91V118.634C37.9167 117.693 38.4632 117.296 39.268 117.296C40.1143 117.296 40.6194 117.716 40.6194 118.634V120.504C40.6194 120.539 40.5995 120.56 40.568 120.56H39.0296V121.886C39.0296 122.169 39.0908 122.295 39.2664 122.295C39.4618 122.295 39.4933 122.136 39.4933 121.886V120.98C39.4933 120.946 39.5131 120.924 39.5446 120.924H40.5664C40.5978 120.924 40.6177 120.947 40.6177 120.98V121.91C40.6177 122.85 40.0812 123.259 39.2664 123.259C38.4516 123.259 37.915 122.817 37.915 121.91H37.9167ZM39.4966 119.699V118.656C39.4966 118.406 39.4767 118.259 39.2697 118.259C39.0627 118.259 39.0329 118.417 39.0329 118.656V119.699H39.4966Z" fill="#69686C"/>
<path d="M41.4062 123.089V115.198C41.4062 115.164 41.4261 115.142 41.4576 115.142H42.4694C42.5009 115.142 42.5208 115.165 42.5208 115.198V123.089C42.5208 123.123 42.5009 123.145 42.4694 123.145H41.4576C41.4261 123.145 41.4062 123.122 41.4062 123.089Z" fill="#69686C"/>
<path d="M43.3037 121.829V118.724C43.3037 117.817 43.8204 117.295 44.655 117.295C45.5328 117.295 46.0064 117.85 46.0064 118.724V121.829C46.0064 122.737 45.4897 123.257 44.655 123.257C43.7773 123.257 43.3037 122.702 43.3037 121.829ZM44.8836 121.863V118.689C44.8836 118.428 44.8637 118.28 44.6567 118.28C44.4497 118.28 44.4199 118.439 44.4199 118.689V121.863C44.4199 122.136 44.4928 122.26 44.6567 122.26C44.8521 122.26 44.8836 122.102 44.8836 121.863Z" fill="#69686C"/>
<path d="M46.793 124.856V117.465C46.793 117.431 46.8128 117.409 46.8443 117.409H47.8562C47.8876 117.409 47.9075 117.432 47.9075 117.465V117.885H47.9688C48.0416 117.512 48.3397 117.295 48.7736 117.295C49.3416 117.295 49.4956 117.703 49.4956 118.394V122.26C49.4956 122.928 49.2274 123.257 48.6908 123.257C48.2669 123.257 48.0516 122.963 47.9688 122.646H47.9075V124.856C47.9075 124.891 47.8876 124.913 47.8562 124.913H46.8443C46.8128 124.913 46.793 124.889 46.793 124.856ZM48.3712 121.739V118.679C48.3712 118.429 48.3513 118.305 48.1542 118.305C47.9373 118.305 47.9058 118.499 47.9058 118.838V121.637C47.9058 121.966 47.9572 122.169 48.1542 122.169C48.3513 122.169 48.3712 122.011 48.3712 121.738V121.739Z" fill="#69686C"/>
<path d="M50.281 123.089V117.467C50.281 117.432 50.3008 117.41 50.3323 117.41H51.3441C51.3756 117.41 51.3955 117.434 51.3955 117.467V117.887H51.4568C51.5296 117.513 51.8277 117.296 52.2616 117.296C52.6955 117.296 52.8495 117.5 52.9422 117.887H52.9936C53.1277 117.49 53.396 117.296 53.8199 117.296C54.388 117.296 54.5734 117.693 54.5734 118.396V123.089C54.5734 123.123 54.5536 123.145 54.5221 123.145H53.5003C53.4688 123.145 53.449 123.122 53.449 123.089V118.667C53.449 118.373 53.4076 118.282 53.232 118.282C53.0151 118.282 52.9836 118.508 52.9836 118.826V123.089C52.9836 123.123 52.9638 123.145 52.9323 123.145H51.9105C51.879 123.145 51.8592 123.122 51.8592 123.089V118.667C51.8592 118.373 51.8178 118.282 51.6422 118.282C51.4253 118.282 51.3938 118.508 51.3938 118.826V123.089C51.3938 123.123 51.3739 123.145 51.3425 123.145H50.3306C50.2992 123.145 50.2793 123.122 50.2793 123.089H50.281Z" fill="#69686C"/>
<path d="M55.2971 121.91V118.634C55.2971 117.693 55.8436 117.296 56.6484 117.296C57.4946 117.296 57.9997 117.716 57.9997 118.634V120.504C57.9997 120.539 57.9799 120.56 57.9484 120.56H56.4099V121.886C56.4099 122.169 56.4712 122.295 56.6467 122.295C56.8422 122.295 56.8736 122.136 56.8736 121.886V120.98C56.8736 120.946 56.8935 120.924 56.925 120.924H57.9467C57.9782 120.924 57.9981 120.947 57.9981 120.98V121.91C57.9981 122.85 57.4615 123.259 56.6467 123.259C55.832 123.259 55.2954 122.817 55.2954 121.91H55.2971ZM56.8769 119.699V118.656C56.8769 118.406 56.8571 118.259 56.6501 118.259C56.4431 118.259 56.4132 118.417 56.4132 118.656V119.699H56.8769Z" fill="#69686C"/>
<path d="M58.7863 123.089V117.467C58.7863 117.432 58.8062 117.41 58.8377 117.41H59.8495C59.881 117.41 59.9008 117.434 59.9008 117.467V117.887H59.9621C60.035 117.513 60.3447 117.296 60.767 117.296C61.335 117.296 61.489 117.705 61.489 118.396V123.089C61.489 123.123 61.4691 123.145 61.4377 123.145H60.4159C60.3844 123.145 60.3645 123.122 60.3645 123.089V118.667C60.3645 118.373 60.3231 118.282 60.1476 118.282C59.9307 118.282 59.8992 118.508 59.8992 118.826V123.089C59.8992 123.123 59.8793 123.145 59.8479 123.145H58.836C58.8045 123.145 58.7847 123.122 58.7847 123.089H58.7863Z" fill="#69686C"/>
<path d="M62.4496 122.169V118.406H61.9859C61.9544 118.406 61.9346 118.383 61.9346 118.35V117.465C61.9346 117.43 61.9544 117.409 61.9859 117.409H62.4496V115.947C62.4496 115.913 62.4695 115.891 62.5009 115.891H63.5128C63.5443 115.891 63.5641 115.914 63.5641 115.947V117.409H64.1322C64.1636 117.409 64.1835 117.432 64.1835 117.465V118.35C64.1835 118.385 64.1636 118.406 64.1322 118.406H63.5641V121.863C63.5641 122.067 63.6155 122.136 63.8009 122.136H64.1305C64.162 122.136 64.1818 122.159 64.1818 122.193V123.089C64.1818 123.123 64.162 123.145 64.1305 123.145H63.3157C62.6864 123.145 62.4496 122.794 62.4496 122.169Z" fill="#69686C"/>
<path d="M70.501 117.887V120.079C70.501 120.101 70.4861 120.116 70.4646 120.116H69.6713C69.6498 120.116 69.6349 120.101 69.6349 120.079V118.717H69.0487C68.8781 118.717 68.7589 118.783 68.7589 119.051V119.725C68.7589 120.251 68.9079 120.415 69.307 120.711C69.9976 121.222 70.0853 121.473 70.0853 121.852C70.0853 122.474 69.8038 122.94 68.676 122.94H67.9706C66.9687 122.94 66.3013 122.578 66.3013 121.109V120.192C66.3013 120.17 66.3162 120.155 66.3377 120.155H67.131C67.1525 120.155 67.1674 120.17 67.1674 120.192V121.118C67.1674 121.688 67.3313 122.073 67.9689 122.073H68.6446C69.0453 122.073 69.2159 122.014 69.2159 121.777C69.2159 121.556 69.1497 121.414 68.5634 121.037C68.0583 120.711 67.8878 120.415 67.8878 119.725V118.985C67.8878 118.303 68.118 117.852 69.0453 117.852H70.4629C70.4845 117.852 70.4994 117.867 70.4994 117.888L70.501 117.887ZM68.2306 123.649V124.241C68.2306 124.263 68.2157 124.277 68.1941 124.277H67.6013C67.5797 124.277 67.5648 124.263 67.5648 124.241V123.649C67.5648 123.628 67.5797 123.613 67.6013 123.613H68.1941C68.2157 123.613 68.2306 123.628 68.2306 123.649ZM69.158 123.649V124.241C69.158 124.263 69.1431 124.277 69.1215 124.277H68.5287C68.5071 124.277 68.4922 124.263 68.4922 124.241V123.649C68.4922 123.628 68.5071 123.613 68.5287 123.613H69.1215C69.1431 123.613 69.158 123.628 69.158 123.649Z" fill="#612C7C"/>
<path d="M70.6501 123.124V122.331C70.6501 122.31 70.665 122.295 70.6865 122.295H71.0426C71.5245 122.295 71.8441 122.11 71.8441 121.339V118.606C71.8441 118.585 71.859 118.57 71.8805 118.57H72.6738C72.6953 118.57 72.7102 118.585 72.7102 118.606V121.333C72.7102 122.429 72.3757 123.163 71.0409 123.163H70.6849C70.6633 123.163 70.6484 123.148 70.6484 123.127L70.6501 123.124Z" fill="#612C7C"/>
<path d="M75.1593 121.309H74.4472C73.654 121.309 73.4536 120.79 73.4536 120.006V115.792C73.4536 115.77 73.4685 115.755 73.49 115.755H74.2833C74.3048 115.755 74.3197 115.77 74.3197 115.792V120.006C74.3197 120.355 74.5201 120.443 74.8165 120.443H75.1577V121.309H75.1593Z" fill="#612C7C"/>
<path d="M75.0122 120.443H75.7028C75.6067 120.347 75.5322 120.088 75.5322 119.784V119.043C75.5322 118.324 75.9926 117.851 76.6898 117.851C77.387 117.851 77.8474 118.325 77.8474 119.043V119.784C77.8474 120.088 77.7728 120.346 77.6768 120.443H78.3674V121.31H75.0139V120.443H75.0122ZM75.9611 116.472H76.554C76.5755 116.472 76.5904 116.487 76.5904 116.508V117.1C76.5904 117.121 76.5755 117.136 76.554 117.136H75.9611C75.9396 117.136 75.9247 117.121 75.9247 117.1V116.508C75.9247 116.487 75.9396 116.472 75.9611 116.472ZM76.6881 120.443C76.8587 120.443 76.9779 120.295 76.9779 120.08V119.079C76.9779 118.864 76.8587 118.715 76.6881 118.715C76.5176 118.715 76.3983 118.864 76.3983 119.079V120.08C76.3983 120.295 76.5176 120.443 76.6881 120.443ZM76.8223 116.472H77.4151C77.4367 116.472 77.4516 116.487 77.4516 116.508V117.1C77.4516 117.121 77.4367 117.136 77.4151 117.136H76.8223C76.8007 117.136 76.7858 117.121 76.7858 117.1V116.508C76.7858 116.487 76.8007 116.472 76.8223 116.472Z" fill="#612C7C"/>
<path d="M78.1434 120.443H79.4484C78.9516 120.013 78.9284 119.532 78.9284 118.257C78.9284 118.236 78.9433 118.221 78.9648 118.221H80.2185C81.0796 118.221 81.651 118.813 81.651 119.547C81.651 119.828 81.4655 120.279 81.184 120.443H82.267V121.309H81.5466C81.0349 121.309 80.6192 121.265 80.2781 121.073C80.033 121.266 79.7515 121.309 79.4169 121.309H78.1401V120.443H78.1434ZM80.3013 120.42C80.7087 120.205 80.8362 119.879 80.8362 119.59C80.8362 119.205 80.6573 119.085 80.1605 119.085H79.7978C79.8045 119.945 79.9237 120.203 80.3029 120.418L80.3013 120.42Z" fill="#612C7C"/>
<path d="M82.1198 120.443H83.0687V115.792C83.0687 115.77 83.0836 115.755 83.1052 115.755H83.8984C83.9199 115.755 83.9349 115.77 83.9349 115.792V121.273C83.9349 121.295 83.9199 121.309 83.8984 121.309H82.1182V120.443H82.1198Z" fill="#612C7C"/>
<path d="M84.7908 115.754H85.5841C85.6056 115.754 85.6205 115.769 85.6205 115.79V121.272C85.6205 121.293 85.6056 121.308 85.5841 121.308H84.7908C84.7693 121.308 84.7544 121.293 84.7544 121.272V115.79C84.7544 115.769 84.7693 115.754 84.7908 115.754Z" fill="#612C7C"/>
<path d="M89.3385 120.443V121.309H89.1447C89.004 121.309 88.8549 121.28 88.7224 121.22V121.331C88.7224 122.427 88.3879 123.161 87.0531 123.161H86.6971C86.6756 123.161 86.6606 123.146 86.6606 123.125V122.333C86.6606 122.311 86.6756 122.297 86.6971 122.297H87.0531C87.535 122.297 87.8547 122.111 87.8547 121.341V118.608C87.8547 118.586 87.8696 118.571 87.8911 118.571H88.6843C88.7059 118.571 88.7208 118.586 88.7208 118.608V119.874C88.7208 120.334 88.8996 120.445 89.158 120.445H89.3368L89.3385 120.443Z" fill="#612C7C"/>
<path d="M89.1913 120.443H90.1402V118.457C90.1402 118.436 90.1551 118.421 90.1767 118.421H90.9699C90.9914 118.421 91.0063 118.436 91.0063 118.457V121.31H89.188V120.443H89.1913ZM89.3089 121.835H89.9017C89.9233 121.835 89.9382 121.85 89.9382 121.872V122.464C89.9382 122.485 89.9233 122.5 89.9017 122.5H89.3089C89.2873 122.5 89.2724 122.485 89.2724 122.464V121.872C89.2724 121.85 89.2873 121.835 89.3089 121.835ZM90.2379 121.835H90.8308C90.8523 121.835 90.8672 121.85 90.8672 121.872V122.464C90.8672 122.485 90.8523 122.5 90.8308 122.5H90.2379C90.2164 122.5 90.2015 122.485 90.2015 122.464V121.872C90.2015 121.85 90.2164 121.835 90.2379 121.835Z" fill="#612C7C"/>
<path d="M94.4957 121.31H93.7686V121.331C93.7686 122.427 93.4341 123.162 92.2484 123.162H91.8923C91.8708 123.162 91.8559 123.147 91.8559 123.125V122.333C91.8559 122.312 91.8708 122.297 91.8923 122.297H92.2484C92.5829 122.297 92.9009 122.112 92.9009 121.341V121.311H92.7303C92.1143 121.311 91.6025 121.037 91.6025 119.934V119.193C91.6025 118.342 91.8327 117.778 92.6111 117.778C93.3083 117.778 93.7686 118.023 93.7686 118.985V120.445H94.4957V121.311V121.31ZM92.9009 118.932C92.9009 118.821 92.8562 118.643 92.6939 118.643C92.5597 118.643 92.472 118.732 92.472 118.932V120.088C92.472 120.266 92.5531 120.443 92.7916 120.443H92.9025V118.932H92.9009Z" fill="#612C7C"/>
<path d="M98.8659 120.443V121.309H94.3481V120.443H95.0752V115.792C95.0752 115.77 95.0901 115.755 95.1116 115.755H95.9048C95.9264 115.755 95.9413 115.77 95.9413 115.792V118.259C96.2675 117.925 96.6236 117.807 96.8836 117.807C97.551 117.807 97.9964 118.097 97.9964 119.267V120.445H98.8642L98.8659 120.443ZM97.1303 119.153C97.1303 118.879 97.0409 118.694 96.6931 118.694C96.5076 118.694 96.2327 118.819 95.9429 118.968V120.443H97.1303V119.153Z" fill="#612C7C"/>
<path d="M100.855 120.443V121.309H100.388C100.121 121.309 99.9719 121.154 99.8907 120.894C99.7268 121.154 99.4535 121.309 99.0296 121.309H98.7183V120.443H99.0892C99.2747 120.443 99.3707 120.354 99.3707 120.036V118.606C99.3707 118.585 99.3857 118.57 99.4072 118.57H100.2C100.222 118.57 100.237 118.585 100.237 118.606V120.094C100.237 120.36 100.348 120.443 100.518 120.443H100.853H100.855ZM99.0511 117.672V117.08C99.0511 117.058 99.066 117.043 99.0876 117.043H99.6804C99.702 117.043 99.7169 117.058 99.7169 117.08V117.672C99.7169 117.693 99.702 117.708 99.6804 117.708H99.0876C99.066 117.708 99.0511 117.693 99.0511 117.672ZM99.9123 117.672V117.08C99.9123 117.058 99.9272 117.043 99.9487 117.043H100.542C100.563 117.043 100.578 117.058 100.578 117.08V117.672C100.578 117.693 100.563 117.708 100.542 117.708H99.9487C99.9272 117.708 99.9123 117.693 99.9123 117.672Z" fill="#612C7C"/>
<path d="M103.065 120.443V121.309H102.598C102.332 121.309 102.183 121.154 102.102 120.894C101.938 121.154 101.664 121.309 101.24 121.309H100.706V120.443H101.298C101.484 120.443 101.58 120.354 101.58 120.036V115.792C101.58 115.77 101.595 115.755 101.616 115.755H102.41C102.431 115.755 102.446 115.77 102.446 115.792V120.096C102.446 120.362 102.557 120.445 102.728 120.445H103.062L103.065 120.443Z" fill="#612C7C"/>
<path d="M102.917 120.443H103.866V115.792C103.866 115.77 103.881 115.755 103.902 115.755H104.695C104.717 115.755 104.732 115.77 104.732 115.792V121.273C104.732 121.295 104.717 121.309 104.695 121.309H102.915V120.443H102.917Z" fill="#612C7C"/>
</g>
<defs>
<clipPath id="clip0_24_759">
<rect width="150" height="125" fill="white"/>
</clipPath>
</defs>
</svg>
