<svg width="904" height="562" viewBox="0 0 904 562" fill="none" xmlns="http://www.w3.org/2000/svg">
<path d="M773.24 241.03L722.13 291.79V453.28H773.24V241.03Z" fill="white"/>
<path d="M722.05 467.58V561.66H739.12V524.83H757.54V561.66H773.45V467.58H722.05ZM766.44 511.57H730.23V501.44H766.44V511.57Z" fill="white"/>
<path d="M852.92 0V561.66H903.95V177C903.95 60.15 852.92 0 852.92 0Z" fill="white"/>
<path d="M787.58 561.66H838.61V60.77C838.61 60.77 787.58 114.49 787.58 218.74V561.66Z" fill="white"/>
<path d="M18.7202 561.66C26.3502 561.66 31.6102 555.99 34.1502 547.13H35.0602L37.4202 558.71C37.4202 559.39 37.7802 559.62 38.3302 559.62H47.9502C48.4902 559.62 48.8602 559.17 48.8602 558.48V478.13C48.8602 477.45 48.5002 476.99 47.9502 476.99H25.8002C25.2502 476.99 24.8902 477.44 24.8902 478.13V493.79C24.8902 494.7 25.2502 495.15 25.8002 495.15H32.5202V532.15C32.5202 539.64 29.9802 543.27 24.7102 543.27C19.4402 543.27 16.7202 540.32 16.7202 531.92V427.05C16.7202 418.88 18.5402 415.7 24.7102 415.7C30.3402 415.7 32.3402 418.2 32.3402 427.05V462.46C32.3402 463.14 32.7002 463.6 33.2502 463.6H47.9602C48.5002 463.6 48.8702 463.15 48.8702 462.46V426.14C48.8702 406.85 39.9702 397.54 24.5402 397.54C9.1102 397.54 0.200195 406.86 0.200195 426.15V533.74C0.200195 551.9 5.8302 561.66 18.7202 561.66Z" fill="white"/>
<path d="M94.8006 550.76V558.48C94.8006 559.16 95.1606 559.62 95.7106 559.62H109.511C110.051 559.62 110.421 559.17 110.421 558.48V446.12C110.421 445.44 110.061 444.98 109.511 444.98H95.7106C95.1706 444.98 94.8006 445.43 94.8006 446.12V532.83C94.8006 541 93.7106 545.54 88.9906 545.54C84.8106 545.54 83.7206 542.36 83.7206 535.32V446.12C83.7206 445.44 83.3606 444.98 82.8106 444.98H69.0106C68.4606 444.98 68.1006 445.43 68.1006 446.12V539.41C68.1006 553.26 71.1906 561.65 80.6306 561.65C87.3506 561.65 92.4306 557.56 93.8906 550.75H94.8006V550.76Z" fill="white"/>
<path d="M131.301 559.62H145.101C145.641 559.62 146.011 559.17 146.011 558.48V400.73C146.011 400.05 145.651 399.59 145.101 399.59H131.301C130.761 399.59 130.391 400.04 130.391 400.73V558.48C130.391 559.16 130.751 559.62 131.301 559.62Z" fill="white"/>
<path d="M195.59 461.1V447.03C195.59 446.35 195.23 445.89 194.68 445.89H183.97V422.96C183.97 417.06 184.7 415.92 188.51 415.92H194.87C195.41 415.92 195.78 415.47 195.78 414.79V400.72C195.78 400.04 195.42 399.58 194.87 399.58H183.07C172.54 399.58 168.36 404.57 168.36 418.19V445.88H159.83C159.29 445.88 158.92 446.33 158.92 447.02V461.09C158.92 461.77 159.28 462.23 159.83 462.23H168.36V558.47C168.36 559.15 168.72 559.61 169.27 559.61H183.07C183.61 559.61 183.98 559.16 183.98 558.47V462.23H194.69C195.23 462.23 195.6 461.78 195.6 461.09L195.59 461.1Z" fill="white"/>
<path d="M286.56 399.59H271.85C271.31 399.59 270.94 400.04 270.94 400.73V531.93C270.94 539.87 268.94 543.28 263.13 543.28C257.68 543.28 255.32 540.56 255.32 531.93V400.73C255.32 400.05 254.96 399.59 254.41 399.59H239.7C239.16 399.59 238.79 400.04 238.79 400.73V532.84C238.79 552.13 248.23 561.67 262.94 561.67C277.65 561.67 287.45 552.82 287.45 532.84V400.73C287.45 400.05 287.09 399.59 286.54 399.59H286.56Z" fill="white"/>
<path d="M349.76 558.48V465.19C349.76 451.8 347.22 442.94 337.23 442.94C330.51 442.94 325.61 446.8 323.97 453.84H323.06V446.12C323.06 445.44 322.7 444.98 322.15 444.98H308.35C307.8 444.98 307.44 445.43 307.44 446.12V558.48C307.44 559.16 307.8 559.62 308.35 559.62H322.15C322.7 559.62 323.06 559.17 323.06 558.48V471.77C323.06 463.83 324.33 459.06 328.87 459.06C333.05 459.06 334.14 461.78 334.14 469.27V558.47C334.14 559.15 334.5 559.61 335.05 559.61H348.85C349.39 559.61 349.76 559.16 349.76 558.47V558.48Z" fill="white"/>
<path d="M369.73 425.24H383.53C384.07 425.24 384.44 424.79 384.44 424.1V403.22C384.44 402.54 384.08 402.09 383.53 402.09H369.73C369.19 402.09 368.82 402.54 368.82 403.22V424.1C368.82 424.78 369.18 425.24 369.73 425.24Z" fill="white"/>
<path d="M384.44 558.48V446.12C384.44 445.44 384.08 444.98 383.53 444.98H369.73C369.19 444.98 368.82 445.43 368.82 446.12V558.48C368.82 559.16 369.18 559.62 369.73 559.62H383.53C384.07 559.62 384.44 559.17 384.44 558.48Z" fill="white"/>
<path d="M443.09 444.99H429.29C428.74 444.99 428.38 445.67 428.38 446.13L421.12 532.61H420.03L412.95 446.13C412.95 445.45 412.59 444.99 412.04 444.99H398.24C396.79 444.99 397.7 446.81 397.33 446.35L411.49 558.48C411.49 559.16 411.85 559.62 412.4 559.62H428.92C429.28 559.62 429.65 559.17 429.83 558.48L443.99 446.35C444.17 445.67 443.81 444.99 443.08 444.99H443.09Z" fill="white"/>
<path d="M476.141 442.94C462.521 442.94 454.891 451.57 454.891 468.82V534.87C454.891 552.57 462.341 561.65 476.141 561.65C489.941 561.65 497.201 553.02 497.201 534.87V517.62C497.201 516.94 496.841 516.49 496.291 516.49H482.491C481.951 516.49 481.581 516.94 481.581 517.62V534.42C481.581 541.46 480.851 545.77 476.131 545.77C471.411 545.77 470.501 542.14 470.501 534.42V507.86H496.291C496.831 507.86 497.201 507.41 497.201 506.73V468.82C497.201 451.8 490.121 442.94 476.141 442.94ZM481.591 493.34H470.511V469.28C470.511 463.15 471.241 458.84 476.141 458.84C481.041 458.84 481.591 462.7 481.591 469.28V493.34Z" fill="white"/>
<path d="M544.78 442.94C538.06 442.94 533.52 446.8 531.89 453.84H530.98V446.12C530.98 445.44 530.62 444.98 530.07 444.98H516.27C515.72 444.98 515.36 445.43 515.36 446.12V558.48C515.36 559.16 515.72 559.62 516.27 559.62H530.07C530.62 559.62 530.98 559.17 530.98 558.48V472C530.98 465.19 531.71 459.52 536.61 459.52C540.79 459.52 541.33 462.7 541.33 468.83V484.49C541.33 485.17 541.69 485.62 542.24 485.62H556.04C556.58 485.62 556.95 485.17 556.95 484.49V464.74C556.95 451.12 554.41 442.95 544.78 442.95V442.94Z" fill="white"/>
<path d="M589.64 442.94C575.84 442.94 568.39 450.88 568.39 467.91V479.49C568.39 500.6 595.08 507.41 595.08 524.43V535.33C595.08 541.91 594.35 545.77 589.63 545.77C585.45 545.77 584 542.59 584 535.33V517.17C584 516.49 583.64 516.03 583.09 516.03H569.29C568.75 516.03 568.38 516.48 568.38 517.17V536.46C568.38 553.48 575.64 561.66 589.63 561.66C603.62 561.66 610.88 553.03 610.88 536.46V522.39C610.88 499.92 584.01 492.66 584.01 477.22V469.28C584.01 462.93 585.1 458.84 589.64 458.84C594.18 458.84 595.09 462.47 595.09 470.19V483.36C595.09 484.04 595.45 484.5 596 484.5H609.98C610.53 484.5 610.89 484.05 610.89 483.36V468.83C610.89 451.13 603.63 442.95 589.64 442.95V442.94Z" fill="white"/>
<path d="M672.8 543.27C668.44 543.27 667.17 543.5 667.17 538.96V467.46C667.17 450.66 659.73 442.95 645.92 442.95C632.11 442.95 624.86 450.89 624.86 467.46V482.21C624.86 482.89 625.22 483.35 625.77 483.35H639.57C640.11 483.35 640.48 482.9 640.48 482.21V468.59C640.48 462.23 641.21 459.06 645.93 459.06C650.29 459.06 651.56 461.1 651.56 468.59V483.8C651.38 486.75 650.65 487.89 647.2 489.93L636.67 494.92C627.77 499.69 624.87 504.23 624.87 518.07V541C624.87 553.94 627.96 560.98 637.94 560.98C644.48 560.98 649.38 556.89 651.01 548.49H651.56C652.1 553.03 653.74 555.98 656.46 557.8C659.18 559.84 661.18 559.62 672.8 559.62C673.34 559.62 673.71 559.17 673.71 558.48V544.41C673.71 543.73 673.35 543.27 672.8 543.27ZM651.38 533.51C651.38 537.82 650.11 543.5 645.57 543.5C641.58 543.5 640.49 540.09 640.49 532.6V520.12C640.49 512.63 641.76 508.54 645.57 506.5L649.93 504C650.48 503.55 651.02 503.32 651.57 502.64L651.39 533.51H651.38Z" fill="white"/>
<path d="M700.04 399.59H686.24C685.69 399.59 685.33 400.04 685.33 400.73V558.48C685.33 559.16 685.69 559.62 686.24 559.62H700.04C700.59 559.62 700.95 559.17 700.95 558.48V400.73C700.95 400.05 700.59 399.59 700.04 399.59Z" fill="white"/>
<path d="M9.36969 277.41H20.3397C20.7497 277.41 21.0297 277.07 21.0297 276.55V262.83C21.0297 262.32 20.7597 261.97 20.3397 261.97H9.36969C8.95969 261.97 8.67969 262.31 8.67969 262.83V276.55C8.67969 277.06 8.94969 277.41 9.36969 277.41Z" fill="white"/>
<path d="M25.2798 277.41H36.2498C36.6598 277.41 36.9398 277.07 36.9398 276.55V262.83C36.9398 262.32 36.6698 261.97 36.2498 261.97H25.2798C24.8698 261.97 24.5898 262.31 24.5898 262.83V276.55C24.5898 277.06 24.8598 277.41 25.2798 277.41Z" fill="white"/>
<path d="M96.1795 386.1H85.2095C84.7995 386.1 84.5195 386.44 84.5195 386.96V400.68C84.5195 401.19 84.7895 401.54 85.2095 401.54H96.1795C96.5895 401.54 96.8695 401.2 96.8695 400.68V386.96C96.8695 386.45 96.5995 386.1 96.1795 386.1Z" fill="white"/>
<path d="M113.33 386.1H102.36C101.95 386.1 101.67 386.44 101.67 386.96V400.68C101.67 401.19 101.94 401.54 102.36 401.54H113.33C113.74 401.54 114.02 401.2 114.02 400.68V386.96C114.02 386.45 113.75 386.1 113.33 386.1Z" fill="white"/>
<path d="M210.98 241.92H196.3C195.89 241.92 195.61 242.26 195.61 242.78V350.45H169.14V325.76C169.14 306.56 160.64 293.87 147.74 293.87C130.6 293.87 126.34 306.56 126.34 325.76V338.28C126.34 348.05 123.87 350.45 120.03 350.45H113.31C110.16 350.45 108.1 348.56 108.1 342.39V307.93C108.1 307.42 107.83 307.07 107.41 307.07H92.73C92.32 307.07 92.04 307.41 92.04 307.93V341.02C92.04 348.39 90.26 350.45 86.83 350.45H49.11C44.04 350.45 42.8 348.05 42.8 337.59V294.73C42.8 294.22 42.53 293.87 42.11 293.87H22.77C9.05 293.87 0 299.53 0 321.82V328.33C0 347.53 4.25 360.22 21.4 360.22C24.69 360.22 27.85 359.36 30.45 357.82C34.15 367.59 41.01 370.51 49.51 370.51H85.72C93.54 370.51 98.61 366.91 101.63 360.91C103.14 366.91 105.88 370.51 110.82 370.51H119.6C125.36 370.51 129.06 368.11 131.53 363.65C135.51 368.79 141.54 370.51 149.09 370.51H210.95C211.36 370.51 211.64 370.17 211.64 369.65V242.78C211.64 242.27 211.37 241.92 210.95 241.92H210.98ZM26.78 330.21C26.78 336.21 25.68 340.15 21.43 340.15C18.28 340.15 16.08 338.09 16.08 330.21V324.04C16.08 318.04 17.45 313.93 22.8 313.93H26.09C26.5 313.93 26.78 314.27 26.78 314.79V330.22V330.21ZM153.1 350.44H149.12C143.77 350.44 142.4 346.33 142.4 340.32V323.86C142.4 315.97 144.59 313.92 147.75 313.92C152 313.92 153.1 317.86 153.1 323.86V350.43V350.44Z" fill="white"/>
<path d="M355.13 241.92H340.45C340.04 241.92 339.76 242.26 339.76 242.78V350.45H304.92C310.13 346.68 313.56 336.22 313.56 329.71C313.56 312.74 303 299.02 287.09 299.02H263.91C263.5 299.02 263.22 299.36 263.22 299.88C263.22 329.37 263.63 340.51 272.82 350.46H246.49C241 350.46 237.3 348.4 237.3 340.34V242.79C237.3 242.28 237.03 241.93 236.61 241.93H221.93C221.52 241.93 221.24 242.27 221.24 242.79V340.34C221.24 358.51 224.94 370.51 239.62 370.51H272.26C278.43 370.51 283.64 369.48 288.17 365.02C294.48 369.48 302.16 370.51 311.62 370.51H355.1C355.51 370.51 355.79 370.17 355.79 369.65V242.78C355.79 242.27 355.52 241.92 355.1 241.92H355.13ZM288.61 349.93C281.62 344.96 279.42 338.96 279.28 319.07H286C295.19 319.07 298.48 321.81 298.48 330.73C298.48 337.42 296.15 344.96 288.6 349.93H288.61Z" fill="white"/>
<path d="M383.52 241.92H368.84C368.43 241.92 368.15 242.26 368.15 242.78V369.65C368.15 370.16 368.42 370.51 368.84 370.51H383.52C383.93 370.51 384.21 370.17 384.21 369.65V242.78C384.21 242.27 383.94 241.92 383.52 241.92Z" fill="white"/>
<path d="M451.68 395.88V382.16C451.68 381.65 451.41 381.3 450.99 381.3H440.02C439.61 381.3 439.33 381.64 439.33 382.16V395.88C439.33 396.39 439.6 396.74 440.02 396.74H450.99C451.4 396.74 451.68 396.4 451.68 395.88Z" fill="white"/>
<path d="M510.52 386.1H499.55C499.14 386.1 498.86 386.44 498.86 386.96V400.68C498.86 401.19 499.13 401.54 499.55 401.54H510.52C510.93 401.54 511.21 401.2 511.21 400.68V386.96C511.21 386.45 510.94 386.1 510.52 386.1Z" fill="white"/>
<path d="M527.66 401.53C528.07 401.53 528.35 401.19 528.35 400.67V386.95C528.35 386.44 528.08 386.09 527.66 386.09H516.69C516.28 386.09 516 386.43 516 386.95V400.67C516 401.18 516.27 401.53 516.69 401.53H527.66Z" fill="white"/>
<path d="M600.22 271.58H611.19C611.6 271.58 611.88 271.24 611.88 270.72V257.01C611.88 256.5 611.61 256.15 611.19 256.15H600.22C599.81 256.15 599.53 256.49 599.53 257.01V270.72C599.53 271.24 599.8 271.58 600.22 271.58Z" fill="white"/>
<path d="M641.77 370.5H671.94C672.35 370.5 672.63 370.16 672.63 369.64V242.77C672.63 242.26 672.36 241.91 671.94 241.91H657.26C656.85 241.91 656.57 242.25 656.57 242.77V350.44H632.57C629.28 350.44 627.08 348.72 627.08 342.04V320.78C627.08 301.06 622.83 288.04 605.68 288.04C592.79 288.04 584.28 293.87 584.28 315.98V327.81C584.28 328.32 584.55 328.67 584.97 328.67H599.65C600.06 328.67 600.34 328.33 600.34 327.81V318.21C600.34 312.21 601.44 308.09 605.69 308.09C608.84 308.09 611.04 310.15 611.04 318.21V343.75C611.04 346.15 611.31 348.38 611.73 350.44H568.53C565.38 350.44 563.32 348.55 563.32 342.38V242.77C563.32 242.26 563.05 241.91 562.63 241.91H547.95C547.54 241.91 547.26 242.25 547.26 242.77V341.01C547.26 348.38 545.48 350.44 542.05 350.44H527.65C524.49 350.44 522.44 348.55 522.44 342.38V307.92C522.44 307.41 522.17 307.06 521.76 307.06H507.08C506.67 307.06 506.4 307.4 506.4 307.92V341.01C506.4 348.38 504.62 350.44 501.19 350.44H457.17C453.88 350.44 451.68 348.72 451.68 342.04V320.78C451.68 301.06 447.43 288.04 430.28 288.04C417.39 288.04 408.88 293.7 408.88 315.98V334.67C408.88 335.18 409.15 335.53 409.57 335.53H424.25C424.66 335.53 424.94 335.19 424.94 334.67V318.21C424.94 312.21 426.04 308.09 430.29 308.09C433.44 308.09 435.64 310.15 435.64 318.21V343.75C435.64 346.15 435.91 348.38 436.33 350.44H429.33C412.05 350.44 400.66 363.81 400.66 385.59C400.66 410.11 412.04 425.19 429.33 425.19H446.2C446.61 425.19 446.89 424.85 446.89 424.33V405.99C446.89 405.48 446.62 405.13 446.2 405.13H429.33C421.65 405.13 416.71 398.96 416.71 387.81C416.71 376.66 421.65 370.49 429.33 370.49H500.1C507.92 370.49 512.99 366.89 516.01 360.89C517.52 366.89 520.26 370.49 525.2 370.49H540.97C548.79 370.49 553.86 366.89 556.88 360.89C558.39 366.89 561.13 370.49 566.07 370.49H641.78L641.77 370.5Z" fill="white"/>
<path d="M700.34 241.92H685.66C685.25 241.92 684.97 242.26 684.97 242.78V369.65C684.97 370.16 685.24 370.51 685.66 370.51H700.34C700.75 370.51 701.03 370.17 701.03 369.65V242.78C701.03 242.27 700.76 241.92 700.34 241.92Z" fill="white"/>
</svg>
