<svg width="596" height="193" viewBox="0 0 596 193" fill="none" xmlns="http://www.w3.org/2000/svg">
<path d="M482.78 164.77L482.67 164.69L482.58 164.78C482.19 165.17 481.75 165.66 481.34 166.19L481.28 166.27C480.79 165.79 480.33 165.34 479.79 164.95L479.69 164.87L479.6 164.96C479.2 165.35 478.76 165.84 478.36 166.37L478.24 166.53L478.39 166.65C479.01 167.13 479.56 167.6 480.2 168.17L480.3 168.26L480.4 168.17C480.85 167.78 481.17 167.38 481.61 166.79L481.68 166.7C482.18 167.11 482.66 167.5 483.2 167.98L483.3 168.07L483.4 167.98C483.85 167.58 484.17 167.19 484.61 166.6L484.71 166.46L484.59 166.34C483.95 165.74 483.42 165.25 482.78 164.77Z" fill="#4E245D"/>
<mask id="mask0_22_75" style="mask-type:luminance" maskUnits="userSpaceOnUse" x="260" y="46" width="28" height="64">
<path d="M260.31 55.13V89.42C264.01 91.16 268.17 93.44 272.51 96.41C278.84 100.75 283.73 105.33 287.38 109.28V55.13L274.05 46.42L260.31 55.13Z" fill="white"/>
</mask>
<g mask="url(#mask0_22_75)">
<path d="M273.91 46.42H260.31V109.28H273.91V46.42Z" fill="#4E245D"/>
</g>
<mask id="mask1_22_75" style="mask-type:luminance" maskUnits="userSpaceOnUse" x="260" y="46" width="28" height="64">
<path d="M260.31 55.13V89.42C264.01 91.16 268.17 93.44 272.51 96.41C278.84 100.75 283.73 105.33 287.38 109.28V55.13L274.05 46.42L260.31 55.13Z" fill="white"/>
</mask>
<g mask="url(#mask1_22_75)">
<path d="M273.95 46.42H273.91V109.28H273.95V46.42Z" fill="#4E245D"/>
</g>
<mask id="mask2_22_75" style="mask-type:luminance" maskUnits="userSpaceOnUse" x="260" y="46" width="28" height="64">
<path d="M260.31 55.13V89.42C264.01 91.16 268.17 93.44 272.51 96.41C278.84 100.75 283.73 105.33 287.38 109.28V55.13L274.05 46.42L260.31 55.13Z" fill="white"/>
</mask>
<g mask="url(#mask2_22_75)">
<path d="M273.99 46.42H273.95V109.28H273.99V46.42Z" fill="#4F245E"/>
</g>
<mask id="mask3_22_75" style="mask-type:luminance" maskUnits="userSpaceOnUse" x="260" y="46" width="28" height="64">
<path d="M260.31 55.13V89.42C264.01 91.16 268.17 93.44 272.51 96.41C278.84 100.75 283.73 105.33 287.38 109.28V55.13L274.05 46.42L260.31 55.13Z" fill="white"/>
</mask>
<g mask="url(#mask3_22_75)">
<path d="M273.99 46.42H273.98V109.28H273.99V46.42Z" fill="#4F245E"/>
</g>
<mask id="mask4_22_75" style="mask-type:luminance" maskUnits="userSpaceOnUse" x="260" y="46" width="28" height="64">
<path d="M260.31 55.13V89.42C264.01 91.16 268.17 93.44 272.51 96.41C278.84 100.75 283.73 105.33 287.38 109.28V55.13L274.05 46.42L260.31 55.13Z" fill="white"/>
</mask>
<g mask="url(#mask4_22_75)">
<path d="M274 46.42H273.99V109.28H274V46.42Z" fill="#50275F"/>
</g>
<mask id="mask5_22_75" style="mask-type:luminance" maskUnits="userSpaceOnUse" x="260" y="46" width="28" height="64">
<path d="M260.31 55.13V89.42C264.01 91.16 268.17 93.44 272.51 96.41C278.84 100.75 283.73 105.33 287.38 109.28V55.13L274.05 46.42L260.31 55.13Z" fill="white"/>
</mask>
<g mask="url(#mask5_22_75)">
<path d="M274.01 46.42H274V109.28H274.01V46.42Z" fill="#4F295F"/>
</g>
<mask id="mask6_22_75" style="mask-type:luminance" maskUnits="userSpaceOnUse" x="260" y="46" width="28" height="64">
<path d="M260.31 55.13V89.42C264.01 91.16 268.17 93.44 272.51 96.41C278.84 100.75 283.73 105.33 287.38 109.28V55.13L274.05 46.42L260.31 55.13Z" fill="white"/>
</mask>
<g mask="url(#mask6_22_75)">
<path d="M274.01 46.42H274V109.28H274.01V46.42Z" fill="#522A61"/>
</g>
<mask id="mask7_22_75" style="mask-type:luminance" maskUnits="userSpaceOnUse" x="260" y="46" width="28" height="64">
<path d="M260.31 55.13V89.42C264.01 91.16 268.17 93.44 272.51 96.41C278.84 100.75 283.73 105.33 287.38 109.28V55.13L274.05 46.42L260.31 55.13Z" fill="white"/>
</mask>
<g mask="url(#mask7_22_75)">
<path d="M274.02 46.42H274.01V109.28H274.02V46.42Z" fill="#522B60"/>
</g>
<mask id="mask8_22_75" style="mask-type:luminance" maskUnits="userSpaceOnUse" x="260" y="46" width="28" height="64">
<path d="M260.31 55.13V89.42C264.01 91.16 268.17 93.44 272.51 96.41C278.84 100.75 283.73 105.33 287.38 109.28V55.13L274.05 46.42L260.31 55.13Z" fill="white"/>
</mask>
<g mask="url(#mask8_22_75)">
<path d="M287.38 46.42H274.1V109.28H287.38V46.42Z" fill="#B5B6B6"/>
</g>
<mask id="mask9_22_75" style="mask-type:luminance" maskUnits="userSpaceOnUse" x="280" y="13" width="38" height="120">
<path d="M280.84 26.38V48.34L289.55 54.29V113.03C291.09 115.13 292.74 117.73 294.26 120.83C296.45 125.32 297.67 129.46 298.36 132.77C298.64 130 299.31 126.35 300.94 122.36C303.63 115.74 307.64 111.33 310.24 108.89V53.39L318 48.54V26.83L299.19 13.47L280.84 26.38Z" fill="white"/>
</mask>
<g mask="url(#mask9_22_75)">
<path d="M299.23 13.46H280.84V132.76H299.23V13.46Z" fill="#4E245D"/>
</g>
<mask id="mask10_22_75" style="mask-type:luminance" maskUnits="userSpaceOnUse" x="280" y="13" width="38" height="120">
<path d="M280.84 26.38V48.34L289.55 54.29V113.03C291.09 115.13 292.74 117.73 294.26 120.83C296.45 125.32 297.67 129.46 298.36 132.77C298.64 130 299.31 126.35 300.94 122.36C303.63 115.74 307.64 111.33 310.24 108.89V53.39L318 48.54V26.83L299.19 13.47L280.84 26.38Z" fill="white"/>
</mask>
<g mask="url(#mask10_22_75)">
<path d="M299.35 13.46H299.33V132.76H299.35V13.46Z" fill="#B5B6B6"/>
</g>
<mask id="mask11_22_75" style="mask-type:luminance" maskUnits="userSpaceOnUse" x="280" y="13" width="38" height="120">
<path d="M280.84 26.38V48.34L289.55 54.29V113.03C291.09 115.13 292.74 117.73 294.26 120.83C296.45 125.32 297.67 129.46 298.36 132.77C298.64 130 299.31 126.35 300.94 122.36C303.63 115.74 307.64 111.33 310.24 108.89V53.39L318 48.54V26.83L299.19 13.47L280.84 26.38Z" fill="white"/>
</mask>
<g mask="url(#mask11_22_75)">
<path d="M299.37 13.46H299.35V132.76H299.37V13.46Z" fill="#B5B6B6"/>
</g>
<mask id="mask12_22_75" style="mask-type:luminance" maskUnits="userSpaceOnUse" x="280" y="13" width="38" height="120">
<path d="M280.84 26.38V48.34L289.55 54.29V113.03C291.09 115.13 292.74 117.73 294.26 120.83C296.45 125.32 297.67 129.46 298.36 132.77C298.64 130 299.31 126.35 300.94 122.36C303.63 115.74 307.64 111.33 310.24 108.89V53.39L318 48.54V26.83L299.19 13.47L280.84 26.38Z" fill="white"/>
</mask>
<g mask="url(#mask12_22_75)">
<path d="M299.39 13.46H299.37V132.76H299.39V13.46Z" fill="#B5B6B6"/>
</g>
<mask id="mask13_22_75" style="mask-type:luminance" maskUnits="userSpaceOnUse" x="280" y="13" width="38" height="120">
<path d="M280.84 26.38V48.34L289.55 54.29V113.03C291.09 115.13 292.74 117.73 294.26 120.83C296.45 125.32 297.67 129.46 298.36 132.77C298.64 130 299.31 126.35 300.94 122.36C303.63 115.74 307.64 111.33 310.24 108.89V53.39L318 48.54V26.83L299.19 13.47L280.84 26.38Z" fill="white"/>
</mask>
<g mask="url(#mask13_22_75)">
<path d="M318 13.46H299.38V132.76H318V13.46Z" fill="#B5B6B6"/>
</g>
<mask id="mask14_22_75" style="mask-type:luminance" maskUnits="userSpaceOnUse" x="312" y="46" width="28" height="59">
<path d="M312.61 54.29V104.73C315.91 101.52 320.28 97.8 325.84 94.28C330.89 91.08 335.66 88.84 339.67 87.27V56.09L325.84 46.42L312.61 54.29Z" fill="white"/>
</mask>
<g mask="url(#mask14_22_75)">
<path d="M326.21 46.42H312.61V104.73H326.21V46.42Z" fill="#4E245D"/>
</g>
<mask id="mask15_22_75" style="mask-type:luminance" maskUnits="userSpaceOnUse" x="312" y="46" width="28" height="59">
<path d="M312.61 54.29V104.73C315.91 101.52 320.28 97.8 325.84 94.28C330.89 91.08 335.66 88.84 339.67 87.27V56.09L325.84 46.42L312.61 54.29Z" fill="white"/>
</mask>
<g mask="url(#mask15_22_75)">
<path d="M326.25 46.42H326.21V104.73H326.25V46.42Z" fill="#4E245D"/>
</g>
<mask id="mask16_22_75" style="mask-type:luminance" maskUnits="userSpaceOnUse" x="312" y="46" width="28" height="59">
<path d="M312.61 54.29V104.73C315.91 101.52 320.28 97.8 325.84 94.28C330.89 91.08 335.66 88.84 339.67 87.27V56.09L325.84 46.42L312.61 54.29Z" fill="white"/>
</mask>
<g mask="url(#mask16_22_75)">
<path d="M326.28 46.42H326.24V104.73H326.28V46.42Z" fill="#4F245E"/>
</g>
<mask id="mask17_22_75" style="mask-type:luminance" maskUnits="userSpaceOnUse" x="312" y="46" width="28" height="59">
<path d="M312.61 54.29V104.73C315.91 101.52 320.28 97.8 325.84 94.28C330.89 91.08 335.66 88.84 339.67 87.27V56.09L325.84 46.42L312.61 54.29Z" fill="white"/>
</mask>
<g mask="url(#mask17_22_75)">
<path d="M326.29 46.42H326.28V104.73H326.29V46.42Z" fill="#4F245E"/>
</g>
<mask id="mask18_22_75" style="mask-type:luminance" maskUnits="userSpaceOnUse" x="312" y="46" width="28" height="59">
<path d="M312.61 54.29V104.73C315.91 101.52 320.28 97.8 325.84 94.28C330.89 91.08 335.66 88.84 339.67 87.27V56.09L325.84 46.42L312.61 54.29Z" fill="white"/>
</mask>
<g mask="url(#mask18_22_75)">
<path d="M326.3 46.42H326.29V104.73H326.3V46.42Z" fill="#50275F"/>
</g>
<mask id="mask19_22_75" style="mask-type:luminance" maskUnits="userSpaceOnUse" x="312" y="46" width="28" height="59">
<path d="M312.61 54.29V104.73C315.91 101.52 320.28 97.8 325.84 94.28C330.89 91.08 335.66 88.84 339.67 87.27V56.09L325.84 46.42L312.61 54.29Z" fill="white"/>
</mask>
<g mask="url(#mask19_22_75)">
<path d="M326.3 46.42H326.29V104.73H326.3V46.42Z" fill="#4F295F"/>
</g>
<mask id="mask20_22_75" style="mask-type:luminance" maskUnits="userSpaceOnUse" x="312" y="46" width="28" height="59">
<path d="M312.61 54.29V104.73C315.91 101.52 320.28 97.8 325.84 94.28C330.89 91.08 335.66 88.84 339.67 87.27V56.09L325.84 46.42L312.61 54.29Z" fill="white"/>
</mask>
<g mask="url(#mask20_22_75)">
<path d="M326.31 46.42H326.3V104.73H326.31V46.42Z" fill="#522A61"/>
</g>
<mask id="mask21_22_75" style="mask-type:luminance" maskUnits="userSpaceOnUse" x="312" y="46" width="28" height="59">
<path d="M312.61 54.29V104.73C315.91 101.52 320.28 97.8 325.84 94.28C330.89 91.08 335.66 88.84 339.67 87.27V56.09L325.84 46.42L312.61 54.29Z" fill="white"/>
</mask>
<g mask="url(#mask21_22_75)">
<path d="M326.31 46.42H326.3V104.73H326.31V46.42Z" fill="#522B60"/>
</g>
<mask id="mask22_22_75" style="mask-type:luminance" maskUnits="userSpaceOnUse" x="312" y="46" width="28" height="59">
<path d="M312.61 54.29V104.73C315.91 101.52 320.28 97.8 325.84 94.28C330.89 91.08 335.66 88.84 339.67 87.27V56.09L325.84 46.42L312.61 54.29Z" fill="white"/>
</mask>
<g mask="url(#mask22_22_75)">
<path d="M339.67 46.42H326.4V104.73H339.67V46.42Z" fill="#B5B6B6"/>
</g>
<path d="M301.57 147.9C301.37 140.35 302.37 128.66 309.22 117.32C316.73 104.89 328.08 98.14 332.72 95.39C341.12 90.4 344.33 90.74 350.89 85.66C358.75 79.58 363.17 72.1 365.66 66.79C367.48 72 371.81 86.72 365.76 102.85C359.98 118.25 347.92 126.49 344.04 129.14C336.72 134.14 333.59 133.84 322.16 140.45C313.32 145.57 306.63 150.71 302.32 154.3C303.69 150.09 306.31 143.79 311.44 137.4C328.1 117.62 352.59 116.06 359.7 90.99C347.21 115.33 309.7 119.8 301.57 147.9Z" fill="#B5B6B6"/>
<path d="M295.91 148.76C296.16 140.09 294.97 128.63 288.26 118.18C280.42 105.97 267.13 98.38 260.42 94.55C248.41 87.69 237.81 84.77 232.66 73.69C231.62 71.46 231.08 69.48 230.78 68.12C229.13 74.19 224.3 94.91 235.31 112.6C240.65 121.18 248.41 126.93 250.7 128.6C259.18 134.79 264.15 135.13 275.33 141.32C281.14 144.54 287.97 148.97 295.17 155.17C293.8 150.97 291.18 144.66 286.05 138.27C269.39 118.49 244.89 116.93 237.79 91.85C250.27 116.19 287.77 120.66 295.91 148.76Z" fill="#4E245D"/>
<path d="M35.8899 157.57V162.01H33.8799V149.4H37.3999C38.1199 149.4 38.7499 149.5 39.2799 149.7C39.8099 149.9 40.2399 150.17 40.5899 150.53C40.9299 150.89 41.1899 151.31 41.3499 151.81C41.5099 152.3 41.5999 152.85 41.5999 153.43C41.5999 154.04 41.5099 154.6 41.3399 155.11C41.1699 155.62 40.8999 156.06 40.5599 156.42C40.2099 156.79 39.7799 157.07 39.2499 157.28C38.7299 157.48 38.1099 157.58 37.4099 157.58H35.8899V157.57ZM35.8899 155.74H37.3999C37.7699 155.74 38.0899 155.69 38.3599 155.58C38.6299 155.47 38.8599 155.32 39.0399 155.12C39.2199 154.92 39.3499 154.68 39.4399 154.39C39.5299 154.1 39.5799 153.78 39.5799 153.43C39.5799 153.09 39.5399 152.79 39.4399 152.51C39.3499 152.24 39.2199 152 39.0399 151.81C38.8599 151.62 38.6299 151.47 38.3599 151.37C38.0899 151.27 37.7599 151.22 37.3999 151.22H35.8899V155.74Z" fill="#B5B6B6"/>
<path d="M45.99 157.08V162.01H43.98V149.39H47.28C48.02 149.39 48.65 149.48 49.18 149.66C49.71 149.84 50.14 150.09 50.47 150.41C50.81 150.73 51.05 151.11 51.21 151.56C51.37 152.01 51.44 152.5 51.44 153.03C51.44 153.45 51.39 153.86 51.28 154.23C51.17 154.61 51.02 154.95 50.82 155.26C50.62 155.57 50.37 155.84 50.07 156.07C49.77 156.3 49.43 156.49 49.05 156.63C49.3 156.8 49.52 157.04 49.71 157.35L52.42 162.01H50.61C50.43 162.01 50.29 161.97 50.16 161.89C50.04 161.81 49.93 161.69 49.85 161.54L47.58 157.5C47.5 157.35 47.4 157.24 47.3 157.18C47.2 157.12 47.05 157.08 46.85 157.08H45.99ZM45.99 155.4H47.25C47.63 155.4 47.96 155.35 48.24 155.23C48.52 155.12 48.75 154.97 48.94 154.77C49.12 154.57 49.26 154.34 49.35 154.08C49.44 153.81 49.49 153.52 49.49 153.2C49.49 152.56 49.31 152.07 48.95 151.72C48.59 151.38 48.04 151.21 47.29 151.21H46V155.4H45.99Z" fill="#B5B6B6"/>
<path d="M64.48 155.7C64.48 156.62 64.35 157.48 64.08 158.27C63.82 159.06 63.44 159.74 62.96 160.32C62.48 160.9 61.9 161.35 61.23 161.67C60.56 161.99 59.81 162.15 58.99 162.15C58.17 162.15 57.43 161.99 56.75 161.67C56.07 161.35 55.49 160.9 55.01 160.32C54.53 159.74 54.16 159.06 53.89 158.27C53.63 157.48 53.49 156.63 53.49 155.7C53.49 154.77 53.62 153.92 53.89 153.13C54.15 152.34 54.53 151.66 55.01 151.08C55.49 150.5 56.07 150.05 56.75 149.73C57.43 149.41 58.17 149.25 58.99 149.25C59.81 149.25 60.55 149.41 61.23 149.74C61.9 150.07 62.48 150.51 62.96 151.09C63.44 151.66 63.81 152.34 64.08 153.13C64.35 153.92 64.48 154.78 64.48 155.7ZM62.42 155.7C62.42 155.01 62.34 154.39 62.18 153.84C62.02 153.29 61.8 152.82 61.5 152.44C61.21 152.06 60.85 151.76 60.42 151.56C60 151.36 59.52 151.26 59 151.26C58.48 151.26 58 151.36 57.57 151.56C57.15 151.76 56.79 152.06 56.49 152.44C56.19 152.82 55.97 153.29 55.81 153.84C55.65 154.39 55.57 155.01 55.57 155.7C55.57 156.39 55.65 157.01 55.81 157.56C55.97 158.11 56.2 158.58 56.49 158.96C56.79 159.34 57.15 159.63 57.57 159.84C57.99 160.04 58.47 160.15 59 160.15C59.53 160.15 60 160.05 60.42 159.84C60.84 159.64 61.2 159.35 61.5 158.96C61.79 158.58 62.02 158.11 62.18 157.56C62.34 157.02 62.42 156.4 62.42 155.7Z" fill="#B5B6B6"/>
<path d="M68.8999 157.57V162.01H66.8899V149.4H70.4099C71.1299 149.4 71.7599 149.5 72.2899 149.7C72.8199 149.9 73.2499 150.17 73.5999 150.53C73.9399 150.89 74.1999 151.31 74.3599 151.81C74.5199 152.3 74.6099 152.85 74.6099 153.43C74.6099 154.04 74.5199 154.6 74.3499 155.11C74.1799 155.62 73.9099 156.06 73.5699 156.42C73.2199 156.79 72.7899 157.07 72.2599 157.28C71.7399 157.48 71.1199 157.58 70.4199 157.58H68.8999V157.57ZM68.8999 155.74H70.4099C70.7799 155.74 71.0999 155.69 71.3699 155.58C71.6399 155.47 71.8699 155.32 72.0499 155.12C72.2299 154.92 72.3599 154.68 72.4499 154.39C72.5399 154.1 72.5899 153.78 72.5899 153.43C72.5899 153.09 72.5499 152.79 72.4499 152.51C72.3599 152.24 72.2299 152 72.0499 151.81C71.8699 151.62 71.6399 151.47 71.3699 151.37C71.0999 151.27 70.7699 151.22 70.4099 151.22H68.8999V155.74Z" fill="#B5B6B6"/>
<path d="M83.7399 149.4V151.26H78.9499V154.76H82.7299V156.57H78.9499V160.14H83.7399V162.01H76.9199V149.4H83.7399Z" fill="#B5B6B6"/>
<path d="M88.3198 157.08V162.01H86.2998V149.39H89.5998C90.3398 149.39 90.9698 149.48 91.4998 149.66C92.0298 149.84 92.4598 150.09 92.7898 150.41C93.1298 150.73 93.3698 151.11 93.5298 151.56C93.6898 152.01 93.7598 152.5 93.7598 153.03C93.7598 153.45 93.7098 153.86 93.5998 154.23C93.4898 154.61 93.3398 154.95 93.1398 155.26C92.9398 155.57 92.6898 155.84 92.3898 156.07C92.0898 156.3 91.7498 156.49 91.3698 156.63C91.6198 156.8 91.8398 157.04 92.0298 157.35L94.7398 162.01H92.9298C92.7498 162.01 92.6098 161.97 92.4798 161.89C92.3598 161.81 92.2498 161.69 92.1698 161.54L89.8998 157.5C89.8198 157.35 89.7198 157.24 89.6198 157.18C89.5198 157.12 89.3698 157.08 89.1698 157.08H88.3198ZM88.3198 155.4H89.5798C89.9598 155.4 90.2898 155.35 90.5698 155.23C90.8498 155.12 91.0798 154.97 91.2698 154.77C91.4498 154.57 91.5898 154.34 91.6798 154.08C91.7698 153.81 91.8198 153.52 91.8198 153.2C91.8198 152.56 91.6398 152.07 91.2798 151.72C90.9198 151.38 90.3698 151.21 89.6198 151.21H88.3298V155.4H88.3198Z" fill="#B5B6B6"/>
<path d="M103.99 149.4V151.32H100.74V162.01H98.73V151.32H95.46V149.4H103.99Z" fill="#B5B6B6"/>
<path d="M110.83 157.11V162.01H108.82V157.11L104.87 149.4H106.64C106.82 149.4 106.95 149.45 107.06 149.55C107.16 149.65 107.25 149.77 107.32 149.93L109.3 154.14C109.42 154.39 109.52 154.63 109.6 154.85C109.68 155.07 109.76 155.29 109.83 155.51C109.89 155.29 109.97 155.07 110.05 154.84C110.13 154.62 110.23 154.38 110.35 154.14L112.32 149.93C112.37 149.8 112.46 149.68 112.57 149.57C112.68 149.46 112.82 149.4 112.99 149.4H114.77L110.83 157.11Z" fill="#B5B6B6"/>
<path d="M129.81 155.7C129.81 156.62 129.68 157.47 129.41 158.25C129.15 159.02 128.77 159.69 128.3 160.25C127.82 160.81 127.24 161.24 126.57 161.55C125.9 161.86 125.15 162.01 124.33 162.01H120.2V149.4H124.33C125.15 149.4 125.89 149.56 126.57 149.87C127.24 150.18 127.82 150.61 128.3 151.17C128.78 151.72 129.15 152.39 129.41 153.16C129.68 153.93 129.81 154.78 129.81 155.7ZM127.75 155.7C127.75 155.01 127.67 154.39 127.51 153.84C127.35 153.29 127.12 152.82 126.83 152.44C126.54 152.06 126.18 151.77 125.76 151.56C125.34 151.36 124.86 151.25 124.33 151.25H122.23V160.13H124.33C124.86 160.13 125.33 160.03 125.76 159.82C126.18 159.62 126.54 159.33 126.83 158.94C127.12 158.56 127.35 158.09 127.51 157.54C127.67 157.02 127.75 156.4 127.75 155.7Z" fill="#B5B6B6"/>
<path d="M138.96 149.4V151.26H134.16V154.76H137.94V156.57H134.16V160.14H138.96V162.01H132.14V149.4H138.96Z" fill="#B5B6B6"/>
<path d="M140.39 149.4H142.01C142.18 149.4 142.33 149.45 142.44 149.55C142.55 149.65 142.63 149.78 142.69 149.94L145.23 157.63C145.31 157.88 145.4 158.15 145.47 158.45C145.55 158.75 145.62 159.07 145.69 159.4C145.81 158.73 145.95 158.14 146.12 157.63L148.66 149.94C148.7 149.81 148.78 149.68 148.9 149.57C149.02 149.46 149.16 149.4 149.33 149.4H150.95L146.58 162.02H144.76L140.39 149.4Z" fill="#B5B6B6"/>
<path d="M159.65 149.4V151.26H154.85V154.76H158.63V156.57H154.85V160.14H159.65V162.01H152.83V149.4H159.65Z" fill="#B5B6B6"/>
<path d="M164.16 160.07H168.49V162.01H162.14V149.4H164.16V160.07Z" fill="#B5B6B6"/>
<path d="M180.41 155.7C180.41 156.62 180.28 157.48 180.01 158.27C179.75 159.06 179.37 159.74 178.89 160.32C178.41 160.9 177.83 161.35 177.16 161.67C176.49 161.99 175.74 162.15 174.92 162.15C174.1 162.15 173.36 161.99 172.68 161.67C172 161.35 171.42 160.9 170.94 160.32C170.46 159.74 170.09 159.06 169.82 158.27C169.56 157.48 169.42 156.63 169.42 155.7C169.42 154.77 169.55 153.92 169.82 153.13C170.08 152.34 170.46 151.66 170.94 151.08C171.42 150.5 172 150.05 172.68 149.73C173.36 149.41 174.1 149.25 174.92 149.25C175.74 149.25 176.48 149.41 177.16 149.74C177.83 150.07 178.41 150.51 178.89 151.09C179.37 151.66 179.74 152.34 180.01 153.13C180.28 153.92 180.41 154.78 180.41 155.7ZM178.34 155.7C178.34 155.01 178.26 154.39 178.1 153.84C177.94 153.29 177.72 152.82 177.42 152.44C177.13 152.06 176.77 151.76 176.34 151.56C175.92 151.36 175.44 151.26 174.92 151.26C174.39 151.26 173.92 151.36 173.49 151.56C173.07 151.76 172.7 152.06 172.41 152.44C172.11 152.82 171.89 153.29 171.73 153.84C171.57 154.39 171.49 155.01 171.49 155.7C171.49 156.39 171.57 157.01 171.73 157.56C171.89 158.11 172.12 158.58 172.41 158.96C172.71 159.34 173.07 159.63 173.49 159.84C173.91 160.04 174.39 160.15 174.92 160.15C175.45 160.15 175.92 160.05 176.34 159.84C176.76 159.64 177.12 159.35 177.42 158.96C177.71 158.58 177.94 158.11 178.1 157.56C178.27 157.02 178.34 156.4 178.34 155.7Z" fill="#B5B6B6"/>
<path d="M184.82 157.57V162.01H182.81V149.4H186.33C187.05 149.4 187.68 149.5 188.21 149.7C188.74 149.9 189.17 150.17 189.52 150.53C189.86 150.89 190.12 151.31 190.28 151.81C190.44 152.3 190.53 152.85 190.53 153.43C190.53 154.04 190.44 154.6 190.27 155.11C190.1 155.62 189.83 156.06 189.49 156.42C189.14 156.79 188.7 157.07 188.18 157.28C187.66 157.48 187.04 157.58 186.34 157.58H184.82V157.57ZM184.82 155.74H186.33C186.7 155.74 187.02 155.69 187.29 155.58C187.56 155.47 187.79 155.32 187.97 155.12C188.15 154.92 188.28 154.68 188.37 154.39C188.46 154.1 188.51 153.78 188.51 153.43C188.51 153.09 188.47 152.79 188.37 152.51C188.28 152.24 188.15 152 187.97 151.81C187.79 151.62 187.56 151.47 187.29 151.37C187.02 151.27 186.69 151.22 186.33 151.22H184.82V155.74Z" fill="#B5B6B6"/>
<path d="M198.51 157.36C198.58 157.56 198.65 157.76 198.72 157.97C198.79 157.76 198.86 157.55 198.94 157.35C199.01 157.15 199.1 156.95 199.18 156.76L202.38 149.77C202.42 149.68 202.46 149.61 202.5 149.56L202.64 149.45C202.69 149.43 202.75 149.41 202.82 149.41C202.88 149.4 202.96 149.4 203.05 149.4H204.57V162.02H202.8V153.87C202.8 153.72 202.8 153.55 202.81 153.37C202.82 153.19 202.83 153.01 202.84 152.82L199.57 159.97C199.5 160.13 199.4 160.26 199.28 160.35C199.16 160.44 199.02 160.49 198.86 160.49H198.58C198.42 160.49 198.28 160.45 198.16 160.35C198.04 160.26 197.94 160.13 197.87 159.97L194.55 152.79C194.57 152.98 194.58 153.17 194.59 153.35C194.6 153.53 194.6 153.71 194.6 153.86V162.01H192.83V149.4H194.35C194.44 149.4 194.52 149.4 194.58 149.41C194.64 149.42 194.7 149.43 194.76 149.45L194.91 149.56C194.95 149.61 195 149.68 195.04 149.77L198.27 156.77C198.36 156.96 198.44 157.16 198.51 157.36Z" fill="#B5B6B6"/>
<path d="M214.34 149.4V151.26H209.54V154.76H213.32V156.57H209.54V160.14H214.34V162.01H207.51V149.4H214.34Z" fill="#B5B6B6"/>
<path d="M218.11 149.41L218.27 149.46L218.41 149.57C218.45 149.62 218.5 149.69 218.56 149.77L224.24 158.21C224.22 158.01 224.21 157.81 224.2 157.61C224.19 157.42 224.19 157.23 224.19 157.07V149.4H225.96V162.02H224.92C224.76 162.02 224.63 161.99 224.52 161.93C224.42 161.87 224.31 161.77 224.21 161.62L218.55 153.22C218.57 153.41 218.58 153.59 218.58 153.77C218.59 153.95 218.59 154.12 218.59 154.27V162.02H216.82V149.4H217.88C217.97 149.39 218.05 149.4 218.11 149.41Z" fill="#B5B6B6"/>
<path d="M236.52 149.4V151.32H233.26V162.01H231.25V151.32H227.98V149.4H236.52Z" fill="#B5B6B6"/>
<path d="M377.21 159.49C376.59 159.02 375.32 158.87 374.17 158.64C373.6 158.53 373.07 158.4 372.7 158.23C372.32 158.05 372.15 157.86 372.16 157.66C372.13 157.3 372.75 156.55 373.6 155.92C374.4 155.32 375.35 154.9 375.98 154.91C376.27 154.89 376.71 155.38 377 156.61L377.04 156.76L377.41 156.72L377.49 156.71L377.53 156.63C377.8 156.1 378.18 155.37 378.19 154.91C378.19 154.47 378.05 153.96 377.8 153.43C377.51 152.84 377.07 152.55 376.52 152.56C375.36 152.57 373.68 153.61 372.56 154.69C371.48 155.75 370.78 157.06 370.78 158.6C370.78 159.24 371.06 159.71 371.41 160.06C371.89 160.55 372.96 160.8 374.34 161C374.98 161.09 375.58 161.21 376 161.37L376.49 161.61L376.6 161.75C376.58 161.8 376.35 162.03 376.03 162.26C375.69 162.51 375.24 162.8 374.78 163.06C373.24 163.91 371.59 164.26 370.67 164.26C368.16 164.25 366.28 162.83 366.27 160.17C366.27 159.45 366.41 158.64 366.74 157.67L366.81 157.47L366.03 157.23L365.9 157.19L365.84 157.33C365.33 158.43 365 159.64 365 161.04C365 162.62 365.45 164.03 366.38 165.03C367.31 166.03 368.7 166.62 370.54 166.62C372.69 166.62 375.08 165.52 376.63 164.15C377.39 163.45 377.96 162.15 377.96 161.28C377.96 160.42 377.64 159.86 377.21 159.49Z" fill="#4E245D"/>
<path d="M385.04 154.51L385 154.44L384.93 154.43L384.84 154.41L384.74 154.39L384.68 154.48C384.29 155.09 383.93 155.69 383.57 156.33L383.51 156.44L383.58 156.55C384.25 157.52 384.87 158.58 385.42 159.74L385.61 160.44L385.46 161.01C384.47 163.12 382.27 164.86 380.17 164.87C379.51 164.87 378.96 164.76 378.49 164.61L378.34 164.57L378.12 165.23L378.06 165.4L378.21 165.47C379.74 166.21 381.08 166.61 382.26 166.61C383.09 166.61 383.97 166.19 384.93 165.23V165.22C386.15 163.82 386.93 162.4 386.93 161V159.38C386.93 158.07 386.54 157.23 386.13 156.49L385.04 154.51Z" fill="#4E245D"/>
<path d="M409.82 151.36L409.92 151.45L410.02 151.36C410.47 150.97 410.79 150.57 411.22 149.98L411.29 149.89C411.8 150.3 412.27 150.69 412.81 151.17L412.91 151.26L413.01 151.17C413.46 150.78 413.78 150.38 414.21 149.79L414.31 149.65L414.19 149.53C413.58 148.91 413.05 148.42 412.4 147.94L412.3 147.86L412.21 147.95C411.82 148.34 411.38 148.83 410.97 149.36L410.91 149.44C410.42 148.96 409.96 148.52 409.42 148.12L409.32 148.04L409.23 148.13C408.84 148.52 408.4 149.01 407.99 149.54L407.87 149.7L408.02 149.82C408.63 150.32 409.19 150.79 409.82 151.36Z" fill="#4E245D"/>
<path d="M368.95 171.39L369.05 171.48L369.15 171.39C369.6 171 369.92 170.6 370.35 170.01L370.42 169.92C370.93 170.33 371.4 170.72 371.94 171.2L372.04 171.29L372.14 171.2C372.59 170.81 372.91 170.41 373.34 169.82L373.44 169.68L373.32 169.56C372.71 168.94 372.18 168.45 371.53 167.97L371.43 167.89L371.34 167.98C370.95 168.37 370.51 168.86 370.1 169.39L370.04 169.47C369.55 168.99 369.09 168.55 368.55 168.15L368.45 168.07L368.36 168.16C367.97 168.55 367.53 169.04 367.12 169.57L367 169.73L367.15 169.85C367.76 170.35 368.32 170.82 368.95 171.39Z" fill="#4E245D"/>
<path d="M444.16 147.23V147.16V147.05L444.08 146.99L443.97 146.92L443.88 146.86L443.79 146.93C443.44 147.21 443.15 147.5 442.92 147.75C442.6 148.09 442.41 148.47 442.41 148.86C442.41 149.43 442.5 150.04 442.57 150.72C442.82 153.42 442.98 155.98 443.02 158.32C443.01 159.03 442.78 159.46 442.29 159.73C441.65 160.05 441.11 160.11 440.62 160.11H440.28H434.07H433.45C432.25 160.11 431.18 159.85 430.22 159.4L432.75 157.18L433.31 155.53L433.37 155.35L433.21 155.29C432.04 154.83 430.47 154.55 428.66 154.54C427.13 154.54 425.7 154.78 424.48 155.03L424 155.09L423.9 155.1L423.26 156.89L423.2 157.04L423.37 157.15L423.41 157.17H423.94C424.11 157.16 424.54 157.42 424.91 157.75C425.55 158.31 426.21 158.99 426.87 159.47C425.4 160.04 424.38 160.1 423.12 160.1H422.47H416.26H415.77C414.85 160.1 414.16 160.01 413.6 159.88C414.15 158.92 414.55 157.89 414.55 156.6C414.55 155.84 414.32 155.11 413.93 154.41C413.34 153.34 412.64 152.7 411.97 152.69C411.33 152.7 410.35 153.26 409.52 154.1C408.44 155.16 408.07 156.53 408.07 157.69C408.07 158.34 408.13 159.04 408.52 159.78C407.86 159.92 407.03 160.08 406.28 160.08H406.02H399.81H393.6H393.38C393.19 160.08 392.8 160.05 392.44 159.93C391.86 159.72 391.4 159.38 391.39 158.54V157.7C391.39 154.09 391.39 150.28 391.14 147.05L391.13 146.94L390.94 146.83L390.85 146.78L390.77 146.84C390.3 147.19 389.82 147.68 389.29 148.22L389.23 148.28L389.24 148.37C389.47 151.48 389.64 154.4 389.64 157.18C389.64 159.32 389.65 160.46 390.66 161.44C391.34 162.08 392.18 162.32 393.42 162.32H393.59H399.8H406.01H406.29C407.36 162.32 408.78 162.04 410.73 161.39C412.69 162.04 414.25 162.32 415.8 162.32H416.25H422.46H422.94C424.8 162.32 426.49 161.9 428.4 160.61C429.93 161.71 431.85 162.32 433.6 162.32H434.06H440.27H440.5C441.13 162.32 441.87 162.17 442.5 161.86C443.26 161.5 443.66 160.83 443.99 160.08V160.07C444.46 159.14 444.63 157.89 444.63 156.3C444.63 154.69 444.5 152.95 444.43 151.3C444.77 151.07 445.08 150.83 445.34 150.6L445.47 150.49L445.38 150.34C444.61 149.19 444.15 148.09 444.16 147.23ZM412.61 158.59C412.16 158.91 411.57 159.18 411.08 159.28C409.84 158.91 409.34 158.28 409.13 157.53C409.4 156.53 410.53 155.24 411.62 155.26C412.16 155.26 412.6 155.73 413.01 156.49C413.16 156.77 413.36 157.24 413.36 157.71C413.38 157.86 413.08 158.27 412.61 158.59ZM426.86 157.26C426.63 157.06 426.42 156.86 426.21 156.67C427.02 156.54 427.83 156.44 428.71 156.44C429.65 156.44 430.47 156.58 431.23 156.74C430.36 157.5 429.52 158.11 428.71 158.67C428.01 158.2 427.35 157.7 426.86 157.26Z" fill="#4E245D"/>
<path d="M449.37 147.39L449.36 147.26L449.11 147.18L449.03 147.16L448.96 147.22C448.47 147.64 447.86 148.26 447.42 148.8L447.37 148.86L447.38 148.94C447.63 151.48 447.93 155.38 447.93 158.06V159.5C447.93 160.47 447.92 161.5 447.76 162.4L447.74 162.55L448.06 162.72L448.16 162.77L448.24 162.69C449.14 161.76 449.6 161.09 449.65 160.21V160.2C449.73 159.54 449.76 158.66 449.76 157.76C449.78 154.32 449.7 150.6 449.37 147.39Z" fill="#4E245D"/>
<path d="M480.15 162.37C482.53 162.37 483.67 162.16 484.43 161.44L484.44 161.43L484.45 161.42C485.08 160.63 485.58 159.73 485.58 158.56C485.58 157.03 484.72 155.18 484 153.98L483.95 153.9H483.78H483.71L483.66 153.96C483.25 154.44 482.85 155.01 482.48 155.65L482.42 155.75L482.47 155.85C483.28 157.33 484.01 158.8 484 159.38L483.84 159.57L483.23 159.85C482.58 160.07 481.53 160.12 480.22 160.12H479.96H473.76H467.55H467.27C465.55 160.11 464.82 159.06 463.93 157.05L463.88 156.93L463.66 156.97L463.58 156.98L463.54 157.05C463.27 157.54 462.99 158.09 462.68 158.76L462.64 158.85L462.69 158.94C463.05 159.65 463.44 160.33 464.05 161.15L464.42 161.74C464.07 163.76 461.41 165.94 459.45 165.92C458.68 165.92 458.12 165.79 457.73 165.61L457.59 165.55L457.29 166.2L457.21 166.38L457.37 166.46C458.67 167.11 460.11 167.62 461.32 167.62C462.55 167.62 463.92 166.69 465.17 164.62C465.61 163.88 465.82 162.97 465.82 162.24V162.23L465.81 161.99C466.2 162.25 466.66 162.38 467.26 162.38H467.58H473.79H479.99H480.15V162.37Z" fill="#4E245D"/>
<path d="M532.66 154.89L532.76 154.98L532.86 154.89C533.31 154.5 533.63 154.1 534.06 153.51L534.13 153.42C534.64 153.82 535.12 154.22 535.65 154.7L535.75 154.79L535.85 154.7C536.3 154.31 536.62 153.91 537.06 153.32L537.16 153.18L537.04 153.06C536.43 152.44 535.9 151.95 535.25 151.47L535.15 151.39L535.06 151.48C534.66 151.87 534.23 152.36 533.82 152.89L533.76 152.97C533.27 152.49 532.81 152.04 532.27 151.65L532.16 151.57L532.07 151.66C531.68 152.05 531.24 152.54 530.83 153.07L530.71 153.23L530.86 153.35C531.47 153.85 532.02 154.32 532.66 154.89Z" fill="#4E245D"/>
<path d="M560.68 147.24V147.16L560.69 147.05L560.6 146.99L560.49 146.92L560.4 146.86L560.31 146.93C559.96 147.21 559.67 147.5 559.44 147.75C559.12 148.09 558.93 148.47 558.93 148.86C558.93 149.43 559.03 150.05 559.09 150.72C559.34 153.42 559.51 155.98 559.54 158.32C559.53 159.03 559.3 159.46 558.81 159.73C558.17 160.05 557.63 160.11 557.15 160.11H556.81H550.6H550.4C548.65 160.09 548.28 159.19 548.27 158.62C548.27 154.13 548.25 150.52 547.96 147.06L547.95 146.94L547.77 146.87L547.68 146.83L546.23 148.22L546.17 148.28L546.22 149.11C546.45 152.49 546.62 155.12 546.62 158.07C546.61 159.08 546.37 159.43 545.97 159.66C545.51 159.9 544.84 160.1 544.24 160.1H543.93H537.72H537.44C536.64 160.1 536.08 159.9 535.61 159.55C535.29 159.31 535.17 158.96 535.17 158.49C535.17 158.21 535.29 157.58 535.5 156.85L535.53 156.74L535.36 156.56L535.27 156.46L534.09 157.27L534.04 157.31L533.57 158.96C533.41 159.64 532.23 160.14 531.06 160.12H530.72H524.52H523.92C523.44 160.12 522.97 160.1 522.6 160.07C522.97 159.44 523.29 158.78 523.29 158.06C523.28 155.87 521.43 154.26 519.42 154.26C518.43 154.26 517.34 154.57 516.46 155.09C515.5 155.64 514.53 156.47 513.51 157.46C513.73 156.79 513.89 156.04 513.89 155.01C513.89 153.45 513.83 151.9 513.75 150.35L514.68 149.67L514.83 149.56L514.72 149.4C513.85 148.09 513.43 147.06 513.43 146.28V146.19L513.26 146.03L513.17 145.94L513.07 146.01C512.3 146.57 511.79 147.08 511.78 147.86C511.78 148.33 511.83 148.86 511.88 149.32C512.05 150.98 512.27 154.13 512.27 156.04C512.27 157.53 512.24 158.16 512.05 158.86L510.95 160.11H509.94H503.73H497.52H496.26C495.79 157.15 494.34 155.22 492.8 155.2C491.76 155.2 490.9 155.84 490.29 156.68C489.82 157.3 489.46 158.12 489.46 159.16C489.45 160.25 489.9 161.09 490.75 161.6C491.59 162.12 492.81 162.35 494.41 162.36H494.89C494.66 162.94 494.26 163.46 493.6 164.08C492.28 165.36 490.91 166.06 489.39 166.06C488.48 166.06 487.77 165.85 487.18 165.55L487.05 165.48L486.71 166.1L486.62 166.27L486.78 166.36C488.28 167.23 489.87 167.86 491.32 167.86C492.22 167.85 493.96 167.04 495.19 165.28C495.82 164.38 496.25 163.29 496.36 162.34H497.52H503.73H509.94H511.04C514.24 162.34 516.99 162.24 519.12 161.87C520.71 162.17 522.36 162.34 524.15 162.34H524.52H530.72H531C532.3 162.34 533.5 161.86 534.12 160.89C534.73 161.95 535.89 162.34 537.35 162.34H537.71H543.92H544.18C545.64 162.34 546.65 161.67 547.2 160.84C547.77 161.88 548.87 162.34 550.26 162.34H550.59H556.8H557.03C557.66 162.34 558.4 162.19 559.04 161.88C559.8 161.52 560.2 160.85 560.53 160.1V160.09C561 159.16 561.17 157.91 561.17 156.32C561.17 154.71 561.03 152.97 560.97 151.32C561.31 151.09 561.62 150.85 561.88 150.62L562.01 150.51L561.92 150.36C561.13 149.19 560.68 148.1 560.68 147.24ZM492.32 159.9C491.37 159.64 490.74 159.21 490.76 158.63C490.75 158.45 490.93 158.15 491.24 157.92C491.54 157.69 491.95 157.52 492.35 157.52C492.87 157.52 493.41 157.79 493.88 158.29C494.33 158.75 494.65 159.41 494.84 160.1C493.92 160.11 493.08 160.1 492.32 159.9ZM519.04 159.84C517.64 160.04 515.81 160.11 513.78 160.11H512.79C515.05 157.85 516.75 156.62 518.58 156.62C519.43 156.62 520.2 156.92 520.76 157.37C521.3 157.8 521.6 158.35 521.62 158.87C521.32 159.3 520.39 159.65 519.04 159.84Z" fill="#4E245D"/>
<path d="M66.72 111.85C66.72 114.33 66.11 116.25 64.9 117.62C63.69 118.99 61.98 119.67 59.78 119.67C58.48 119.67 57.35 119.42 56.37 118.92C55.39 118.42 54.64 117.72 54.12 116.81L49.49 120.14C50.62 121.71 52.09 122.93 53.89 123.8C55.69 124.67 57.66 125.1 59.79 125.1C63.8 125.1 66.91 123.94 69.1 121.63C71.29 119.32 72.39 116.06 72.39 111.86V84.3501H66.73V111.85H66.72Z" fill="#B5B6B6"/>
<path d="M90.8099 84.3501H85.1499V124.69H90.8099V84.3501Z" fill="#B5B6B6"/>
<path d="M127.66 114.49L108.6 84.3501H103.47V124.66H109.08V94.9901L128.08 124.66H133.27V84.3501H127.66V114.49Z" fill="#B5B6B6"/>
<path d="M156.51 84.3501L141.64 124.69H147.74L150.78 115.84H167.06L170.1 124.69H176.2L161.33 84.3501H156.51ZM152.64 110.46L158.93 92.1501L165.22 110.46H152.64Z" fill="#B5B6B6"/>
<path d="M209.18 84.3501V114.48L190.12 84.3501H184.98V124.67H190.59V94.9901L209.59 124.67H214.78V84.3501H209.18Z" fill="#B5B6B6"/>
<path d="M395.77 89.9101C396.45 90.4701 397 90.8401 397.43 91.0201C397.86 91.2001 398.22 91.2901 398.52 91.2901C399.02 91.2901 399.5 91.1001 399.96 90.7101C400.42 90.3301 400.87 89.8101 401.31 89.1601C401.75 88.5701 402.07 88.0601 402.26 87.6301C402.45 87.2001 402.55 86.8401 402.55 86.5401C402.55 86.0101 402.37 85.5001 402.02 85.0101C401.66 84.5201 401.16 84.0301 400.51 83.5201C399.83 82.9901 399.27 82.6201 398.85 82.4101C398.42 82.2001 398.04 82.1001 397.72 82.1001C397.25 82.1001 396.78 82.2901 396.32 82.6801C395.86 83.0701 395.42 83.5501 395.01 84.1501C394.6 84.7401 394.29 85.2601 394.1 85.7001C393.91 86.1501 393.81 86.5601 393.81 86.9401C393.81 87.4101 393.99 87.9001 394.34 88.4101C394.7 88.9101 395.17 89.4101 395.77 89.9101Z" fill="#4E245D"/>
<path d="M465.19 94.04C465.87 94.6 466.43 94.97 466.85 95.15C467.28 95.33 467.64 95.42 467.94 95.42C468.44 95.42 468.92 95.23 469.38 94.84C469.84 94.46 470.29 93.94 470.73 93.29C471.17 92.7 471.49 92.19 471.68 91.76C471.87 91.33 471.97 90.97 471.97 90.67C471.97 90.14 471.79 89.63 471.44 89.14C471.08 88.65 470.58 88.16 469.93 87.65C469.25 87.12 468.69 86.75 468.27 86.54C467.84 86.33 467.46 86.23 467.14 86.23C466.67 86.23 466.2 86.42 465.74 86.81C465.28 87.2 464.84 87.68 464.43 88.28C464.02 88.87 463.71 89.39 463.52 89.83C463.33 90.28 463.23 90.69 463.23 91.07C463.23 91.54 463.41 92.03 463.76 92.54C464.13 93.03 464.6 93.54 465.19 94.04Z" fill="#4E245D"/>
<path d="M518.52 130.43C517.84 129.9 517.28 129.53 516.86 129.32C516.43 129.11 516.05 129.01 515.73 129.01C515.26 129.01 514.79 129.2 514.33 129.59C513.87 129.98 513.44 130.46 513.02 131.06C512.6 131.65 512.3 132.17 512.11 132.61C511.92 133.05 511.82 133.47 511.82 133.85C511.82 134.32 512 134.81 512.35 135.32C512.71 135.82 513.18 136.32 513.77 136.83C514.45 137.39 515.01 137.76 515.43 137.94C515.86 138.12 516.22 138.21 516.52 138.21C517.02 138.21 517.5 138.02 517.96 137.63C518.42 137.24 518.87 136.73 519.31 136.08C519.75 135.49 520.07 134.98 520.26 134.55C520.45 134.12 520.55 133.76 520.55 133.46C520.55 132.93 520.37 132.42 520.02 131.93C519.67 131.43 519.17 130.94 518.52 130.43Z" fill="#4E245D"/>
<path d="M413.78 93.8201C413.54 93.3801 413.32 92.9901 413.11 92.6701C412.9 92.3501 412.65 92.1801 412.36 92.1801C412.15 92.1801 411.91 92.3501 411.63 92.6901C411.35 93.0301 411.08 93.4601 410.81 93.9801C410.55 94.5001 410.32 95.0701 410.12 95.6901C409.93 96.3101 409.83 96.8901 409.83 97.4201C409.83 97.7201 409.87 97.9601 409.94 98.1501C410.01 98.3401 410.13 98.5601 410.27 98.7901C411.22 100.45 412.08 102.22 412.87 104.12C413.65 106.01 414.3 107.92 414.82 109.85C415.34 111.77 415.7 113.66 415.91 115.51C416.12 117.36 416.12 119.08 415.91 120.68C415.05 122.19 413.87 123.51 412.38 124.63C410.89 125.75 409.25 126.68 407.48 127.4C405.7 128.13 403.89 128.67 402.02 129.04C400.16 129.41 398.42 129.59 396.83 129.59C394.7 129.59 392.75 129.32 390.97 128.79C389.19 128.26 387.66 127.44 386.38 126.33C385.09 125.22 384.09 123.82 383.38 122.11C382.67 120.41 382.31 118.39 382.31 116.05C382.31 114.63 382.47 113.25 382.78 111.92C383.09 110.59 383.42 109.39 383.78 108.32C384.14 107.25 384.47 106.36 384.78 105.63C385.09 104.91 385.25 104.43 385.25 104.19C385.25 103.95 385.12 103.76 384.85 103.61C384.58 103.46 384.23 103.39 383.78 103.39C383.16 103.39 382.72 103.52 382.47 103.77C382.22 104.02 381.93 104.47 381.6 105.12C380.56 107.19 379.71 109.5 379.05 112.04C378.38 114.59 378.05 117.12 378.05 119.63C378.05 121.52 378.32 123.42 378.87 125.31C379.42 127.2 380.36 128.91 381.69 130.42C383.02 131.93 384.8 133.16 387.04 134.1C389.27 135.05 392.06 135.52 395.41 135.52C397.95 135.52 400.32 135.28 402.51 134.79C404.7 134.3 406.69 133.63 408.48 132.77C410.27 131.91 411.86 130.9 413.25 129.73C414.64 128.56 415.81 127.3 416.76 125.93C417.56 124.42 418.24 122.72 418.8 120.83C419.36 118.94 419.64 117.06 419.64 115.19C419.64 111.64 419.17 108.1 418.24 104.56C417.31 101.05 415.83 97.4601 413.78 93.8201Z" fill="#4E245D"/>
<path d="M539.73 108.64C537.98 108.64 536.31 108.53 534.72 108.31C533.12 108.09 531.49 107.75 529.81 107.29C528.14 106.83 526.39 106.25 524.55 105.56C522.72 104.87 520.69 104.06 518.47 103.14C517.05 102.58 515.73 102.05 514.5 101.56C513.27 101.07 512.09 100.64 510.95 100.27C509.81 99.9 508.7 99.61 507.62 99.4C506.54 99.19 505.45 99.09 504.36 99.09C502.38 99.09 500.65 99.5 499.17 100.31C497.69 101.13 496.33 102.58 495.09 104.68C494.97 104.83 494.9 105.01 494.87 105.23C494.84 105.45 494.83 105.72 494.83 106.05C494.83 106.47 494.87 106.73 494.94 106.85C495.01 106.97 495.13 107.03 495.27 107.03C495.63 107.03 495.97 106.9 496.29 106.65C496.61 106.4 497.03 106.13 497.53 105.85C498.03 105.57 498.7 105.3 499.53 105.05C500.36 104.8 501.47 104.67 502.86 104.67C504.55 104.67 506.23 104.88 507.92 105.31C509.61 105.74 511.31 106.27 513.03 106.91C514.75 107.55 516.49 108.23 518.27 108.95C520.05 109.68 521.87 110.32 523.73 110.88V111.1C521.81 111.75 520.02 112.41 518.38 113.07C516.74 113.74 515.14 114.38 513.59 115C512.04 115.62 510.46 116.21 508.86 116.78C507.26 117.34 505.53 117.82 503.67 118.22C501.81 118.62 499.77 118.94 497.55 119.17C495.33 119.41 492.82 119.53 490 119.53H486.18H486.09H482.18H482.17C479.48 119.53 477.31 118.84 475.67 117.45C474.03 116.06 473.06 114.02 472.76 111.33C472.88 110.83 473.02 110.26 473.18 109.64C473.34 109.02 473.5 108.42 473.65 107.84C473.8 107.26 473.92 106.72 474.03 106.22C474.13 105.72 474.18 105.32 474.18 105.02C474.18 104.81 474.12 104.63 473.98 104.49C473.85 104.34 473.62 104.27 473.29 104.27C472.64 104.27 472.13 104.29 471.76 104.34C471.39 104.38 471.12 104.45 470.94 104.54C470.76 104.63 470.64 104.75 470.58 104.92C470.52 105.08 470.46 105.28 470.4 105.52C470.13 106.58 469.85 107.67 469.56 108.78C469.26 109.89 468.95 110.95 468.61 111.95C468.27 112.96 467.89 113.86 467.48 114.66C467.07 115.46 466.61 116.08 466.1 116.52C465.66 116.96 465.09 117.37 464.39 117.74C463.69 118.11 462.93 118.43 462.1 118.69C461.27 118.96 460.42 119.16 459.53 119.31C458.64 119.46 457.8 119.53 457 119.53H453.18H453.09H449.27H449.18H445.27H445.26C443.99 119.53 442.81 119.32 441.73 118.89C440.65 118.46 439.7 117.8 438.89 116.92C438.07 116.03 437.42 114.91 436.91 113.55C436.41 112.19 436.11 110.59 436.02 108.76L434.55 79.11C434.46 77.42 434.34 75.72 434.17 74.01C434.01 72.29 433.81 70.81 433.57 69.57C433.48 69.28 433.27 69.13 432.95 69.13C432.71 69.13 432.44 69.37 432.13 69.86C431.82 70.35 431.5 70.98 431.18 71.75C430.76 72.67 430.44 73.55 430.2 74.39C429.96 75.23 429.84 76.16 429.84 77.16C430.37 82.46 430.78 87.88 431.06 93.43C431.34 98.98 431.67 104.47 432.06 109.92C432.24 112.55 432.59 114.82 433.1 116.71C433.62 118.6 434.37 120.16 435.34 121.39C436.32 122.62 437.56 123.53 439.07 124.12C440.58 124.71 442.43 125.01 444.62 125.01H444.63H448.54H448.58H452.45H452.49H456.4C457.36 125.01 458.38 124.92 459.47 124.75C460.56 124.57 461.64 124.32 462.69 124C463.74 123.68 464.73 123.28 465.66 122.82C466.59 122.36 467.4 121.85 468.08 121.29C468.29 121.08 468.52 120.82 468.79 120.51C469.06 120.2 469.32 119.87 469.59 119.51C469.86 119.15 470.1 118.79 470.32 118.42C470.54 118.05 470.73 117.7 470.87 117.38H471.05C471.43 118.74 471.98 119.9 472.69 120.86C473.4 121.82 474.22 122.61 475.15 123.24C476.08 123.86 477.09 124.31 478.17 124.59C479.25 124.87 480.37 125.01 481.52 125.01H481.53H485.44H485.48H489.39C492.15 125.01 494.71 124.86 497.05 124.57C499.4 124.27 501.59 123.88 503.62 123.37C505.65 122.87 507.55 122.28 509.32 121.59C511.1 120.91 512.78 120.19 514.38 119.42C515.77 118.8 517.26 118.12 518.84 117.38C520.42 116.64 521.98 115.96 523.5 115.34C525.02 114.72 526.47 114.2 527.85 113.79C529.22 113.38 530.4 113.17 531.38 113.17C532.5 113.17 533.59 113.3 534.64 113.55C535.69 113.8 536.6 113.93 537.37 113.93C537.81 113.93 538.51 113.06 539.46 111.31C539.76 110.72 539.95 110.24 540.06 109.89C540.16 109.53 540.22 109.27 540.22 109.09C540.22 108.79 540.06 108.64 539.73 108.64Z" fill="#4E245D"/>
</svg>
