<svg width="120" height="66" viewBox="0 0 120 66" fill="none" xmlns="http://www.w3.org/2000/svg">
<rect x="0.5" y="1" width="119" height="64" rx="1.5" stroke="white" stroke-opacity="0.1"/>
<path d="M90.5647 28.8643L85.7021 33.6793V48.9983H90.5647V28.8643Z" fill="#69686C"/>
<path d="M85.6948 50.3545V59.2789H87.3188V55.7852H89.0713V59.2789H90.5849V50.3545H85.6948ZM89.918 54.5274H86.4731V53.5665H89.918V54.5274Z" fill="#69686C"/>
<path d="M98.145 6V59.279H103V22.7902C103 11.7058 98.145 6 98.145 6Z" fill="#612C7C"/>
<path d="M91.9292 59.2785H96.7841V11.7642C96.7841 11.7642 91.9292 16.86 91.9292 26.7492V59.2785Z" fill="#612C7C"/>
<path d="M18.781 59.2789C19.5069 59.2789 20.0073 58.741 20.249 57.9005H20.3356L20.5601 58.999C20.5601 59.0635 20.5943 59.0853 20.6467 59.0853H21.5619C21.6133 59.0853 21.6485 59.0427 21.6485 58.9772V51.3552C21.6485 51.2907 21.6142 51.2471 21.5619 51.2471H19.4546C19.4023 51.2471 19.368 51.2898 19.368 51.3552V52.8407C19.368 52.927 19.4023 52.9697 19.4546 52.9697H20.0939V56.4795C20.0939 57.19 19.8523 57.5344 19.3509 57.5344C18.8495 57.5344 18.5907 57.2545 18.5907 56.4577V46.5098C18.5907 45.7348 18.7639 45.4331 19.3509 45.4331C19.8865 45.4331 20.0768 45.6703 20.0768 46.5098V49.8688C20.0768 49.9333 20.111 49.9769 20.1634 49.9769H21.5629C21.6142 49.9769 21.6494 49.9342 21.6494 49.8688V46.4234C21.6494 44.5936 20.8027 43.7104 19.3347 43.7104C17.8667 43.7104 17.019 44.5945 17.019 46.4244V56.6304C17.019 58.353 17.5547 59.2789 18.781 59.2789Z" fill="#69686C"/>
<path d="M26.0192 58.2447V58.977C26.0192 59.0416 26.0535 59.0852 26.1058 59.0852H27.4187C27.4701 59.0852 27.5053 59.0425 27.5053 58.977V48.3186C27.5053 48.2541 27.471 48.2104 27.4187 48.2104H26.1058C26.0544 48.2104 26.0192 48.2531 26.0192 48.3186V56.5439C26.0192 57.3189 25.9155 57.7496 25.4664 57.7496C25.0688 57.7496 24.9651 57.4479 24.9651 56.7801V48.3186C24.9651 48.2541 24.9308 48.2104 24.8785 48.2104H23.5656C23.5133 48.2104 23.479 48.2531 23.479 48.3186V57.1681C23.479 58.4819 23.773 59.2778 24.6711 59.2778C25.3104 59.2778 25.7937 58.8898 25.9326 58.2438H26.0192V58.2447Z" fill="#69686C"/>
<path d="M29.4918 59.0857H30.8048C30.8561 59.0857 30.8913 59.043 30.8913 58.9776V44.0134C30.8913 43.9489 30.8571 43.9053 30.8048 43.9053H29.4918C29.4405 43.9053 29.4053 43.948 29.4053 44.0134V58.9776C29.4053 59.0421 29.4395 59.0857 29.4918 59.0857Z" fill="#69686C"/>
<path d="M35.6079 49.7396V48.4049C35.6079 48.3404 35.5736 48.2968 35.5213 48.2968H34.5024V46.1216C34.5024 45.562 34.5718 45.4538 34.9343 45.4538H35.5394C35.5907 45.4538 35.6259 45.4111 35.6259 45.3466V44.012C35.6259 43.9474 35.5917 43.9038 35.5394 43.9038H34.4167C33.4149 43.9038 33.0172 44.3772 33.0172 45.6692V48.2958H32.2057C32.1543 48.2958 32.1191 48.3385 32.1191 48.404V49.7386C32.1191 49.8031 32.1534 49.8468 32.2057 49.8468H33.0172V58.9761C33.0172 59.0406 33.0515 59.0842 33.1038 59.0842H34.4167C34.4681 59.0842 34.5033 59.0416 34.5033 58.9761V49.8468H35.5222C35.5736 49.8468 35.6088 49.8041 35.6088 49.7386L35.6079 49.7396Z" fill="#69686C"/>
<path d="M44.2625 43.9053H42.8631C42.8117 43.9053 42.7765 43.948 42.7765 44.0134V56.459C42.7765 57.2122 42.5862 57.5357 42.0334 57.5357C41.5149 57.5357 41.2904 57.2777 41.2904 56.459V44.0134C41.2904 43.9489 41.2562 43.9053 41.2038 43.9053H39.8043C39.753 43.9053 39.7178 43.948 39.7178 44.0134V56.5454C39.7178 58.3752 40.6159 59.2802 42.0154 59.2802C43.4149 59.2802 44.3472 58.4407 44.3472 56.5454V44.0134C44.3472 43.9489 44.313 43.9053 44.2606 43.9053H44.2625Z" fill="#69686C"/>
<path d="M50.2758 58.9772V50.1277C50.2758 48.8575 50.0341 48.0171 49.0837 48.0171C48.4444 48.0171 47.9782 48.3832 47.8222 49.0511H47.7356V48.3187C47.7356 48.2542 47.7013 48.2106 47.649 48.2106H46.3361C46.2838 48.2106 46.2495 48.2533 46.2495 48.3187V58.9772C46.2495 59.0417 46.2838 59.0853 46.3361 59.0853H47.649C47.7013 59.0853 47.7356 59.0427 47.7356 58.9772V50.7519C47.7356 49.9987 47.8564 49.5462 48.2883 49.5462C48.686 49.5462 48.7897 49.8042 48.7897 50.5148V58.9763C48.7897 59.0408 48.824 59.0844 48.8763 59.0844H50.1892C50.2406 59.0844 50.2758 59.0417 50.2758 58.9763V58.9772Z" fill="#69686C"/>
<path d="M52.1754 46.3381H53.4884C53.5397 46.3381 53.5749 46.2954 53.5749 46.23V44.2493C53.5749 44.1848 53.5407 44.1421 53.4884 44.1421H52.1754C52.1241 44.1421 52.0889 44.1848 52.0889 44.2493V46.23C52.0889 46.2945 52.1231 46.3381 52.1754 46.3381Z" fill="#69686C"/>
<path d="M53.5749 58.977V48.3186C53.5749 48.2541 53.5407 48.2104 53.4884 48.2104H52.1754C52.1241 48.2104 52.0889 48.2531 52.0889 48.3186V58.977C52.0889 59.0416 52.1231 59.0852 52.1754 59.0852H53.4884C53.5397 59.0852 53.5749 59.0425 53.5749 58.977Z" fill="#69686C"/>
<path d="M59.1548 48.2114H57.8419C57.7896 48.2114 57.7553 48.2759 57.7553 48.3196L57.0646 56.5231H56.9609L56.2873 48.3196C56.2873 48.2551 56.2531 48.2114 56.2008 48.2114H54.8878C54.7499 48.2114 54.8365 48.3841 54.8013 48.3404L56.1484 58.9771C56.1484 59.0416 56.1827 59.0852 56.235 59.0852H57.8067C57.8409 59.0852 57.8761 59.0425 57.8933 58.9771L59.2404 48.3404C59.2576 48.2759 59.2233 48.2114 59.1539 48.2114H59.1548Z" fill="#69686C"/>
<path d="M62.299 48.0171C61.0033 48.0171 60.2773 48.8357 60.2773 50.4721V56.7376C60.2773 58.4166 60.9861 59.2779 62.299 59.2779C63.6119 59.2779 64.3027 58.4593 64.3027 56.7376V55.1012C64.3027 55.0367 64.2684 54.994 64.2161 54.994H62.9032C62.8518 54.994 62.8166 55.0367 62.8166 55.1012V56.6949C62.8166 57.3627 62.7471 57.7715 62.2981 57.7715C61.849 57.7715 61.7625 57.4272 61.7625 56.6949V54.1754H64.2161C64.2675 54.1754 64.3027 54.1327 64.3027 54.0682V50.4721C64.3027 48.8575 63.6291 48.0171 62.299 48.0171ZM62.8175 52.798H61.7634V50.5157C61.7634 49.9342 61.8329 49.5254 62.299 49.5254C62.7652 49.5254 62.8175 49.8915 62.8175 50.5157V52.798Z" fill="#69686C"/>
<path d="M68.8292 48.0171C68.1899 48.0171 67.758 48.3832 67.6029 49.0511H67.5163V48.3187C67.5163 48.2542 67.4821 48.2106 67.4298 48.2106H66.1168C66.0645 48.2106 66.0303 48.2533 66.0303 48.3187V58.9772C66.0303 59.0417 66.0645 59.0853 66.1168 59.0853H67.4298C67.4821 59.0853 67.5163 59.0427 67.5163 58.9772V50.7737C67.5163 50.1277 67.5858 49.5899 68.052 49.5899C68.4496 49.5899 68.501 49.8915 68.501 50.473V51.9585C68.501 52.023 68.5353 52.0657 68.5876 52.0657H69.9005C69.9519 52.0657 69.9871 52.023 69.9871 51.9585V50.085C69.9871 48.793 69.7454 48.018 68.8292 48.018V48.0171Z" fill="#69686C"/>
<path d="M73.0973 48.0171C71.7844 48.0171 71.0757 48.7703 71.0757 50.3857V51.4842C71.0757 53.4867 73.6149 54.1327 73.6149 55.7472V56.7812C73.6149 57.4054 73.5455 57.7715 73.0964 57.7715C72.6987 57.7715 72.5608 57.4699 72.5608 56.7812V55.0585C72.5608 54.994 72.5265 54.9504 72.4742 54.9504H71.1613C71.1099 54.9504 71.0747 54.9931 71.0747 55.0585V56.8884C71.0747 58.5029 71.7654 59.2789 73.0964 59.2789C74.4274 59.2789 75.1181 58.4602 75.1181 56.8884V55.5537C75.1181 53.4222 72.5617 52.7335 72.5617 51.2689V50.5157C72.5617 49.9133 72.6654 49.5254 73.0973 49.5254C73.5293 49.5254 73.6159 49.8697 73.6159 50.602V51.8513C73.6159 51.9158 73.6501 51.9595 73.7024 51.9595H75.0325C75.0848 51.9595 75.119 51.9168 75.119 51.8513V50.473C75.119 48.794 74.4283 48.018 73.0973 48.018V48.0171Z" fill="#69686C"/>
<path d="M81.0092 57.5344C80.5944 57.5344 80.4736 57.5562 80.4736 57.1256V50.3431C80.4736 48.7494 79.7657 48.0181 78.4519 48.0181C77.138 48.0181 76.4482 48.7713 76.4482 50.3431V51.7423C76.4482 51.8068 76.4825 51.8504 76.5348 51.8504H77.8477C77.8991 51.8504 77.9343 51.8077 77.9343 51.7423V50.4503C77.9343 49.847 78.0038 49.5463 78.4528 49.5463C78.8676 49.5463 78.9884 49.7398 78.9884 50.4503V51.8931C78.9713 52.1729 78.9019 52.2811 78.5736 52.4746L77.5718 52.9479C76.7251 53.4004 76.4492 53.8311 76.4492 55.1439V57.3191C76.4492 58.5466 76.7432 59.2144 77.6927 59.2144C78.3149 59.2144 78.781 58.8264 78.9361 58.0296H78.9884C79.0398 58.4602 79.1958 58.7401 79.4546 58.9127C79.7134 59.1062 79.9037 59.0854 81.0092 59.0854C81.0606 59.0854 81.0958 59.0427 81.0958 58.9772V57.6426C81.0958 57.578 81.0615 57.5344 81.0092 57.5344ZM78.9713 56.6086C78.9713 57.0174 78.8505 57.5562 78.4186 57.5562C78.039 57.5562 77.9353 57.2328 77.9353 56.5223V55.3384C77.9353 54.6279 78.0561 54.2399 78.4186 54.0464L78.8334 53.8093C78.8857 53.7666 78.9371 53.7448 78.9894 53.6803L78.9723 56.6086H78.9713Z" fill="#69686C"/>
<path d="M83.6007 43.9053H82.2878C82.2354 43.9053 82.2012 43.948 82.2012 44.0134V58.9776C82.2012 59.0421 82.2354 59.0857 82.2878 59.0857H83.6007C83.653 59.0857 83.6872 59.043 83.6872 58.9776V44.0134C83.6872 43.9489 83.653 43.9053 83.6007 43.9053Z" fill="#69686C"/>
<path d="M17.8918 32.3152H18.9355C18.9745 32.3152 19.0011 32.283 19.0011 32.2336V30.9322C19.0011 30.8838 18.9754 30.8506 18.9355 30.8506H17.8918C17.8528 30.8506 17.8262 30.8828 17.8262 30.9322V32.2336C17.8262 32.282 17.8519 32.3152 17.8918 32.3152Z" fill="#612C7C"/>
<path d="M19.405 32.3152H20.4487C20.4877 32.3152 20.5143 32.283 20.5143 32.2336V30.9322C20.5143 30.8838 20.4886 30.8506 20.4487 30.8506H19.405C19.366 30.8506 19.3394 30.8828 19.3394 30.9322V32.2336C19.3394 32.282 19.365 32.3152 19.405 32.3152Z" fill="#612C7C"/>
<path d="M26.1503 42.625H25.1067C25.0677 42.625 25.041 42.6573 25.041 42.7066V44.0081C25.041 44.0564 25.0667 44.0896 25.1067 44.0896H26.1503C26.1893 44.0896 26.216 44.0574 26.216 44.0081V42.7066C26.216 42.6582 26.1903 42.625 26.1503 42.625Z" fill="#612C7C"/>
<path d="M27.7817 42.625H26.738C26.699 42.625 26.6724 42.6573 26.6724 42.7066V44.0081C26.6724 44.0564 26.6981 44.0896 26.738 44.0896H27.7817C27.8207 44.0896 27.8473 44.0574 27.8473 44.0081V42.7066C27.8473 42.6582 27.8216 42.625 27.7817 42.625Z" fill="#612C7C"/>
<path d="M37.0723 28.9487H35.6757C35.6367 28.9487 35.61 28.981 35.61 29.0303V39.2439H33.0917V36.9018C33.0917 35.0805 32.2831 33.8767 31.0558 33.8767C29.4251 33.8767 29.0198 35.0805 29.0198 36.9018V38.0894C29.0198 39.0162 28.7848 39.2439 28.4195 39.2439H27.7801C27.4805 39.2439 27.2845 39.0646 27.2845 38.4793V35.2104C27.2845 35.1621 27.2588 35.1289 27.2188 35.1289H25.8222C25.7832 35.1289 25.7565 35.1611 25.7565 35.2104V38.3493C25.7565 39.0485 25.5872 39.2439 25.2609 39.2439H21.6723C21.1899 39.2439 21.0719 39.0162 21.0719 38.024V33.9583C21.0719 33.9099 21.0462 33.8767 21.0063 33.8767H19.1663C17.861 33.8767 17 34.4136 17 36.528V37.1456C17 38.9669 17.4043 40.1707 19.036 40.1707C19.349 40.1707 19.6496 40.0891 19.897 39.943C20.249 40.8698 20.9016 41.1468 21.7103 41.1468H25.1553C25.8993 41.1468 26.3816 40.8053 26.6689 40.2361C26.8126 40.8053 27.0733 41.1468 27.5433 41.1468H28.3786C28.9266 41.1468 29.2786 40.9191 29.5136 40.496C29.8922 40.9836 30.4659 41.1468 31.1842 41.1468H37.0695C37.1085 41.1468 37.1351 41.1145 37.1351 41.0652V29.0303C37.1351 28.9819 37.1094 28.9487 37.0695 28.9487H37.0723ZM19.5478 37.3239C19.5478 37.8931 19.4432 38.2668 19.0388 38.2668C18.7391 38.2668 18.5298 38.0714 18.5298 37.3239V36.7386C18.5298 36.1695 18.6602 35.7796 19.1692 35.7796H19.4822C19.5212 35.7796 19.5478 35.8118 19.5478 35.8612V37.3249V37.3239ZM31.5657 39.2429H31.1871C30.6781 39.2429 30.5477 38.8531 30.5477 38.2829V36.7216C30.5477 35.9731 30.7561 35.7786 31.0567 35.7786C31.4611 35.7786 31.5657 36.1524 31.5657 36.7216V39.242V39.2429Z" fill="#612C7C"/>
<path d="M50.7869 28.9487H49.3903C49.3513 28.9487 49.3246 28.981 49.3246 29.0303V39.2439H46.01C46.5057 38.8863 46.832 37.894 46.832 37.2765C46.832 35.6667 45.8274 34.3652 44.3137 34.3652H42.1084C42.0694 34.3652 42.0427 34.3975 42.0427 34.4468C42.0427 37.2442 42.0818 38.301 42.9561 39.2448H40.4511C39.9288 39.2448 39.5768 39.0494 39.5768 38.2848V29.0313C39.5768 28.9829 39.5511 28.9497 39.5111 28.9497H38.1145C38.0755 28.9497 38.0488 28.9819 38.0488 29.0313V38.2848C38.0488 40.0084 38.4008 41.1468 39.7975 41.1468H42.9028C43.4898 41.1468 43.9855 41.0491 44.4165 40.626C45.0168 41.0491 45.7474 41.1468 46.6474 41.1468H50.7841C50.8231 41.1468 50.8497 41.1145 50.8497 41.0652V29.0303C50.8497 28.9819 50.824 28.9487 50.7841 28.9487H50.7869ZM44.4583 39.1946C43.7933 38.7231 43.584 38.1539 43.5707 36.2672H44.21C45.0843 36.2672 45.3973 36.5271 45.3973 37.3732C45.3973 38.0079 45.1757 38.7231 44.4574 39.1946H44.4583Z" fill="#612C7C"/>
<path d="M53.4877 28.9487H52.091C52.052 28.9487 52.0254 28.981 52.0254 29.0303V41.0652C52.0254 41.1136 52.0511 41.1468 52.091 41.1468H53.4877C53.5267 41.1468 53.5533 41.1145 53.5533 41.0652V29.0303C53.5533 28.9819 53.5276 28.9487 53.4877 28.9487Z" fill="#612C7C"/>
<path d="M59.9723 43.553V42.2515C59.9723 42.2031 59.9466 42.1699 59.9067 42.1699H58.863C58.824 42.1699 58.7974 42.2022 58.7974 42.2515V43.553C58.7974 43.6014 58.8231 43.6346 58.863 43.6346H59.9067C59.9457 43.6346 59.9723 43.6023 59.9723 43.553Z" fill="#612C7C"/>
<path d="M65.5703 42.625H64.5266C64.4876 42.625 64.4609 42.6573 64.4609 42.7066V44.0081C64.4609 44.0564 64.4866 44.0896 64.5266 44.0896H65.5703C65.6093 44.0896 65.6359 44.0574 65.6359 44.0081V42.7066C65.6359 42.6582 65.6102 42.625 65.5703 42.625Z" fill="#612C7C"/>
<path d="M67.2006 44.0891C67.2396 44.0891 67.2663 44.0569 67.2663 44.0076V42.7061C67.2663 42.6577 67.2406 42.6245 67.2006 42.6245H66.157C66.1179 42.6245 66.0913 42.6568 66.0913 42.7061V44.0076C66.0913 44.0559 66.117 44.0891 66.157 44.0891H67.2006Z" fill="#612C7C"/>
<path d="M74.1037 31.762H75.1474C75.1864 31.762 75.2131 31.7298 75.2131 31.6804V30.3799C75.2131 30.3315 75.1874 30.2983 75.1474 30.2983H74.1037C74.0647 30.2983 74.0381 30.3306 74.0381 30.3799V31.6804C74.0381 31.7298 74.0638 31.762 74.1037 31.762Z" fill="#612C7C"/>
<path d="M78.057 41.1458H80.9273C80.9664 41.1458 80.993 41.1135 80.993 41.0642V29.0293C80.993 28.981 80.9673 28.9478 80.9273 28.9478H79.5307C79.4917 28.9478 79.4651 28.98 79.4651 29.0293V39.2429H77.1817C76.8687 39.2429 76.6594 39.0797 76.6594 38.4461V36.4294C76.6594 34.5587 76.2551 33.3236 74.6235 33.3236C73.3971 33.3236 72.5875 33.8767 72.5875 35.974V37.0962C72.5875 37.1446 72.6132 37.1778 72.6531 37.1778H74.0498C74.0888 37.1778 74.1154 37.1455 74.1154 37.0962V36.1856C74.1154 35.6164 74.2201 35.2256 74.6244 35.2256C74.9241 35.2256 75.1334 35.421 75.1334 36.1856V38.6083C75.1334 38.836 75.1591 39.0475 75.1991 39.2429H71.0891C70.7894 39.2429 70.5934 39.0636 70.5934 38.4783V29.0293C70.5934 28.981 70.5677 28.9478 70.5278 28.9478H69.1311C69.0921 28.9478 69.0655 28.98 69.0655 29.0293V38.3484C69.0655 39.0475 68.8961 39.2429 68.5698 39.2429H67.1998C66.8992 39.2429 66.7041 39.0636 66.7041 38.4783V35.2095C66.7041 35.1611 66.6784 35.1279 66.6394 35.1279H65.2428C65.2038 35.1279 65.1781 35.1601 65.1781 35.2095V38.3484C65.1781 39.0475 65.0088 39.2429 64.6824 39.2429H60.4944C60.1814 39.2429 59.9721 39.0797 59.9721 38.4461V36.4294C59.9721 34.5587 59.5678 33.3236 57.9362 33.3236C56.7098 33.3236 55.9002 33.8606 55.9002 35.974V37.747C55.9002 37.7953 55.9259 37.8285 55.9658 37.8285H57.3625C57.4015 37.8285 57.4281 37.7963 57.4281 37.747V36.1856C57.4281 35.6164 57.5328 35.2256 57.9371 35.2256C58.2368 35.2256 58.4461 35.421 58.4461 36.1856V38.6083C58.4461 38.836 58.4718 39.0475 58.5118 39.2429H57.8458C56.2018 39.2429 55.1182 40.5112 55.1182 42.5772C55.1182 44.9032 56.2008 46.3337 57.8458 46.3337H59.4508C59.4898 46.3337 59.5164 46.3014 59.5164 46.2521V44.5124C59.5164 44.464 59.4907 44.4308 59.4508 44.4308H57.8458C57.1151 44.4308 56.6451 43.8455 56.6451 42.7878C56.6451 41.7301 57.1151 41.1448 57.8458 41.1448H64.5787C65.3227 41.1448 65.8051 40.8033 66.0924 40.2342C66.236 40.8033 66.4967 41.1448 66.9667 41.1448H68.467C69.211 41.1448 69.6934 40.8033 69.9807 40.2342C70.1244 40.8033 70.385 41.1448 70.855 41.1448H78.058L78.057 41.1458Z" fill="#612C7C"/>
<path d="M83.6293 28.9487H82.2326C82.1936 28.9487 82.167 28.981 82.167 29.0303V41.0652C82.167 41.1136 82.1927 41.1468 82.2326 41.1468H83.6293C83.6683 41.1468 83.6949 41.1145 83.6949 41.0652V29.0303C83.6949 28.9819 83.6692 28.9487 83.6293 28.9487Z" fill="#612C7C"/>
</svg>
