<svg width="596" height="193" viewBox="0 0 596 193" fill="none" xmlns="http://www.w3.org/2000/svg">
<path d="M482.78 164.77L482.67 164.69L482.58 164.78C482.138 165.224 481.724 165.695 481.34 166.19L481.28 166.27C480.817 165.793 480.319 165.352 479.79 164.95L479.69 164.87L479.6 164.96C479.152 165.399 478.738 165.87 478.36 166.37L478.24 166.53L478.39 166.65C479.01 167.13 479.56 167.6 480.2 168.17L480.3 168.26L480.4 168.17C480.855 167.758 481.261 167.295 481.61 166.79L481.68 166.7C482.18 167.11 482.68 167.5 483.2 167.98L483.3 168.07L483.4 167.98C483.852 167.565 484.258 167.102 484.61 166.6L484.71 166.46L484.59 166.34C484.017 165.783 483.413 165.259 482.78 164.77Z" fill="#B5B6B6"/>
<mask id="mask0_36_2" style="mask-type:luminance" maskUnits="userSpaceOnUse" x="260" y="46" width="28" height="64">
<path d="M260.31 55.13V89.42C270.531 94.2297 279.724 100.974 287.38 109.28V55.13L274.05 46.42L260.31 55.13Z" fill="white"/>
</mask>
<g mask="url(#mask0_36_2)">
<path d="M273.91 46.42H260.31V109.28H273.91V46.42Z" fill="#4E245D"/>
</g>
<mask id="mask1_36_2" style="mask-type:luminance" maskUnits="userSpaceOnUse" x="260" y="46" width="28" height="64">
<path d="M260.31 55.13V89.42C270.531 94.2297 279.724 100.974 287.38 109.28V55.13L274.05 46.42L260.31 55.13Z" fill="white"/>
</mask>
<g mask="url(#mask1_36_2)">
<path d="M273.95 46.42H273.91V109.28H273.95V46.42Z" fill="#4E245D"/>
</g>
<mask id="mask2_36_2" style="mask-type:luminance" maskUnits="userSpaceOnUse" x="260" y="46" width="28" height="64">
<path d="M260.31 55.13V89.42C270.531 94.2297 279.724 100.974 287.38 109.28V55.13L274.05 46.42L260.31 55.13Z" fill="white"/>
</mask>
<g mask="url(#mask2_36_2)">
<path d="M273.99 46.42H273.95V109.28H273.99V46.42Z" fill="#4F245E"/>
</g>
<mask id="mask3_36_2" style="mask-type:luminance" maskUnits="userSpaceOnUse" x="260" y="46" width="28" height="64">
<path d="M260.31 55.13V89.42C270.531 94.2297 279.724 100.974 287.38 109.28V55.13L274.05 46.42L260.31 55.13Z" fill="white"/>
</mask>
<g mask="url(#mask3_36_2)">
<path d="M273.99 46.42H273.98V109.28H273.99V46.42Z" fill="#4F245E"/>
</g>
<mask id="mask4_36_2" style="mask-type:luminance" maskUnits="userSpaceOnUse" x="260" y="46" width="28" height="64">
<path d="M260.31 55.13V89.42C270.531 94.2297 279.724 100.974 287.38 109.28V55.13L274.05 46.42L260.31 55.13Z" fill="white"/>
</mask>
<g mask="url(#mask4_36_2)">
<path d="M274 46.42H273.99V109.28H274V46.42Z" fill="#50275F"/>
</g>
<mask id="mask5_36_2" style="mask-type:luminance" maskUnits="userSpaceOnUse" x="260" y="46" width="28" height="64">
<path d="M260.31 55.13V89.42C270.531 94.2297 279.724 100.974 287.38 109.28V55.13L274.05 46.42L260.31 55.13Z" fill="white"/>
</mask>
<g mask="url(#mask5_36_2)">
<path d="M274.01 46.42H274V109.28H274.01V46.42Z" fill="#4F295F"/>
</g>
<mask id="mask6_36_2" style="mask-type:luminance" maskUnits="userSpaceOnUse" x="260" y="46" width="28" height="64">
<path d="M260.31 55.13V89.42C270.531 94.2297 279.724 100.974 287.38 109.28V55.13L274.05 46.42L260.31 55.13Z" fill="white"/>
</mask>
<g mask="url(#mask6_36_2)">
<path d="M274.01 46.42H274V109.28H274.01V46.42Z" fill="#522A61"/>
</g>
<mask id="mask7_36_2" style="mask-type:luminance" maskUnits="userSpaceOnUse" x="260" y="46" width="28" height="64">
<path d="M260.31 55.13V89.42C270.531 94.2297 279.724 100.974 287.38 109.28V55.13L274.05 46.42L260.31 55.13Z" fill="white"/>
</mask>
<g mask="url(#mask7_36_2)">
<path d="M274.02 46.42H274.01V109.28H274.02V46.42Z" fill="#522B60"/>
</g>
<mask id="mask8_36_2" style="mask-type:luminance" maskUnits="userSpaceOnUse" x="260" y="46" width="28" height="64">
<path d="M260.31 55.13V89.42C270.531 94.2297 279.724 100.974 287.38 109.28V55.13L274.05 46.42L260.31 55.13Z" fill="white"/>
</mask>
<g mask="url(#mask8_36_2)">
<path d="M287.38 46.42H274.1V109.28H287.38V46.42Z" fill="#B5B6B6"/>
</g>
<mask id="mask9_36_2" style="mask-type:luminance" maskUnits="userSpaceOnUse" x="280" y="13" width="38" height="120">
<path d="M280.84 26.38V48.38L289.55 54.33V113C291.347 115.456 292.923 118.066 294.26 120.8C296.116 124.595 297.493 128.606 298.36 132.74C298.716 129.164 299.585 125.658 300.94 122.33C303.033 117.222 306.205 112.627 310.24 108.86V53.39L318 48.54V26.83L299.19 13.47L280.84 26.38Z" fill="white"/>
</mask>
<g mask="url(#mask9_36_2)">
<path d="M299.23 13.46H280.84V132.76H299.23V13.46Z" fill="#4E245D"/>
</g>
<mask id="mask10_36_2" style="mask-type:luminance" maskUnits="userSpaceOnUse" x="280" y="13" width="38" height="120">
<path d="M280.84 26.38V48.38L289.55 54.33V113C291.347 115.456 292.923 118.066 294.26 120.8C296.116 124.595 297.493 128.606 298.36 132.74C298.716 129.164 299.585 125.658 300.94 122.33C303.033 117.222 306.205 112.627 310.24 108.86V53.39L318 48.54V26.83L299.19 13.47L280.84 26.38Z" fill="white"/>
</mask>
<g mask="url(#mask10_36_2)">
<path d="M299.35 13.46H299.33V132.76H299.35V13.46Z" fill="#B5B6B6"/>
</g>
<mask id="mask11_36_2" style="mask-type:luminance" maskUnits="userSpaceOnUse" x="280" y="13" width="38" height="120">
<path d="M280.84 26.38V48.38L289.55 54.33V113C291.347 115.456 292.923 118.066 294.26 120.8C296.116 124.595 297.493 128.606 298.36 132.74C298.716 129.164 299.585 125.658 300.94 122.33C303.033 117.222 306.205 112.627 310.24 108.86V53.39L318 48.54V26.83L299.19 13.47L280.84 26.38Z" fill="white"/>
</mask>
<g mask="url(#mask11_36_2)">
<path d="M299.37 13.46H299.35V132.76H299.37V13.46Z" fill="#B5B6B6"/>
</g>
<mask id="mask12_36_2" style="mask-type:luminance" maskUnits="userSpaceOnUse" x="280" y="13" width="38" height="120">
<path d="M280.84 26.38V48.38L289.55 54.33V113C291.347 115.456 292.923 118.066 294.26 120.8C296.116 124.595 297.493 128.606 298.36 132.74C298.716 129.164 299.585 125.658 300.94 122.33C303.033 117.222 306.205 112.627 310.24 108.86V53.39L318 48.54V26.83L299.19 13.47L280.84 26.38Z" fill="white"/>
</mask>
<g mask="url(#mask12_36_2)">
<path d="M299.39 13.46H299.37V132.76H299.39V13.46Z" fill="#B5B6B6"/>
</g>
<mask id="mask13_36_2" style="mask-type:luminance" maskUnits="userSpaceOnUse" x="280" y="13" width="38" height="120">
<path d="M280.84 26.38V48.38L289.55 54.33V113C291.347 115.456 292.923 118.066 294.26 120.8C296.116 124.595 297.493 128.606 298.36 132.74C298.716 129.164 299.585 125.658 300.94 122.33C303.033 117.222 306.205 112.627 310.24 108.86V53.39L318 48.54V26.83L299.19 13.47L280.84 26.38Z" fill="white"/>
</mask>
<g mask="url(#mask13_36_2)">
<path d="M318 13.46H299.38V132.76H318V13.46Z" fill="#B5B6B6"/>
</g>
<mask id="mask14_36_2" style="mask-type:luminance" maskUnits="userSpaceOnUse" x="312" y="46" width="28" height="59">
<path d="M312.61 54.29V104.73C320.375 97.1637 329.576 91.2272 339.67 87.27V56.09L325.84 46.42L312.61 54.29Z" fill="white"/>
</mask>
<g mask="url(#mask14_36_2)">
<path d="M326.21 46.42H312.61V104.73H326.21V46.42Z" fill="#4E245D"/>
</g>
<mask id="mask15_36_2" style="mask-type:luminance" maskUnits="userSpaceOnUse" x="312" y="46" width="28" height="59">
<path d="M312.61 54.29V104.73C320.375 97.1637 329.576 91.2272 339.67 87.27V56.09L325.84 46.42L312.61 54.29Z" fill="white"/>
</mask>
<g mask="url(#mask15_36_2)">
<path d="M326.25 46.42H326.21V104.73H326.25V46.42Z" fill="#4E245D"/>
</g>
<mask id="mask16_36_2" style="mask-type:luminance" maskUnits="userSpaceOnUse" x="312" y="46" width="28" height="59">
<path d="M312.61 54.29V104.73C320.375 97.1637 329.576 91.2272 339.67 87.27V56.09L325.84 46.42L312.61 54.29Z" fill="white"/>
</mask>
<g mask="url(#mask16_36_2)">
<path d="M326.28 46.42H326.24V104.73H326.28V46.42Z" fill="#4F245E"/>
</g>
<mask id="mask17_36_2" style="mask-type:luminance" maskUnits="userSpaceOnUse" x="312" y="46" width="28" height="59">
<path d="M312.61 54.29V104.73C320.375 97.1637 329.576 91.2272 339.67 87.27V56.09L325.84 46.42L312.61 54.29Z" fill="white"/>
</mask>
<g mask="url(#mask17_36_2)">
<path d="M326.29 46.42H326.28V104.73H326.29V46.42Z" fill="#4F245E"/>
</g>
<mask id="mask18_36_2" style="mask-type:luminance" maskUnits="userSpaceOnUse" x="312" y="46" width="28" height="59">
<path d="M312.61 54.29V104.73C320.375 97.1637 329.576 91.2272 339.67 87.27V56.09L325.84 46.42L312.61 54.29Z" fill="white"/>
</mask>
<g mask="url(#mask18_36_2)">
<path d="M326.3 46.42H326.29V104.73H326.3V46.42Z" fill="#50275F"/>
</g>
<mask id="mask19_36_2" style="mask-type:luminance" maskUnits="userSpaceOnUse" x="312" y="46" width="28" height="59">
<path d="M312.61 54.29V104.73C320.375 97.1637 329.576 91.2272 339.67 87.27V56.09L325.84 46.42L312.61 54.29Z" fill="white"/>
</mask>
<g mask="url(#mask19_36_2)">
<path d="M326.3 46.42H326.29V104.73H326.3V46.42Z" fill="#4F295F"/>
</g>
<mask id="mask20_36_2" style="mask-type:luminance" maskUnits="userSpaceOnUse" x="312" y="46" width="28" height="59">
<path d="M312.61 54.29V104.73C320.375 97.1637 329.576 91.2272 339.67 87.27V56.09L325.84 46.42L312.61 54.29Z" fill="white"/>
</mask>
<g mask="url(#mask20_36_2)">
<path d="M326.31 46.42H326.3V104.73H326.31V46.42Z" fill="#522A61"/>
</g>
<mask id="mask21_36_2" style="mask-type:luminance" maskUnits="userSpaceOnUse" x="312" y="46" width="28" height="59">
<path d="M312.61 54.29V104.73C320.375 97.1637 329.576 91.2272 339.67 87.27V56.09L325.84 46.42L312.61 54.29Z" fill="white"/>
</mask>
<g mask="url(#mask21_36_2)">
<path d="M326.31 46.42H326.3V104.73H326.31V46.42Z" fill="#522B60"/>
</g>
<mask id="mask22_36_2" style="mask-type:luminance" maskUnits="userSpaceOnUse" x="312" y="46" width="28" height="59">
<path d="M312.61 54.29V104.73C320.375 97.1637 329.576 91.2272 339.67 87.27V56.09L325.84 46.42L312.61 54.29Z" fill="white"/>
</mask>
<g mask="url(#mask22_36_2)">
<path d="M339.67 46.42H326.4V104.73H339.67V46.42Z" fill="#B5B6B6"/>
</g>
<path d="M301.57 147.9C301.37 140.35 302.37 128.66 309.22 117.32C316.73 104.89 328.08 98.14 332.72 95.39C341.12 90.39 344.33 90.74 350.89 85.66C357.242 80.6324 362.305 74.1638 365.66 66.79C367.48 72 371.81 86.72 365.76 102.85C359.98 118.25 347.92 126.49 344.04 129.14C336.72 134.14 333.59 133.84 322.16 140.45C315.168 144.498 308.531 149.132 302.32 154.3C304.313 148.162 307.403 142.436 311.44 137.4C328.1 117.62 352.59 116.06 359.7 91C347.21 115.34 309.7 119.81 301.57 147.91" fill="#B5B6B6"/>
<path d="M295.91 148.76C296.16 140.09 294.97 128.63 288.26 118.18C280.42 105.97 267.13 98.38 260.42 94.55C248.42 87.69 237.81 84.77 232.66 73.69C231.831 71.9078 231.201 70.0399 230.78 68.12C229.13 74.19 224.3 94.91 235.31 112.6C240.65 121.18 248.41 126.93 250.7 128.6C259.18 134.79 264.15 135.13 275.33 141.32C282.401 145.244 289.05 149.885 295.17 155.17C293.175 149.033 290.085 143.307 286.05 138.27C269.39 118.49 244.89 116.93 237.79 91.85C250.27 116.19 287.79 120.66 295.91 148.76Z" fill="#4E245D"/>
<path d="M35.89 157.57V162H33.89V149.4H37.4C38.0396 149.386 38.6764 149.488 39.28 149.7C39.7733 149.875 40.2209 150.159 40.59 150.53C40.9373 150.893 41.1972 151.331 41.35 151.81C41.6897 152.884 41.6897 154.036 41.35 155.11C41.1888 155.598 40.9226 156.046 40.57 156.42C40.2026 156.8 39.7551 157.094 39.26 157.28C38.6701 157.491 38.0465 157.593 37.42 157.58H35.89V157.57ZM35.89 155.74H37.4C37.7407 155.754 38.0808 155.7 38.4 155.58C38.6588 155.48 38.8913 155.323 39.08 155.12C39.2654 154.909 39.402 154.66 39.48 154.39C39.579 154.066 39.6262 153.729 39.62 153.39C39.6271 153.078 39.5798 152.766 39.48 152.47C39.3995 152.21 39.2629 151.971 39.08 151.77C38.8902 151.573 38.6575 151.422 38.4 151.33C38.0785 151.22 37.7397 151.169 37.4 151.18H35.89V155.74Z" fill="#B5B6B6"/>
<path d="M46 157.08V162H44V149.39H47.3C47.9438 149.376 48.5856 149.467 49.2 149.66C49.6805 149.811 50.1212 150.067 50.49 150.41C50.8263 150.728 51.0803 151.122 51.23 151.56C51.3903 152.033 51.4681 152.53 51.46 153.03C51.4643 153.436 51.4105 153.84 51.3 154.23C51.1954 154.584 51.0404 154.92 50.84 155.23C50.6388 155.541 50.385 155.816 50.09 156.04C49.7863 156.275 49.4493 156.464 49.09 156.6C49.3588 156.79 49.5838 157.036 49.75 157.32L52.42 162H50.61C50.4516 162.004 50.2952 161.963 50.16 161.88C50.0305 161.79 49.9242 161.67 49.85 161.53L47.58 157.53C47.5164 157.401 47.4198 157.29 47.3 157.21C47.1615 157.137 47.0062 157.103 46.85 157.11L46 157.08ZM46 155.4H47.26C47.6014 155.412 47.9418 155.354 48.26 155.23C48.5246 155.131 48.7638 154.974 48.96 154.77C49.1419 154.57 49.2814 154.335 49.37 154.08C49.4642 153.796 49.5115 153.499 49.51 153.2C49.5249 152.93 49.4847 152.659 49.3919 152.405C49.299 152.15 49.1555 151.917 48.97 151.72C48.5026 151.343 47.9083 151.161 47.31 151.21H46V155.4Z" fill="#B5B6B6"/>
<path d="M64.48 155.7C64.4894 156.573 64.3543 157.441 64.08 158.27C63.8334 159 63.4537 159.678 62.96 160.27C62.4904 160.843 61.8995 161.304 61.23 161.62C60.5256 161.936 59.7622 162.1 58.99 162.1C58.2179 162.1 57.4545 161.936 56.75 161.62C56.0782 161.321 55.4806 160.877 55 160.32C54.5099 159.726 54.1306 159.048 53.88 158.32C53.6098 157.49 53.4747 156.623 53.48 155.75C53.4699 154.877 53.6051 154.009 53.88 153.18C54.1267 152.45 54.5064 151.772 55 151.18C55.4725 150.606 56.0669 150.145 56.74 149.83C57.4414 149.505 58.2069 149.34 58.98 149.35C59.7546 149.338 60.5214 149.505 61.22 149.84C61.8953 150.126 62.502 150.552 63 151.09C63.4929 151.682 63.8726 152.36 64.12 153.09C64.3943 153.919 64.5294 154.787 64.52 155.66M62.46 155.66C62.4682 155.032 62.3874 154.406 62.22 153.8C62.0858 153.294 61.8549 152.818 61.54 152.4C61.2575 152.023 60.8866 151.721 60.46 151.52C60.015 151.315 59.5298 151.213 59.04 151.22C58.5471 151.214 58.0589 151.316 57.61 151.52C57.186 151.725 56.816 152.026 56.53 152.4C56.2152 152.818 55.9843 153.294 55.85 153.8C55.5301 155.019 55.5301 156.301 55.85 157.52C55.9886 158.025 56.2191 158.499 56.53 158.92C56.8201 159.29 57.189 159.591 57.61 159.8C58.0575 160.009 58.5462 160.115 59.04 160.11C59.5312 160.12 60.0177 160.014 60.46 159.8C60.8625 159.615 61.218 159.342 61.5 159C61.8109 158.579 62.0415 158.105 62.18 157.6C62.3487 156.995 62.4295 156.368 62.42 155.74" fill="#B5B6B6"/>
<path d="M68.9 157.57V162H66.9V149.4H70.42C71.0596 149.386 71.6964 149.488 72.3 149.7C72.7933 149.875 73.2409 150.159 73.61 150.53C73.9573 150.893 74.2172 151.331 74.37 151.81C74.7097 152.884 74.7097 154.036 74.37 155.11C74.2089 155.598 73.9426 156.046 73.59 156.42C73.2226 156.8 72.7751 157.094 72.28 157.28C71.6901 157.491 71.0665 157.593 70.44 157.58H68.9V157.57ZM68.9 155.74H70.41C70.7507 155.754 71.0908 155.7 71.41 155.58C71.6688 155.48 71.9013 155.323 72.09 155.12C72.2754 154.909 72.412 154.66 72.49 154.39C72.589 154.066 72.6362 153.729 72.63 153.39C72.6372 153.078 72.5898 152.766 72.49 152.47C72.4095 152.21 72.2729 151.971 72.09 151.77C71.9002 151.573 71.6675 151.422 71.41 151.33C71.0886 151.22 70.7497 151.169 70.41 151.18H68.9V155.74Z" fill="#B5B6B6"/>
<path d="M83.74 149.4V151.26H78.95V154.76H82.73V156.57H78.95V160.14H83.74V162.01H76.92V149.4H83.74Z" fill="#B5B6B6"/>
<path d="M88.3199 157.08V162H86.3199V149.39H89.6199C90.2638 149.376 90.9055 149.467 91.5199 149.66C92.0004 149.811 92.4412 150.067 92.8099 150.41C93.1463 150.728 93.4003 151.122 93.5499 151.56C93.7103 152.033 93.7881 152.53 93.7799 153.03C93.7843 153.436 93.7304 153.84 93.6199 154.23C93.5153 154.584 93.3604 154.92 93.16 155.23C92.9588 155.541 92.705 155.816 92.41 156.04C92.1063 156.275 91.7692 156.464 91.41 156.6C91.6788 156.79 91.9038 157.036 92.0699 157.32L94.7399 162H92.9299C92.7715 162.004 92.6152 161.963 92.4799 161.88C92.3504 161.79 92.2442 161.67 92.1699 161.53L89.8999 157.53C89.8364 157.401 89.7398 157.29 89.6199 157.21C89.4815 157.137 89.3262 157.103 89.1699 157.11L88.3199 157.08ZM88.3199 155.4H89.5799C89.9214 155.412 90.2617 155.354 90.5799 155.23C90.8446 155.131 91.0837 154.974 91.2799 154.77C91.4618 154.57 91.6013 154.335 91.6899 154.08C91.7841 153.796 91.8314 153.499 91.8299 153.2C91.8448 152.93 91.8046 152.659 91.7118 152.405C91.619 152.15 91.4755 151.917 91.2899 151.72C90.8225 151.343 90.2282 151.161 89.6299 151.21H88.3299V155.4H88.3199Z" fill="#B5B6B6"/>
<path d="M103.99 149.4V151.32H100.74V162.01H98.73V151.32H95.46V149.4H103.99Z" fill="#B5B6B6"/>
<path d="M110.83 157.11V162H108.83V157.1L104.88 149.39H106.65C106.726 149.386 106.803 149.397 106.875 149.423C106.947 149.449 107.013 149.488 107.07 149.54C107.18 149.649 107.268 149.778 107.33 149.92L109.33 154.13C109.45 154.38 109.55 154.62 109.63 154.84C109.71 155.06 109.79 155.28 109.86 155.5C109.92 155.28 110 155.06 110.08 154.83C110.167 154.591 110.267 154.357 110.38 154.13L112.38 149.92C112.438 149.784 112.523 149.661 112.63 149.56C112.685 149.504 112.75 149.461 112.822 149.431C112.895 149.402 112.972 149.388 113.05 149.39H114.83L110.83 157.11Z" fill="#B5B6B6"/>
<path d="M129.81 155.7C129.82 156.566 129.685 157.428 129.41 158.25C129.168 158.98 128.792 159.659 128.3 160.25C127.825 160.804 127.235 161.248 126.57 161.55C125.866 161.865 125.101 162.022 124.33 162.01H120.2V149.4H124.33C125.102 149.392 125.866 149.553 126.57 149.87C127.235 150.172 127.825 150.616 128.3 151.17C128.798 151.757 129.176 152.437 129.41 153.17C129.686 153.988 129.821 154.847 129.81 155.71M127.75 155.71C127.758 155.082 127.677 154.456 127.51 153.85C127.371 153.346 127.141 152.871 126.83 152.45C126.547 152.077 126.18 151.776 125.76 151.57C125.312 151.361 124.824 151.255 124.33 151.26H122.23V160.14H124.33C124.824 160.149 125.314 160.043 125.76 159.83C126.184 159.63 126.552 159.328 126.83 158.95C127.141 158.529 127.371 158.055 127.51 157.55C127.68 156.952 127.761 156.332 127.75 155.71Z" fill="#B5B6B6"/>
<path d="M138.96 149.4V151.26H134.16V154.76H137.94V156.57H134.16V160.14H138.96V162.01H132.14V149.4H138.96Z" fill="#B5B6B6"/>
<path d="M140.39 149.4H142C142.157 149.395 142.31 149.448 142.43 149.55C142.543 149.659 142.628 149.792 142.68 149.94L145.22 157.63C145.3 157.88 145.39 158.15 145.46 158.45C145.53 158.75 145.61 159.07 145.68 159.45C145.781 158.851 145.925 158.259 146.11 157.68L148.65 149.99C148.696 149.848 148.778 149.72 148.89 149.62C149.005 149.509 149.16 149.448 149.32 149.45H151L146.58 162H144.76L140.39 149.4Z" fill="#B5B6B6"/>
<path d="M159.65 149.4V151.26H154.85V154.76H158.63V156.57H154.85V160.14H159.65V162.01H152.83V149.4H159.65Z" fill="#B5B6B6"/>
<path d="M164.16 160.07H168.49V162.01H162.14V149.4H164.16V160.07Z" fill="#B5B6B6"/>
<path d="M180.41 155.7C180.419 156.573 180.284 157.441 180.01 158.27C179.763 159 179.384 159.678 178.89 160.27C178.42 160.843 177.829 161.304 177.16 161.62C176.456 161.936 175.692 162.1 174.92 162.1C174.148 162.1 173.384 161.936 172.68 161.62C172.007 161.305 171.412 160.844 170.94 160.27C170.45 159.676 170.071 158.998 169.82 158.27C169.55 157.44 169.415 156.573 169.42 155.7C169.41 154.827 169.545 153.959 169.82 153.13C170.067 152.4 170.446 151.722 170.94 151.13C171.412 150.556 172.007 150.095 172.68 149.78C173.381 149.454 174.147 149.29 174.92 149.3C175.695 149.288 176.461 149.455 177.16 149.79C177.827 150.111 178.417 150.571 178.89 151.14C179.383 151.732 179.762 152.41 180.01 153.14C180.284 153.969 180.419 154.837 180.41 155.71M178.34 155.71C178.348 155.082 178.267 154.456 178.1 153.85C177.966 153.344 177.735 152.868 177.42 152.45C177.137 152.073 176.767 151.77 176.34 151.57C175.895 151.365 175.41 151.263 174.92 151.27C174.427 151.263 173.939 151.365 173.49 151.57C173.066 151.774 172.696 152.076 172.41 152.45C172.095 152.868 171.864 153.344 171.73 153.85C171.41 155.069 171.41 156.351 171.73 157.57C171.869 158.075 172.099 158.549 172.41 158.97C172.7 159.34 173.069 159.641 173.49 159.85C173.937 160.059 174.426 160.165 174.92 160.16C175.411 160.17 175.898 160.064 176.34 159.85C176.765 159.647 177.136 159.346 177.42 158.97C177.731 158.549 177.961 158.075 178.1 157.57C178.274 156.966 178.354 156.339 178.34 155.71Z" fill="#B5B6B6"/>
<path d="M184.82 157.57V162H182.82V149.4H186.34C186.98 149.386 187.616 149.488 188.22 149.7C188.713 149.875 189.161 150.159 189.53 150.53C189.877 150.893 190.137 151.331 190.29 151.81C190.63 152.884 190.63 154.036 190.29 155.11C190.129 155.598 189.863 156.046 189.51 156.42C189.141 156.798 188.694 157.092 188.2 157.28C187.61 157.491 186.987 157.593 186.36 157.58H184.84L184.82 157.57ZM184.82 155.74H186.33C186.671 155.754 187.011 155.7 187.33 155.58C187.589 155.48 187.821 155.323 188.01 155.12C188.195 154.909 188.332 154.66 188.41 154.39C188.509 154.066 188.556 153.729 188.55 153.39C188.557 153.078 188.51 152.766 188.41 152.47C188.33 152.21 188.193 151.971 188.01 151.77C187.82 151.573 187.588 151.422 187.33 151.33C187.009 151.22 186.67 151.169 186.33 151.18H184.82V155.74Z" fill="#B5B6B6"/>
<path d="M198.51 157.36L198.72 157.97C198.79 157.76 198.86 157.55 198.94 157.35C199.02 157.15 199.1 156.95 199.18 156.76L202.38 149.76C202.411 149.685 202.452 149.615 202.5 149.55L202.64 149.44C202.699 149.429 202.761 149.429 202.82 149.44H204.57V162H202.8V153.85C202.8 153.7 202.8 153.53 202.8 153.35V152.8L199.57 160C199.508 160.15 199.408 160.28 199.28 160.38C199.16 160.472 199.012 160.522 198.86 160.52H198.58C198.428 160.526 198.278 160.476 198.16 160.38C198.032 160.28 197.932 160.15 197.87 160L194.55 152.82C194.55 153.01 194.55 153.2 194.55 153.38C194.55 153.56 194.55 153.74 194.55 153.89V162H192.78V149.4H194.53H194.71L194.86 149.51C194.912 149.574 194.956 149.645 194.99 149.72L198.22 156.72C198.31 156.912 198.39 157.109 198.46 157.31" fill="#B5B6B6"/>
<path d="M214.34 149.4V151.26H209.54V154.76H213.32V156.57H209.54V160.14H214.34V162.01H207.51V149.4H214.34Z" fill="#B5B6B6"/>
<path d="M218.11 149.41L218.27 149.46L218.41 149.57L218.56 149.77L224.24 158.21C224.24 158.01 224.24 157.81 224.24 157.61C224.24 157.41 224.24 157.23 224.24 157.07V149.4H226V162H225C224.861 162.004 224.724 161.973 224.6 161.91C224.475 161.831 224.369 161.725 224.29 161.6L218.63 153.2C218.64 153.383 218.64 153.567 218.63 153.75C218.63 153.93 218.63 154.1 218.63 154.25V162H216.86V149.4H217.92C217.996 149.389 218.074 149.389 218.15 149.4" fill="#B5B6B6"/>
<path d="M236.52 149.4V151.32H233.26V162.01H231.25V151.32H227.98V149.4H236.52Z" fill="#B5B6B6"/>
<path d="M377.21 159.49C376.268 159.032 375.252 158.744 374.21 158.64C373.706 158.558 373.213 158.42 372.74 158.23C372.36 158.05 372.19 157.86 372.2 157.66C372.2 157.3 372.79 156.55 373.64 155.92C374.32 155.363 375.147 155.016 376.02 154.92C376.31 154.92 376.75 155.39 377.02 156.62V156.77H377.39H377.47V156.69C377.79 156.16 378.014 155.578 378.13 154.97C378.108 154.454 377.975 153.95 377.74 153.49C377.64 153.232 377.464 153.011 377.236 152.855C377.007 152.7 376.736 152.618 376.46 152.62C374.931 152.878 373.527 153.625 372.46 154.75C371.913 155.246 371.473 155.849 371.167 156.522C370.861 157.194 370.695 157.922 370.68 158.66C370.68 158.934 370.735 159.204 370.844 159.455C370.952 159.706 371.111 159.933 371.31 160.12C372.181 160.699 373.195 161.024 374.24 161.06C374.805 161.126 375.361 161.25 375.9 161.43L376.39 161.67L376.5 161.81C376.336 162.007 376.144 162.179 375.93 162.32C375.529 162.61 375.112 162.877 374.68 163.12C373.42 163.83 372.014 164.24 370.57 164.32C368.06 164.32 366.18 162.89 366.17 160.23C366.188 159.376 366.347 158.532 366.64 157.73L366.71 157.53L365.93 157.29H365.8L365.74 157.43C365.242 158.554 364.99 159.771 365 161C364.935 162.46 365.428 163.891 366.38 165C366.922 165.543 367.573 165.965 368.29 166.239C369.007 166.513 369.774 166.633 370.54 166.59C372.792 166.483 374.94 165.612 376.63 164.12C377.405 163.355 377.877 162.336 377.96 161.25C377.978 160.914 377.92 160.579 377.79 160.269C377.66 159.959 377.462 159.683 377.21 159.46V159.49Z" fill="#B5B6B6"/>
<path d="M385 154.51V154.44H384.93H384.84H384.74L384.68 154.53C384.29 155.14 383.93 155.74 383.57 156.38L383.51 156.49L383.58 156.6C384.279 157.612 384.894 158.679 385.42 159.79L385.61 160.49L385.46 161.06C384.46 163.17 382.27 164.91 380.17 164.92C379.6 164.922 379.033 164.834 378.49 164.66H378.34L378.12 165.32L378.06 165.49L378.21 165.56C379.459 166.235 380.842 166.624 382.26 166.7C382.775 166.659 383.276 166.516 383.734 166.279C384.193 166.042 384.599 165.716 384.93 165.32C386.077 164.196 386.786 162.7 386.93 161.1V159.48C386.935 158.461 386.658 157.461 386.13 156.59L385 154.51Z" fill="#B5B6B6"/>
<path d="M409.82 151.36L409.92 151.45L410.02 151.36C410.474 150.95 410.877 150.486 411.22 149.98L411.29 149.89C411.8 150.3 412.29 150.69 412.81 151.17L412.91 151.26L413.01 151.17C413.464 150.76 413.867 150.296 414.21 149.79L414.31 149.65L414.19 149.53C413.638 148.952 413.039 148.42 412.4 147.94L412.3 147.86L412.21 147.95C411.768 148.394 411.354 148.865 410.97 149.36L410.91 149.44C410.445 148.966 409.947 148.525 409.42 148.12L409.32 148.04L409.23 148.13C408.788 148.574 408.374 149.045 407.99 149.54L407.87 149.7L408.02 149.82C408.63 150.32 409.19 150.82 409.82 151.36Z" fill="#B5B6B6"/>
<path d="M369 171.39L369.1 171.48L369.2 171.39C369.654 170.98 370.057 170.517 370.4 170.01L370.47 169.92C370.98 170.33 371.47 170.72 371.99 171.2L372.09 171.29L372.19 171.2C372.644 170.79 373.047 170.327 373.39 169.82L373.49 169.68L373.37 169.56C372.818 168.982 372.219 168.45 371.58 167.97L371.48 167.89L371.39 167.98C370.948 168.424 370.534 168.895 370.15 169.39L370.09 169.47C369.625 168.996 369.127 168.555 368.6 168.15L368.5 168.07L368.41 168.16C367.968 168.604 367.554 169.075 367.17 169.57L367.05 169.73L367.2 169.85C367.81 170.35 368.37 170.85 369 171.39Z" fill="#B5B6B6"/>
<path d="M444.16 147.23V147.05L444.08 146.99L443.97 146.92L443.88 146.86L443.79 146.93C443.48 147.181 443.189 147.455 442.92 147.75C442.614 148.041 442.432 148.438 442.41 148.86C442.41 149.43 442.5 150.04 442.57 150.72C442.82 153.42 442.98 155.98 443.02 158.32C443.049 158.601 442.995 158.883 442.865 159.134C442.735 159.384 442.536 159.591 442.29 159.73C441.773 159.992 441.199 160.122 440.62 160.11H433.45C432.334 160.116 431.231 159.874 430.22 159.4L432.75 157.18L433.31 155.53L433.37 155.35L433.21 155.29C431.75 154.769 430.209 154.515 428.66 154.54C427.254 154.561 425.853 154.725 424.48 155.03L424 155.09H423.9L423.26 156.88L423.2 157.03L423.37 157.14H423.9C424.28 157.239 424.625 157.44 424.9 157.72C425.54 158.28 426.2 158.96 426.9 159.44C425.707 159.909 424.43 160.123 423.15 160.07H415.8C415.071 160.08 414.342 160.007 413.63 159.85C414.239 158.863 414.567 157.729 414.58 156.57C414.565 155.799 414.352 155.044 413.96 154.38C413.37 153.31 412.67 152.67 411.96 152.66C411.007 152.84 410.144 153.337 409.51 154.07C409.042 154.542 408.672 155.103 408.423 155.719C408.174 156.335 408.051 156.995 408.06 157.66C408.03 158.384 408.185 159.103 408.51 159.75C407.775 159.924 407.025 160.025 406.27 160.05H393.37C393.051 160.047 392.734 159.996 392.43 159.9C392.12 159.828 391.845 159.649 391.653 159.395C391.461 159.141 391.365 158.828 391.38 158.51V157.67C391.38 154.06 391.38 150.25 391.13 147.02V146.91L390.94 146.8L390.85 146.75L390.77 146.81C390.244 147.233 389.749 147.695 389.29 148.19L389.23 148.25V148.34C389.46 151.45 389.63 154.34 389.63 157.15C389.63 159.29 389.63 160.43 390.63 161.41C391.007 161.734 391.446 161.979 391.921 162.131C392.395 162.282 392.894 162.336 393.39 162.29H406.26C407.779 162.211 409.277 161.897 410.7 161.36C412.327 161.948 414.04 162.262 415.77 162.29H422.91C424.866 162.317 426.779 161.718 428.37 160.58C429.889 161.666 431.703 162.263 433.57 162.29H440.47C441.162 162.286 441.845 162.129 442.47 161.83C443.171 161.443 443.703 160.808 443.96 160.05C444.457 158.858 444.676 157.569 444.6 156.28C444.6 154.67 444.47 152.93 444.4 151.28C444.718 151.066 445.022 150.832 445.31 150.58L445.44 150.47L445.35 150.32C444.657 149.42 444.234 148.341 444.13 147.21M412.58 158.57C412.119 158.897 411.6 159.131 411.05 159.26C410.595 159.177 410.172 158.97 409.827 158.661C409.483 158.352 409.231 157.954 409.1 157.51C409.37 156.51 410.5 155.22 411.59 155.24C412.13 155.24 412.59 155.71 412.98 156.47C413.19 156.844 413.31 157.262 413.33 157.69C413.33 157.84 413.05 158.25 412.58 158.57ZM426.83 157.24L426.18 156.65C427.006 156.506 427.842 156.429 428.68 156.42C429.528 156.43 430.373 156.531 431.2 156.72C430.398 157.411 429.556 158.056 428.68 158.65C428.033 158.222 427.414 157.751 426.83 157.24Z" fill="#B5B6B6"/>
<path d="M449.37 147.39V147.26L449.12 147.18H449.04L448.97 147.24C448.415 147.724 447.9 148.252 447.43 148.82L447.38 148.88V148.96C447.63 151.5 447.93 155.4 447.93 158.08V159.52C447.955 160.49 447.898 161.46 447.76 162.42V162.57L448.08 162.74L448.18 162.79L448.26 162.71C449.028 162.092 449.532 161.206 449.67 160.23C449.752 159.419 449.789 158.605 449.78 157.79C449.829 154.329 449.699 150.868 449.39 147.42" fill="#B5B6B6"/>
<path d="M480.15 162.37C482.53 162.37 483.67 162.16 484.43 161.44C485.132 160.65 485.533 159.637 485.56 158.58C485.42 156.949 484.885 155.377 484 154L483.95 153.92H483.71V153.98C483.266 154.507 482.871 155.072 482.53 155.67L482.47 155.77L482.52 155.87C483.217 156.957 483.733 158.149 484.05 159.4L483.89 159.59L483.28 159.87C482.298 160.101 481.288 160.192 480.28 160.14H467.28C465.56 160.14 464.83 159.08 463.94 157.07L463.89 156.95H463.67H463.59V157.02C463.32 157.51 463.04 158.02 462.73 158.73V158.82L462.78 158.91C463.166 159.686 463.621 160.426 464.14 161.12L464.51 161.71C464.179 162.821 463.529 163.81 462.64 164.553C461.75 165.296 460.662 165.761 459.51 165.89C458.921 165.911 458.335 165.805 457.79 165.58L457.65 165.52L457.35 166.17L457.27 166.35L457.43 166.43C458.646 167.1 459.995 167.496 461.38 167.59C462.61 167.59 463.98 166.66 465.23 164.59C465.647 163.865 465.871 163.046 465.88 162.21V162C466.312 162.275 466.818 162.411 467.33 162.39H480.22L480.15 162.37Z" fill="#B5B6B6"/>
<path d="M532.66 154.89L532.76 154.98L532.86 154.89C533.314 154.48 533.717 154.017 534.06 153.51L534.13 153.42C534.64 153.82 535.13 154.22 535.65 154.7L535.75 154.79L535.85 154.7C536.305 154.288 536.711 153.825 537.06 153.32L537.16 153.18L537.04 153.06C536.488 152.482 535.889 151.95 535.25 151.47L535.15 151.39L535.06 151.48C534.615 151.921 534.201 152.392 533.82 152.89L533.76 152.97C533.297 152.493 532.799 152.052 532.27 151.65L532.16 151.57L532.07 151.66C531.628 152.104 531.214 152.575 530.83 153.07L530.71 153.23L530.86 153.35C531.47 153.85 532.02 154.35 532.66 154.89Z" fill="#B5B6B6"/>
<path d="M560.68 147.24V147.05L560.59 146.99L560.48 146.92L560.39 146.86L560.3 146.93C559.99 147.181 559.699 147.455 559.43 147.75C559.124 148.041 558.942 148.438 558.92 148.86C558.92 149.43 559.02 150.05 559.08 150.72C559.33 153.42 559.5 155.98 559.53 158.32C559.559 158.601 559.505 158.883 559.375 159.134C559.245 159.384 559.046 159.591 558.8 159.73C558.286 159.991 557.716 160.121 557.14 160.11H550.4C548.65 160.11 548.28 159.19 548.27 158.62C548.27 154.13 548.27 150.52 547.96 147.06V146.94L547.78 146.87H547.69L546.24 148.26L546.18 148.32L546.23 149.15C546.46 152.53 546.63 155.15 546.63 158.15C546.63 159.15 546.38 159.51 545.98 159.74C545.444 160.015 544.852 160.166 544.25 160.18H537.45C536.795 160.209 536.15 160.016 535.62 159.63C535.465 159.504 535.343 159.34 535.266 159.155C535.19 158.97 535.16 158.769 535.18 158.57C535.229 158.013 535.34 157.463 535.51 156.93V156.82L535.34 156.64L535.25 156.54L534.07 157.35H534.02L533.55 159C533.39 159.68 532.21 160.18 531.04 160.16H523.9C523.42 160.16 522.95 160.16 522.58 160.11C522.985 159.517 523.224 158.826 523.27 158.11C523.254 157.095 522.839 156.127 522.115 155.416C521.391 154.704 520.415 154.307 519.4 154.31C518.344 154.318 517.31 154.604 516.4 155.14C515.307 155.804 514.299 156.6 513.4 157.51C513.662 156.72 513.79 155.892 513.78 155.06C513.78 153.5 513.72 151.95 513.64 150.4L514.57 149.72L514.72 149.61L514.61 149.45C513.901 148.549 513.455 147.469 513.32 146.33V146.24L513.15 146.08L513.06 145.99L512.96 146.06C512.19 146.62 511.68 147.13 511.67 147.91C511.678 148.398 511.711 148.885 511.77 149.37C511.94 151.03 512.16 154.18 512.16 156.09C512.217 157.036 512.143 157.985 511.94 158.91L510.84 160.16H496.26C495.79 157.16 494.34 155.27 492.8 155.25C492.294 155.279 491.802 155.428 491.366 155.686C490.929 155.943 490.56 156.301 490.29 156.73C489.743 157.44 489.451 158.314 489.46 159.21C489.43 159.696 489.535 160.181 489.762 160.611C489.99 161.042 490.332 161.401 490.75 161.65C491.881 162.224 493.144 162.487 494.41 162.41H494.89C494.595 163.073 494.154 163.661 493.6 164.13C493.067 164.727 492.42 165.212 491.697 165.555C490.974 165.899 490.19 166.094 489.39 166.13C488.623 166.141 487.865 165.966 487.18 165.62L487.05 165.55L486.71 166.17L486.62 166.34L486.78 166.43C488.141 167.308 489.704 167.824 491.32 167.93C492.11 167.797 492.864 167.498 493.531 167.053C494.198 166.609 494.763 166.028 495.19 165.35C495.808 164.477 496.209 163.469 496.36 162.41H511C513.702 162.471 516.404 162.314 519.08 161.94C520.728 162.253 522.402 162.41 524.08 162.41H531C531.6 162.448 532.199 162.335 532.744 162.082C533.289 161.829 533.762 161.443 534.12 160.96C534.474 161.474 534.962 161.881 535.532 162.137C536.102 162.393 536.73 162.487 537.35 162.41H544.18C544.766 162.432 545.348 162.306 545.872 162.044C546.396 161.782 546.846 161.392 547.18 160.91C547.499 161.421 547.954 161.833 548.495 162.098C549.036 162.363 549.641 162.471 550.24 162.41H557C557.692 162.403 558.374 162.246 559 161.95C559.701 161.563 560.233 160.928 560.49 160.17C560.987 158.978 561.206 157.689 561.13 156.4C561.13 154.79 560.99 153.05 560.93 151.4C561.248 151.186 561.552 150.952 561.84 150.7L561.97 150.59L561.88 150.44C561.182 149.537 560.752 148.456 560.64 147.32M492.32 159.9C491.37 159.64 490.74 159.21 490.76 158.63C490.782 158.483 490.837 158.344 490.92 158.221C491.003 158.098 491.112 157.995 491.24 157.92C491.558 157.672 491.947 157.532 492.35 157.52C492.644 157.537 492.931 157.614 493.195 157.747C493.458 157.879 493.691 158.064 493.88 158.29C494.359 158.801 494.702 159.423 494.88 160.1C494.035 160.144 493.188 160.077 492.36 159.9M519.08 159.84C517.335 160.047 515.577 160.137 513.82 160.11H512.82C515.08 157.85 516.82 156.62 518.61 156.62C519.4 156.617 520.169 156.881 520.79 157.37C521.032 157.544 521.234 157.768 521.382 158.027C521.531 158.286 521.622 158.573 521.65 158.87C520.931 159.49 520.019 159.843 519.07 159.87" fill="#B5B6B6"/>
<path d="M66.72 111.85C66.8492 113.932 66.2006 115.989 64.9 117.62C64.2457 118.309 63.4478 118.845 62.5629 119.191C61.6781 119.536 60.7279 119.683 59.78 119.62C58.5997 119.646 57.4304 119.389 56.37 118.87C55.4267 118.406 54.6432 117.672 54.12 116.76L49.49 120.09C50.6242 121.662 52.1379 122.921 53.89 123.75C55.7318 124.627 57.7499 125.072 59.79 125.05C63.79 125.05 66.8933 123.893 69.1 121.58C71.3067 119.267 72.4033 116.01 72.39 111.81V84.35H66.73V111.85H66.72Z" fill="#4E245D"/>
<path d="M90.81 84.35H85.15V124.69H90.81V84.35Z" fill="#4E245D"/>
<path d="M127.66 114.49L108.6 84.35H103.47V124.66H109.08V94.99L128.08 124.66H133.27V84.35H127.66V114.49Z" fill="#4E245D"/>
<path d="M156.51 84.35L141.64 124.69H147.74L150.74 115.84H167.02L170.02 124.69H176.12L161.33 84.35H156.51ZM152.64 110.46L158.93 92.15L165.22 110.46H152.64Z" fill="#4E245D"/>
<path d="M209.18 84.35V114.48L190.12 84.35H184.98V124.67H190.59V94.99L209.59 124.67H214.78V84.35H209.18Z" fill="#4E245D"/>
<path d="M395.77 89.91C396.272 90.3466 396.83 90.7133 397.43 91C397.772 91.1596 398.143 91.2513 398.52 91.27C399.055 91.258 399.566 91.0519 399.96 90.69C400.481 90.2394 400.935 89.7176 401.31 89.14C401.681 88.6656 401.999 88.1527 402.26 87.61C402.429 87.27 402.528 86.8992 402.55 86.52C402.533 85.9677 402.34 85.4353 402 85C401.566 84.4378 401.058 83.9366 400.49 83.51C399.972 83.0892 399.417 82.7176 398.83 82.4C398.481 82.2133 398.095 82.1073 397.7 82.09C397.179 82.1079 396.681 82.3139 396.3 82.67C395.802 83.1025 395.365 83.6003 395 84.15C394.648 84.6364 394.343 85.1554 394.09 85.7C393.912 86.0899 393.813 86.5115 393.8 86.94C393.823 87.4725 394.008 87.9853 394.33 88.41C394.742 88.9682 395.222 89.4721 395.76 89.91" fill="#4E245D"/>
<path d="M465.19 93.9999C465.692 94.4414 466.25 94.8147 466.85 95.1099C467.192 95.2696 467.563 95.3613 467.94 95.3799C468.475 95.368 468.986 95.1618 469.38 94.7999C469.901 94.3493 470.355 93.8275 470.73 93.2499C471.101 92.7756 471.419 92.2626 471.68 91.7199C471.849 91.3799 471.948 91.0091 471.97 90.6299C471.961 90.0765 471.775 89.5405 471.44 89.0999C471.006 88.5377 470.498 88.0366 469.93 87.6099C469.412 87.1891 468.857 86.8175 468.27 86.4999C467.921 86.3133 467.535 86.2073 467.14 86.1899C466.619 86.2079 466.121 86.4139 465.74 86.7699C465.239 87.1987 464.798 87.6932 464.43 88.2399C464.078 88.7263 463.773 89.2454 463.52 89.7899C463.342 90.1798 463.243 90.6014 463.23 91.0299C463.253 91.5624 463.438 92.0753 463.76 92.4999C464.18 93.0511 464.659 93.5542 465.19 93.9999Z" fill="#4E245D"/>
<path d="M518.52 130.43C518.002 130.009 517.447 129.638 516.86 129.32C516.511 129.133 516.125 129.027 515.73 129.01C515.209 129.028 514.711 129.234 514.33 129.59C513.832 130.021 513.391 130.515 513.02 131.06C512.664 131.544 512.359 132.063 512.11 132.61C511.931 133 511.832 133.421 511.82 133.85C511.843 134.383 512.028 134.895 512.35 135.32C512.763 135.877 513.24 136.384 513.77 136.83C514.272 137.272 514.83 137.645 515.43 137.94C515.772 138.1 516.143 138.191 516.52 138.21C517.055 138.198 517.567 137.992 517.96 137.63C518.478 137.177 518.933 136.656 519.31 136.08C519.698 135.608 520.034 135.095 520.31 134.55C520.479 134.21 520.578 133.839 520.6 133.46C520.591 132.907 520.405 132.371 520.07 131.93C519.646 131.36 519.14 130.854 518.57 130.43" fill="#4E245D"/>
<path d="M413.78 93.8201C413.54 93.3801 413.32 92.9901 413.11 92.6701C413.038 92.5306 412.931 92.4122 412.799 92.3264C412.668 92.2405 412.517 92.1901 412.36 92.1801C412.15 92.1801 411.91 92.3501 411.63 92.6901C411.313 93.0906 411.038 93.5229 410.81 93.9801C410.537 94.5318 410.307 95.1035 410.12 95.6901C409.939 96.2494 409.841 96.8323 409.83 97.4201C409.824 97.6679 409.861 97.915 409.94 98.1501C410.03 98.373 410.141 98.5873 410.27 98.7901C412.245 102.271 413.774 105.987 414.82 109.85C415.326 111.706 415.69 113.599 415.91 115.51C416.12 117.227 416.12 118.963 415.91 120.68C415.017 122.225 413.815 123.57 412.38 124.63C410.873 125.761 409.226 126.692 407.48 127.4C405.71 128.11 403.874 128.646 402 129C400.292 129.352 398.554 129.536 396.81 129.55C394.828 129.569 392.854 129.299 390.95 128.75C389.261 128.269 387.696 127.43 386.36 126.29C385.038 125.142 384.01 123.695 383.36 122.07C382.606 120.141 382.243 118.081 382.29 116.01C382.288 114.62 382.446 113.234 382.76 111.88C383.07 110.55 383.4 109.35 383.76 108.28C384.12 107.21 384.45 106.28 384.76 105.59C384.991 105.137 385.149 104.652 385.23 104.15C385.226 104.025 385.186 103.904 385.115 103.801C385.044 103.698 384.945 103.618 384.83 103.57C384.498 103.407 384.13 103.331 383.76 103.35C383.291 103.303 382.821 103.439 382.45 103.73C382.097 104.136 381.804 104.591 381.58 105.08C380.489 107.29 379.634 109.61 379.03 112C378.371 114.476 378.035 117.028 378.03 119.59C378.033 121.513 378.309 123.425 378.85 125.27C379.399 127.162 380.362 128.907 381.67 130.38C383.14 132.01 384.963 133.282 387 134.1C389.667 135.127 392.513 135.609 395.37 135.52C397.756 135.538 400.137 135.293 402.47 134.79C404.54 134.354 406.553 133.683 408.47 132.79C410.18 131.994 411.782 130.986 413.24 129.79C414.574 128.685 415.754 127.407 416.75 125.99C417.584 124.36 418.254 122.652 418.75 120.89C419.301 119.061 419.584 117.161 419.59 115.25C419.583 111.661 419.113 108.088 418.19 104.62C417.165 100.866 415.666 97.2566 413.73 93.8801" fill="#4E245D"/>
<path d="M539.73 108.64C538.058 108.645 536.387 108.534 534.73 108.31C533.073 108.084 531.433 107.75 529.82 107.31C528.153 106.85 526.4 106.273 524.56 105.58C522.72 104.887 520.693 104.08 518.48 103.16L514.48 101.58C513.25 101.09 512.07 100.66 510.93 100.29C509.839 99.9327 508.727 99.6422 507.6 99.42C506.526 99.2124 505.434 99.1086 504.34 99.11C502.535 99.0697 500.748 99.4895 499.15 100.33C497.427 101.4 496.019 102.908 495.07 104.7C494.947 104.86 494.871 105.05 494.85 105.25C494.832 105.523 494.832 105.797 494.85 106.07C494.828 106.342 494.865 106.615 494.96 106.87C494.994 106.927 495.042 106.973 495.1 107.005C495.159 107.037 495.224 107.052 495.29 107.05C495.656 107.039 496.009 106.905 496.29 106.67C496.683 106.373 497.098 106.106 497.53 105.87C498.167 105.534 498.837 105.265 499.53 105.07C500.617 104.787 501.738 104.659 502.86 104.69C504.567 104.691 506.267 104.906 507.92 105.33C509.651 105.772 511.357 106.306 513.03 106.93C514.75 107.57 516.49 108.25 518.27 108.93C520.05 109.61 521.87 110.3 523.73 110.86V111.08C521.81 111.73 520.02 112.39 518.38 113.08L513.59 115C512.037 115.62 510.46 116.213 508.86 116.78C507.162 117.367 505.428 117.848 503.67 118.22C501.65 118.664 499.607 118.998 497.55 119.22C495.042 119.474 492.521 119.595 490 119.58H482.17C479.823 119.695 477.514 118.956 475.67 117.5C473.94 115.917 472.896 113.721 472.76 111.38C472.88 110.88 473.02 110.31 473.18 109.69L473.65 107.89C473.8 107.31 473.92 106.77 474.03 106.27C474.118 105.876 474.168 105.474 474.18 105.07C474.184 104.973 474.169 104.876 474.134 104.785C474.1 104.693 474.047 104.61 473.98 104.54C473.887 104.457 473.778 104.394 473.659 104.356C473.54 104.318 473.414 104.306 473.29 104.32C472.779 104.311 472.268 104.335 471.76 104.39C471.477 104.41 471.2 104.477 470.94 104.59C470.858 104.626 470.783 104.678 470.721 104.743C470.66 104.809 470.611 104.886 470.58 104.97C470.509 105.167 470.449 105.367 470.4 105.57C470.13 106.63 469.85 107.72 469.56 108.83C469.27 109.94 469 111 468.61 112C468.301 112.93 467.923 113.836 467.48 114.71C467.143 115.413 466.675 116.044 466.1 116.57C465.594 117.059 465.018 117.471 464.39 117.79C463.659 118.193 462.893 118.528 462.1 118.79C461.26 119.06 460.401 119.267 459.53 119.41C458.694 119.554 457.848 119.627 457 119.63H445.26C444.053 119.644 442.855 119.426 441.73 118.99C440.643 118.548 439.672 117.864 438.89 116.99C438.011 116.007 437.331 114.863 436.89 113.62C436.354 112.077 436.054 110.462 436 108.83L434.53 79.18C434.44 77.49 434.32 75.79 434.15 74.08C433.98 72.37 433.79 70.88 433.55 69.64C433.515 69.5054 433.434 69.3874 433.32 69.3069C433.207 69.2263 433.069 69.1885 432.93 69.2C432.69 69.2 432.42 69.44 432.11 69.93C431.741 70.5325 431.424 71.1647 431.16 71.82C430.761 72.6737 430.427 73.5562 430.16 74.46C429.912 75.3622 429.791 76.2945 429.8 77.23C430.333 82.53 430.74 87.9534 431.02 93.5C431.3 99.0467 431.633 104.543 432.02 109.99C432.135 112.28 432.47 114.554 433.02 116.78C433.447 118.474 434.208 120.065 435.26 121.46C436.236 122.688 437.524 123.631 438.99 124.19C440.769 124.827 442.651 125.129 444.54 125.08H456.4C457.429 125.072 458.455 124.986 459.47 124.82C460.559 124.641 461.634 124.391 462.69 124.07C463.721 123.76 464.724 123.365 465.69 122.89C466.552 122.474 467.364 121.961 468.11 121.36C468.32 121.15 468.55 120.89 468.82 120.58C469.09 120.27 469.35 119.94 469.62 119.58C469.883 119.23 470.126 118.866 470.35 118.49C470.553 118.168 470.736 117.834 470.9 117.49H471.08C471.41 118.74 471.965 119.92 472.72 120.97C473.398 121.898 474.23 122.703 475.18 123.35C476.098 123.964 477.112 124.421 478.18 124.7C479.274 124.982 480.4 125.123 481.53 125.12H489.4C491.96 125.13 494.518 124.983 497.06 124.68C499.272 124.41 501.466 124.01 503.63 123.48C505.567 123.011 507.471 122.416 509.33 121.7C511.11 121.02 512.79 120.3 514.39 119.53C515.777 118.91 517.263 118.243 518.85 117.53C520.43 116.79 521.99 116.11 523.51 115.53C525.03 114.95 526.51 114.39 527.86 113.98C529.001 113.607 530.19 113.399 531.39 113.36C532.488 113.358 533.582 113.486 534.65 113.74C535.543 113.971 536.459 114.098 537.38 114.12C537.82 114.12 538.52 113.25 539.47 111.5C539.708 111.044 539.909 110.569 540.07 110.08C540.155 109.821 540.209 109.552 540.23 109.28C540.23 108.98 540.07 108.83 539.74 108.83" fill="#4E245D"/>
</svg>
