<svg width="623" height="373" viewBox="0 0 623 373" fill="none" xmlns="http://www.w3.org/2000/svg">
<path d="M53.6576 313.77V334.091C53.6576 334.29 53.4672 334.428 53.1921 334.428H43.0572C42.7822 334.428 42.5917 334.29 42.5917 334.091V321.463H35.1017C32.9224 321.463 31.399 322.076 31.399 324.559V330.811C31.399 335.685 33.3033 337.202 38.4024 339.945C47.2255 344.68 48.3468 347.01 48.3468 350.519C48.3468 356.281 44.7499 360.603 30.3411 360.603H21.3276C8.52685 360.603 0 357.247 0 343.638V335.133C0 334.934 0.190428 334.796 0.465486 334.796H10.6003C10.8754 334.796 11.0658 334.934 11.0658 335.133V343.715C11.0658 349.002 13.1605 352.573 21.3065 352.573H29.9391C35.0594 352.573 37.2387 352.021 37.2387 349.829C37.2387 347.776 36.3923 346.458 28.9023 342.964C22.449 339.945 20.2697 337.202 20.2697 330.811V323.946C20.2697 317.632 23.2107 313.448 35.0594 313.448H53.1709C53.446 313.448 53.6364 313.586 53.6364 313.785L53.6576 313.77ZM24.6495 367.177V372.663C24.6495 372.863 24.4591 373 24.184 373H16.6093C16.3342 373 16.1438 372.863 16.1438 372.663V367.177C16.1438 366.978 16.3342 366.84 16.6093 366.84H24.184C24.4591 366.84 24.6495 366.978 24.6495 367.177ZM36.4981 367.177V372.663C36.4981 372.863 36.3078 373 36.0327 373H28.458C28.1829 373 27.9925 372.863 27.9925 372.663V367.177C27.9925 366.978 28.1829 366.84 28.458 366.84H36.0327C36.3078 366.84 36.4981 366.978 36.4981 367.177Z" fill="#69686C"/>
<path d="M55.5622 362.303V354.963C55.5622 354.763 55.7526 354.625 56.0277 354.625H60.5767C66.7338 354.625 70.8173 352.909 70.8173 345.768V320.436C70.8173 320.237 71.0078 320.099 71.2828 320.099H81.4177C81.6927 320.099 81.8832 320.237 81.8832 320.436V345.706C81.8832 355.867 77.6092 362.671 60.5556 362.671H56.0065C55.7314 362.671 55.541 362.533 55.541 362.334L55.5622 362.303Z" fill="#69686C"/>
<path d="M113.177 345.491H104.079C93.9439 345.491 91.3838 340.679 91.3838 333.415V294.352C91.3838 294.153 91.5742 294.015 91.8493 294.015H101.984C102.259 294.015 102.45 294.153 102.45 294.352V333.415C102.45 336.648 105.01 337.46 108.797 337.46H113.156V345.491H113.177Z" fill="#69686C"/>
<path d="M111.292 337.461H120.115C118.888 336.572 117.936 334.166 117.936 331.346V324.48C117.936 317.814 123.818 313.431 132.725 313.431C141.633 313.431 147.515 317.829 147.515 324.48V331.346C147.515 334.166 146.563 336.556 145.336 337.461H154.159V345.491H111.313V337.461H111.292ZM123.416 300.65H130.99C131.265 300.65 131.456 300.788 131.456 300.987V306.474C131.456 306.673 131.265 306.811 130.99 306.811H123.416C123.141 306.811 122.95 306.673 122.95 306.474V300.987C122.95 300.788 123.141 300.65 123.416 300.65ZM132.704 337.461C134.884 337.461 136.407 336.081 136.407 334.089V324.818C136.407 322.825 134.884 321.446 132.704 321.446C130.525 321.446 129.002 322.825 129.002 324.818V334.089C129.002 336.081 130.525 337.461 132.704 337.461ZM134.418 300.65H141.993C142.268 300.65 142.458 300.788 142.458 300.987V306.474C142.458 306.673 142.268 306.811 141.993 306.811H134.418C134.143 306.811 133.953 306.673 133.953 306.474V300.987C133.953 300.788 134.143 300.65 134.418 300.65Z" fill="#69686C"/>
<path d="M151.304 337.461H167.977C161.629 333.476 161.333 329.017 161.333 317.201C161.333 317.002 161.523 316.864 161.799 316.864H177.815C188.818 316.864 196.117 322.351 196.117 329.155C196.117 331.76 193.748 335.944 190.151 337.461H203.988V345.491H194.784C188.247 345.491 182.936 345.077 178.577 343.3C175.446 345.093 171.849 345.491 167.575 345.491H151.262V337.461H151.304ZM178.873 337.246C184.078 335.254 185.707 332.235 185.707 329.553C185.707 325.983 183.422 324.879 177.075 324.879H172.441C172.526 332.848 174.049 335.239 178.895 337.231L178.873 337.246Z" fill="#69686C"/>
<path d="M202.104 337.46H214.228V294.352C214.228 294.153 214.418 294.015 214.693 294.015H224.828C225.103 294.015 225.294 294.153 225.294 294.352V345.154C225.294 345.353 225.103 345.491 224.828 345.491H202.083V337.46H202.104Z" fill="#69686C"/>
<path d="M236.232 294H246.367C246.642 294 246.832 294.138 246.832 294.337V345.139C246.832 345.338 246.642 345.476 246.367 345.476H236.232C235.957 345.476 235.767 345.338 235.767 345.139V294.337C235.767 294.138 235.957 294 236.232 294Z" fill="#69686C"/>
<path d="M294.334 337.461V345.491H291.859C290.06 345.491 288.156 345.215 286.463 344.664V345.69C286.463 355.851 282.189 362.655 265.136 362.655H260.587C260.312 362.655 260.121 362.517 260.121 362.318V354.977C260.121 354.778 260.312 354.64 260.587 354.64H265.136C271.293 354.64 275.376 352.924 275.376 345.782V320.45C275.376 320.251 275.567 320.113 275.842 320.113H285.977C286.252 320.113 286.442 320.251 286.442 320.45V332.189C286.442 336.45 288.727 337.476 292.028 337.476H294.313L294.334 337.461Z" fill="#69686C"/>
<path d="M292.451 337.461H304.574V319.056C304.574 318.857 304.765 318.719 305.04 318.719H315.175C315.45 318.719 315.64 318.857 315.64 319.056V345.491H292.408V337.461H292.451ZM293.953 350.365H301.527C301.802 350.365 301.993 350.502 301.993 350.702V356.188C301.993 356.387 301.802 356.525 301.527 356.525H293.953C293.678 356.525 293.487 356.387 293.487 356.188V350.702C293.487 350.502 293.678 350.365 293.953 350.365ZM305.823 350.365H313.397C313.672 350.365 313.863 350.502 313.863 350.702V356.188C313.863 356.387 313.672 356.525 313.397 356.525H305.823C305.548 356.525 305.357 356.387 305.357 356.188V350.702C305.357 350.502 305.548 350.365 305.823 350.365Z" fill="#69686C"/>
<path d="M360.221 345.492H350.933V345.691C350.933 355.851 346.659 362.655 331.509 362.655H326.961C326.685 362.655 326.495 362.517 326.495 362.318V354.978C326.495 354.778 326.685 354.641 326.961 354.641H331.509C335.783 354.641 339.846 352.924 339.846 345.783V345.507H337.667C329.796 345.507 323.258 342.963 323.258 332.741V325.876C323.258 317.984 326.199 312.758 336.143 312.758C345.051 312.758 350.933 315.026 350.933 323.945V337.477H360.221V345.507V345.492ZM339.846 323.455C339.846 322.428 339.275 320.773 337.201 320.773C335.487 320.773 334.366 321.6 334.366 323.455V334.167C334.366 335.822 335.403 337.461 338.449 337.461H339.867V323.455H339.846Z" fill="#69686C"/>
<path d="M416.058 337.46V345.491H358.338V337.46H367.626V294.352C367.626 294.153 367.817 294.015 368.092 294.015H378.227C378.502 294.015 378.692 294.153 378.692 294.352V317.216C382.861 314.121 387.41 313.033 390.731 313.033C399.258 313.033 404.95 315.715 404.95 326.565V337.476H416.037L416.058 337.46ZM393.884 325.507C393.884 322.963 392.741 321.247 388.298 321.247C385.928 321.247 382.416 322.411 378.713 323.791V337.46H393.884V325.507Z" fill="#69686C"/>
<path d="M441.469 337.461V345.491H435.502C432.096 345.491 430.192 344.051 429.155 341.645C427.06 344.051 423.569 345.491 418.153 345.491H414.175V337.461H418.914C421.284 337.461 422.511 336.633 422.511 333.691V320.435C422.511 320.236 422.702 320.098 422.977 320.098H433.112C433.387 320.098 433.577 320.236 433.577 320.435V334.227C433.577 336.695 434.995 337.461 437.174 337.461H441.448H441.469ZM418.428 311.777V306.29C418.428 306.091 418.618 305.953 418.893 305.953H426.468C426.743 305.953 426.933 306.091 426.933 306.29V311.777C426.933 311.976 426.743 312.114 426.468 312.114H418.893C418.618 312.114 418.428 311.976 418.428 311.777ZM429.43 311.777V306.29C429.43 306.091 429.62 305.953 429.895 305.953H437.47C437.745 305.953 437.936 306.091 437.936 306.29V311.777C437.936 311.976 437.745 312.114 437.47 312.114H429.895C429.62 312.114 429.43 311.976 429.43 311.777Z" fill="#69686C"/>
<path d="M469.715 337.46V345.491H463.748C460.342 345.491 458.438 344.05 457.401 341.644C455.306 344.05 451.815 345.491 446.399 345.491H439.564V337.46H447.139C449.509 337.46 450.736 336.633 450.736 333.691V294.352C450.736 294.153 450.926 294.015 451.202 294.015H461.336C461.612 294.015 461.802 294.153 461.802 294.352V334.242C461.802 336.71 463.22 337.476 465.399 337.476H469.673L469.715 337.46Z" fill="#69686C"/>
<path d="M467.81 337.46H479.934V294.352C479.934 294.153 480.124 294.015 480.399 294.015H490.534C490.809 294.015 491 294.153 491 294.352V345.154C491 345.353 490.809 345.491 490.534 345.491H467.789V337.46H467.81Z" fill="#69686C"/>
<path d="M45.0271 238.614V252.403H43.0464C37.2031 252.403 32.4873 250.399 29.9352 243.68C28.1449 244.739 25.9737 245.333 23.711 245.333C11.9254 245.333 9 236.61 9 223.408V218.928C9 203.608 15.2242 199.715 24.6557 199.715H37.9497C38.2316 199.715 38.422 199.951 38.422 200.301V229.769C38.422 236.961 39.2677 238.606 42.7569 238.606H45.0195L45.0271 238.614ZM14.9499 187.807V178.376C14.9499 178.025 15.1404 177.789 15.4223 177.789H22.9644C23.2463 177.789 23.4368 178.025 23.4368 178.376V187.807C23.4368 188.158 23.2463 188.394 22.9644 188.394H15.4223C15.1404 188.394 14.9499 188.158 14.9499 187.807ZM27.3983 214.098C27.3983 213.748 27.2078 213.511 26.926 213.511H24.6633C20.9836 213.511 20.0466 216.338 20.0466 220.467V224.71C20.0466 230.135 21.555 231.544 23.7262 231.544C26.6517 231.544 27.4059 228.832 27.4059 224.71V214.106L27.3983 214.098ZM25.8899 187.807V178.376C25.8899 178.025 26.0803 177.789 26.3622 177.789H33.9043C34.1862 177.789 34.3767 178.025 34.3767 178.376V187.807C34.3767 188.158 34.1862 188.394 33.9043 188.394H26.3622C26.0803 188.394 25.8899 188.158 25.8899 187.807Z" fill="#612C7C"/>
<path d="M65.871 238.614V252.403H43.1455V238.614H65.871Z" fill="#612C7C"/>
<path d="M91.1408 238.614V252.403H85.1985C81.8007 252.403 79.919 249.927 78.8829 245.806C76.8107 249.935 73.3215 252.403 67.943 252.403H63.9814V238.614H68.6972C71.0513 238.614 72.2778 237.197 72.2778 232.131V209.383C72.2778 209.032 72.4683 208.796 72.7501 208.796H82.8368C83.1187 208.796 83.3092 209.032 83.3092 209.383V233.076C83.3092 237.319 84.7262 238.614 86.8898 238.614H91.1332H91.1408ZM75.5842 263.724V273.156C75.5842 273.506 75.3937 273.742 75.1118 273.742H67.5697C67.2878 273.742 67.0973 273.506 67.0973 273.156V263.724C67.0973 263.374 67.2878 263.138 67.5697 263.138H75.1118C75.3937 263.138 75.5842 263.374 75.5842 263.724ZM87.3697 263.724V273.156C87.3697 273.506 87.1793 273.742 86.8974 273.742H79.3552C79.0734 273.742 78.8829 273.506 78.8829 273.156V263.724C78.8829 263.374 79.0734 263.138 79.3552 263.138H86.8974C87.1793 263.138 87.3697 263.374 87.3697 263.724Z" fill="#612C7C"/>
<path d="M133.293 238.614V252.403H111.512C106.324 252.403 102.179 251.222 99.4445 247.688C97.7456 250.75 95.2011 252.403 91.2396 252.403H89.2588V238.614H91.5214C94.165 238.614 95.8563 236.961 95.8563 230.242V221.64C95.8563 208.438 98.7817 199.715 110.567 199.715C119.435 199.715 125.278 208.438 125.278 221.64V238.614H133.293ZM114.247 220.345C114.247 216.216 113.493 213.512 110.567 213.512C108.396 213.512 106.888 214.929 106.888 220.345V231.659C106.888 235.788 107.832 238.614 111.504 238.614H114.239V220.345H114.247Z" fill="#612C7C"/>
<path d="M131.404 238.614H143.472V164.587C143.472 164.236 143.662 164 143.944 164H154.031C154.312 164 154.503 164.236 154.503 164.587V251.817C154.503 252.167 154.312 252.403 154.031 252.403H131.396V238.614H131.404Z" fill="#612C7C"/>
<path d="M182.797 252.403H173.746C163.66 252.403 161.107 244.153 161.107 231.658V164.587C161.107 164.236 161.298 164 161.58 164H171.666C171.948 164 172.139 164.236 172.139 164.587V231.658C172.139 237.197 174.683 238.614 178.454 238.614H182.789V252.403H182.797Z" fill="#612C7C"/>
<path d="M179.971 238.615H196.571C190.255 231.781 189.974 224.117 189.974 203.844C189.974 203.494 190.164 203.258 190.446 203.258H206.383C217.323 203.258 224.584 212.689 224.584 224.361C224.584 228.84 222.23 236.032 218.641 238.622H232.408V252.411H223.258C216.752 252.411 211.473 251.703 207.13 248.64C204.022 251.703 200.434 252.411 196.19 252.411H179.971V238.622V238.615ZM207.412 238.264C212.6 234.843 214.2 229.663 214.2 225.061C214.2 218.936 211.937 217.047 205.622 217.047H200.997C201.089 230.722 202.597 234.843 207.412 238.264Z" fill="#612C7C"/>
<path d="M230.511 238.614H242.578V164.587C242.578 164.236 242.768 164 243.05 164H253.137C253.419 164 253.609 164.236 253.609 164.587V251.817C253.609 252.167 253.419 252.403 253.137 252.403H230.503V238.614H230.511Z" fill="#612C7C"/>
<path d="M262.577 164H272.663C272.945 164 273.136 164.236 273.136 164.587V251.817C273.136 252.167 272.945 252.403 272.663 252.403H262.577C262.295 252.403 262.104 252.167 262.104 251.817V164.587C262.104 164.236 262.295 164 262.577 164Z" fill="#612C7C"/>
<path d="M329.899 238.614V252.403H304.157C298.877 252.403 295.48 256.647 295.48 264.311C295.48 271.975 298.877 276.218 304.157 276.218H315.76C316.042 276.218 316.232 276.455 316.232 276.805V289.413C316.232 289.764 316.042 290 315.76 290H304.157C292.272 290 284.448 279.624 284.448 262.772C284.448 247.802 292.272 238.607 304.157 238.607H308.964C308.682 237.19 308.492 235.658 308.492 234.013V216.453C308.492 210.914 306.983 209.497 304.812 209.497C301.887 209.497 301.132 212.323 301.132 216.453V227.766C301.132 228.116 300.942 228.352 300.66 228.352H290.573C290.292 228.352 290.101 228.116 290.101 227.766V214.914C290.101 199.593 295.944 195.7 304.812 195.7C316.598 195.7 319.523 204.659 319.523 218.212V232.832C319.523 237.426 321.032 238.607 323.294 238.607H329.892L329.899 238.614ZM319.531 260.426V269.857C319.531 270.208 319.34 270.444 319.058 270.444H311.516C311.234 270.444 311.044 270.208 311.044 269.857V260.426C311.044 260.075 311.234 259.839 311.516 259.839H319.058C319.34 259.839 319.531 260.075 319.531 260.426Z" fill="#612C7C"/>
<path d="M350.743 238.614V252.403H328.018V238.614H350.743Z" fill="#612C7C"/>
<path d="M376.013 238.614V252.403H370.071C366.673 252.403 364.791 249.927 363.755 245.806C361.683 249.935 358.194 252.403 352.815 252.403H348.854V238.614H353.569C355.923 238.614 357.15 237.197 357.15 232.131V209.383C357.15 209.032 357.34 208.796 357.622 208.796H367.717C367.998 208.796 368.189 209.032 368.189 209.383V233.076C368.189 237.319 369.606 238.614 371.769 238.614H376.013ZM360.456 263.724V273.156C360.456 273.506 360.266 273.742 359.984 273.742H352.442C352.16 273.742 351.969 273.506 351.969 273.156V263.724C351.969 263.374 352.16 263.138 352.442 263.138H359.984C360.266 263.138 360.456 263.374 360.456 263.724ZM372.242 263.724V273.156C372.242 273.506 372.051 273.742 371.769 273.742H364.227C363.945 273.742 363.755 273.506 363.755 273.156V263.724C363.755 263.374 363.945 263.138 364.227 263.138H371.769C372.051 263.138 372.242 263.374 372.242 263.724Z" fill="#612C7C"/>
<path d="M404.118 238.614V252.403H398.175C394.778 252.403 392.896 249.927 391.86 245.806C389.788 249.935 386.298 252.403 380.92 252.403H374.132V238.614H381.674C384.028 238.614 385.255 237.197 385.255 232.131V164.587C385.255 164.236 385.445 164 385.727 164H395.814C396.096 164 396.286 164.236 396.286 164.587V233.068C396.286 237.311 397.703 238.606 399.867 238.606H404.11L404.118 238.614Z" fill="#612C7C"/>
<path d="M450.224 238.614V252.403H402.229V238.614H429.578C429.296 237.197 429.106 235.666 429.106 234.02V216.46C429.106 210.922 427.598 209.505 425.426 209.505C422.501 209.505 421.747 212.331 421.747 216.46V223.058C421.747 223.408 421.556 223.644 421.274 223.644H411.188C410.906 223.644 410.715 223.408 410.715 223.058V214.921C410.715 199.715 416.559 195.708 425.426 195.708C437.212 195.708 440.137 204.667 440.137 218.22V232.84C440.137 237.433 441.646 238.614 443.908 238.614H450.224ZM421.183 183.8V174.369C421.183 174.018 421.373 173.782 421.655 173.782H429.197C429.479 173.782 429.67 174.018 429.67 174.369V183.8C429.67 184.151 429.479 184.387 429.197 184.387H421.655C421.373 184.387 421.183 184.151 421.183 183.8Z" fill="#612C7C"/>
<path d="M448.342 238.614H460.409V164.587C460.409 164.236 460.6 164 460.881 164H470.968C471.25 164 471.44 164.236 471.44 164.587V251.817C471.44 252.167 471.25 252.403 470.968 252.403H448.334V238.614H448.342Z" fill="#612C7C"/>
<path d="M480.4 164H490.487C490.769 164 490.959 164.236 490.959 164.587V251.817C490.959 252.167 490.769 252.403 490.487 252.403H480.4C480.118 252.403 479.928 252.167 479.928 251.817V164.587C479.928 164.236 480.118 164 480.4 164Z" fill="#612C7C"/>
<path d="M542.093 148.342L510.638 179.582V278.971H542.093V148.342Z" fill="#69686C"/>
<path d="M510.589 287.771V345.673H521.095V323.006H532.431V345.673H542.223V287.771H510.589ZM537.909 314.845H515.623V308.611H537.909V314.845Z" fill="#69686C"/>
<path d="M591.133 0V345.673H622.539V108.934C622.539 37.0192 591.133 0 591.133 0Z" fill="#612C7C"/>
<path d="M550.919 345.674H582.325V37.4014C582.325 37.4014 550.919 70.4633 550.919 134.624V345.674Z" fill="#612C7C"/>
</svg>
