<svg width="596" height="193" viewBox="0 0 596 193" fill="none" xmlns="http://www.w3.org/2000/svg">
<path d="M482.78 164.769L482.67 164.689L482.58 164.779C482.138 165.223 481.724 165.694 481.34 166.189L481.28 166.269C480.82 165.79 480.321 165.349 479.79 164.949L479.69 164.869L479.6 164.959C479.153 165.398 478.738 165.87 478.36 166.369L478.24 166.529L478.39 166.649C479.01 167.129 479.56 167.599 480.2 168.169L480.3 168.259L480.4 168.169C480.853 167.755 481.259 167.292 481.61 166.789L481.68 166.699C482.18 167.109 482.68 167.499 483.2 167.979L483.3 168.069L483.4 167.979C483.853 167.565 484.259 167.102 484.61 166.599L484.71 166.459L484.59 166.339C484.018 165.782 483.413 165.258 482.78 164.769Z" fill="#808283"/>
<mask id="mask0_740_2" style="mask-type:luminance" maskUnits="userSpaceOnUse" x="260" y="46" width="28" height="64">
<path d="M260.31 55.1299V89.4199C270.531 94.2296 279.723 100.974 287.38 109.28V55.1299L274.05 46.4199L260.31 55.1299Z" fill="white"/>
</mask>
<g mask="url(#mask0_740_2)">
<path d="M273.91 46.4199H260.31V109.28H273.91V46.4199Z" fill="#4E245D"/>
</g>
<mask id="mask1_740_2" style="mask-type:luminance" maskUnits="userSpaceOnUse" x="260" y="46" width="28" height="64">
<path d="M260.31 55.1299V89.4199C270.531 94.2296 279.723 100.974 287.38 109.28V55.1299L274.05 46.4199L260.31 55.1299Z" fill="white"/>
</mask>
<g mask="url(#mask1_740_2)">
<path d="M273.949 46.4199H273.909V109.28H273.949V46.4199Z" fill="#4E245D"/>
</g>
<mask id="mask2_740_2" style="mask-type:luminance" maskUnits="userSpaceOnUse" x="260" y="46" width="28" height="64">
<path d="M260.31 55.1299V89.4199C270.531 94.2296 279.723 100.974 287.38 109.28V55.1299L274.05 46.4199L260.31 55.1299Z" fill="white"/>
</mask>
<g mask="url(#mask2_740_2)">
<path d="M273.989 46.4199H273.949V109.28H273.989V46.4199Z" fill="#4F245E"/>
</g>
<mask id="mask3_740_2" style="mask-type:luminance" maskUnits="userSpaceOnUse" x="260" y="46" width="28" height="64">
<path d="M260.31 55.1299V89.4199C270.531 94.2296 279.723 100.974 287.38 109.28V55.1299L274.05 46.4199L260.31 55.1299Z" fill="white"/>
</mask>
<g mask="url(#mask3_740_2)">
<path d="M273.989 46.4199H273.979V109.28H273.989V46.4199Z" fill="#4F245E"/>
</g>
<mask id="mask4_740_2" style="mask-type:luminance" maskUnits="userSpaceOnUse" x="260" y="46" width="28" height="64">
<path d="M260.31 55.1299V89.4199C270.531 94.2296 279.723 100.974 287.38 109.28V55.1299L274.05 46.4199L260.31 55.1299Z" fill="white"/>
</mask>
<g mask="url(#mask4_740_2)">
<path d="M273.999 46.4199H273.989V109.28H273.999V46.4199Z" fill="#50275F"/>
</g>
<mask id="mask5_740_2" style="mask-type:luminance" maskUnits="userSpaceOnUse" x="260" y="46" width="28" height="64">
<path d="M260.31 55.1299V89.4199C270.531 94.2296 279.723 100.974 287.38 109.28V55.1299L274.05 46.4199L260.31 55.1299Z" fill="white"/>
</mask>
<g mask="url(#mask5_740_2)">
<path d="M274.01 46.4199H274V109.28H274.01V46.4199Z" fill="#4F295F"/>
</g>
<mask id="mask6_740_2" style="mask-type:luminance" maskUnits="userSpaceOnUse" x="260" y="46" width="28" height="64">
<path d="M260.31 55.1299V89.4199C270.531 94.2296 279.723 100.974 287.38 109.28V55.1299L274.05 46.4199L260.31 55.1299Z" fill="white"/>
</mask>
<g mask="url(#mask6_740_2)">
<path d="M274.01 46.4199H274V109.28H274.01V46.4199Z" fill="#522A61"/>
</g>
<mask id="mask7_740_2" style="mask-type:luminance" maskUnits="userSpaceOnUse" x="260" y="46" width="28" height="64">
<path d="M260.31 55.1299V89.4199C270.531 94.2296 279.723 100.974 287.38 109.28V55.1299L274.05 46.4199L260.31 55.1299Z" fill="white"/>
</mask>
<g mask="url(#mask7_740_2)">
<path d="M274.02 46.4199H274.01V109.28H274.02V46.4199Z" fill="#522B60"/>
</g>
<mask id="mask8_740_2" style="mask-type:luminance" maskUnits="userSpaceOnUse" x="260" y="46" width="28" height="64">
<path d="M260.31 55.1299V89.4199C270.531 94.2296 279.723 100.974 287.38 109.28V55.1299L274.05 46.4199L260.31 55.1299Z" fill="white"/>
</mask>
<g mask="url(#mask8_740_2)">
<path d="M287.38 46.4199H274.1V109.28H287.38V46.4199Z" fill="#808283"/>
</g>
<mask id="mask9_740_2" style="mask-type:luminance" maskUnits="userSpaceOnUse" x="280" y="13" width="38" height="120">
<path d="M280.84 26.3807V48.3807L289.55 54.3307V113.001C291.345 115.458 292.921 118.068 294.26 120.801C296.115 124.596 297.492 128.607 298.36 132.741C298.72 129.166 299.589 125.66 300.94 122.331C303.034 117.223 306.206 112.628 310.24 108.861V53.3907L318 48.5407V26.8307L299.19 13.4707L280.84 26.3807Z" fill="white"/>
</mask>
<g mask="url(#mask9_740_2)">
<path d="M299.23 13.4609H280.84V132.761H299.23V13.4609Z" fill="#4E245D"/>
</g>
<mask id="mask10_740_2" style="mask-type:luminance" maskUnits="userSpaceOnUse" x="280" y="13" width="38" height="120">
<path d="M280.84 26.3807V48.3807L289.55 54.3307V113.001C291.345 115.458 292.921 118.068 294.26 120.801C296.115 124.596 297.492 128.607 298.36 132.741C298.72 129.166 299.589 125.66 300.94 122.331C303.034 117.223 306.206 112.628 310.24 108.861V53.3907L318 48.5407V26.8307L299.19 13.4707L280.84 26.3807Z" fill="white"/>
</mask>
<g mask="url(#mask10_740_2)">
<path d="M299.35 13.4609H299.33V132.761H299.35V13.4609Z" fill="#808283"/>
</g>
<mask id="mask11_740_2" style="mask-type:luminance" maskUnits="userSpaceOnUse" x="280" y="13" width="38" height="120">
<path d="M280.84 26.3807V48.3807L289.55 54.3307V113.001C291.345 115.458 292.921 118.068 294.26 120.801C296.115 124.596 297.492 128.607 298.36 132.741C298.72 129.166 299.589 125.66 300.94 122.331C303.034 117.223 306.206 112.628 310.24 108.861V53.3907L318 48.5407V26.8307L299.19 13.4707L280.84 26.3807Z" fill="white"/>
</mask>
<g mask="url(#mask11_740_2)">
<path d="M299.37 13.4609H299.35V132.761H299.37V13.4609Z" fill="#808283"/>
</g>
<mask id="mask12_740_2" style="mask-type:luminance" maskUnits="userSpaceOnUse" x="280" y="13" width="38" height="120">
<path d="M280.84 26.3807V48.3807L289.55 54.3307V113.001C291.345 115.458 292.921 118.068 294.26 120.801C296.115 124.596 297.492 128.607 298.36 132.741C298.72 129.166 299.589 125.66 300.94 122.331C303.034 117.223 306.206 112.628 310.24 108.861V53.3907L318 48.5407V26.8307L299.19 13.4707L280.84 26.3807Z" fill="white"/>
</mask>
<g mask="url(#mask12_740_2)">
<path d="M299.39 13.4609H299.37V132.761H299.39V13.4609Z" fill="#808283"/>
</g>
<mask id="mask13_740_2" style="mask-type:luminance" maskUnits="userSpaceOnUse" x="280" y="13" width="38" height="120">
<path d="M280.84 26.3807V48.3807L289.55 54.3307V113.001C291.345 115.458 292.921 118.068 294.26 120.801C296.115 124.596 297.492 128.607 298.36 132.741C298.72 129.166 299.589 125.66 300.94 122.331C303.034 117.223 306.206 112.628 310.24 108.861V53.3907L318 48.5407V26.8307L299.19 13.4707L280.84 26.3807Z" fill="white"/>
</mask>
<g mask="url(#mask13_740_2)">
<path d="M318 13.4609H299.38V132.761H318V13.4609Z" fill="#808283"/>
</g>
<mask id="mask14_740_2" style="mask-type:luminance" maskUnits="userSpaceOnUse" x="312" y="46" width="28" height="59">
<path d="M312.61 54.2899V104.73C320.377 97.1651 329.577 91.2288 339.67 87.2699V56.0899L325.84 46.4199L312.61 54.2899Z" fill="white"/>
</mask>
<g mask="url(#mask14_740_2)">
<path d="M326.21 46.4199H312.61V104.73H326.21V46.4199Z" fill="#4E245D"/>
</g>
<mask id="mask15_740_2" style="mask-type:luminance" maskUnits="userSpaceOnUse" x="312" y="46" width="28" height="59">
<path d="M312.61 54.2899V104.73C320.377 97.1651 329.577 91.2288 339.67 87.2699V56.0899L325.84 46.4199L312.61 54.2899Z" fill="white"/>
</mask>
<g mask="url(#mask15_740_2)">
<path d="M326.25 46.4199H326.21V104.73H326.25V46.4199Z" fill="#4E245D"/>
</g>
<mask id="mask16_740_2" style="mask-type:luminance" maskUnits="userSpaceOnUse" x="312" y="46" width="28" height="59">
<path d="M312.61 54.2899V104.73C320.377 97.1651 329.577 91.2288 339.67 87.2699V56.0899L325.84 46.4199L312.61 54.2899Z" fill="white"/>
</mask>
<g mask="url(#mask16_740_2)">
<path d="M326.28 46.4199H326.24V104.73H326.28V46.4199Z" fill="#4F245E"/>
</g>
<mask id="mask17_740_2" style="mask-type:luminance" maskUnits="userSpaceOnUse" x="312" y="46" width="28" height="59">
<path d="M312.61 54.2899V104.73C320.377 97.1651 329.577 91.2288 339.67 87.2699V56.0899L325.84 46.4199L312.61 54.2899Z" fill="white"/>
</mask>
<g mask="url(#mask17_740_2)">
<path d="M326.29 46.4199H326.28V104.73H326.29V46.4199Z" fill="#4F245E"/>
</g>
<mask id="mask18_740_2" style="mask-type:luminance" maskUnits="userSpaceOnUse" x="312" y="46" width="28" height="59">
<path d="M312.61 54.2899V104.73C320.377 97.1651 329.577 91.2288 339.67 87.2699V56.0899L325.84 46.4199L312.61 54.2899Z" fill="white"/>
</mask>
<g mask="url(#mask18_740_2)">
<path d="M326.3 46.4199H326.29V104.73H326.3V46.4199Z" fill="#50275F"/>
</g>
<mask id="mask19_740_2" style="mask-type:luminance" maskUnits="userSpaceOnUse" x="312" y="46" width="28" height="59">
<path d="M312.61 54.2899V104.73C320.377 97.1651 329.577 91.2288 339.67 87.2699V56.0899L325.84 46.4199L312.61 54.2899Z" fill="white"/>
</mask>
<g mask="url(#mask19_740_2)">
<path d="M326.3 46.4199H326.29V104.73H326.3V46.4199Z" fill="#4F295F"/>
</g>
<mask id="mask20_740_2" style="mask-type:luminance" maskUnits="userSpaceOnUse" x="312" y="46" width="28" height="59">
<path d="M312.61 54.2899V104.73C320.377 97.1651 329.577 91.2288 339.67 87.2699V56.0899L325.84 46.4199L312.61 54.2899Z" fill="white"/>
</mask>
<g mask="url(#mask20_740_2)">
<path d="M326.311 46.4199H326.301V104.73H326.311V46.4199Z" fill="#522A61"/>
</g>
<mask id="mask21_740_2" style="mask-type:luminance" maskUnits="userSpaceOnUse" x="312" y="46" width="28" height="59">
<path d="M312.61 54.2899V104.73C320.377 97.1651 329.577 91.2288 339.67 87.2699V56.0899L325.84 46.4199L312.61 54.2899Z" fill="white"/>
</mask>
<g mask="url(#mask21_740_2)">
<path d="M326.311 46.4199H326.301V104.73H326.311V46.4199Z" fill="#522B60"/>
</g>
<mask id="mask22_740_2" style="mask-type:luminance" maskUnits="userSpaceOnUse" x="312" y="46" width="28" height="59">
<path d="M312.61 54.2899V104.73C320.377 97.1651 329.577 91.2288 339.67 87.2699V56.0899L325.84 46.4199L312.61 54.2899Z" fill="white"/>
</mask>
<g mask="url(#mask22_740_2)">
<path d="M339.67 46.4199H326.4V104.73H339.67V46.4199Z" fill="#808283"/>
</g>
<path d="M301.57 147.899C301.37 140.349 302.37 128.659 309.22 117.319C316.73 104.889 328.08 98.1391 332.72 95.3891C341.12 90.3891 344.33 90.7391 350.89 85.6591C357.242 80.6314 362.305 74.1629 365.66 66.7891C367.48 71.9991 371.81 86.7191 365.76 102.849C359.98 118.249 347.92 126.489 344.04 129.139C336.72 134.139 333.59 133.839 322.16 140.449C315.168 144.498 308.531 149.131 302.32 154.299C304.311 148.16 307.401 142.434 311.44 137.399C328.1 117.619 352.59 116.059 359.7 90.9991C347.21 115.339 309.7 119.809 301.57 147.909" fill="#808283"/>
<path d="M295.91 148.759C296.16 140.089 294.97 128.629 288.26 118.179C280.42 105.969 267.13 98.3791 260.42 94.5491C248.42 87.6891 237.81 84.7691 232.66 73.6891C231.83 71.9074 231.2 70.0394 230.78 68.1191C229.13 74.1891 224.3 94.9091 235.31 112.599C240.65 121.179 248.41 126.929 250.7 128.599C259.18 134.789 264.15 135.129 275.33 141.319C282.403 145.24 289.052 149.881 295.17 155.169C293.171 149.033 290.081 143.308 286.05 138.269C269.39 118.489 244.89 116.929 237.79 91.8491C250.27 116.189 287.79 120.659 295.91 148.759Z" fill="#4E245D"/>
<path d="M35.8896 157.569V161.999H33.8896V149.399H37.3997C38.0391 149.388 38.6754 149.49 39.2796 149.699C39.7713 149.878 40.2183 150.161 40.5896 150.529C40.9398 150.89 41.2001 151.329 41.3496 151.809C41.6894 152.883 41.6894 154.035 41.3496 155.109C41.1894 155.598 40.923 156.045 40.5696 156.419C40.2014 156.799 39.7542 157.092 39.2596 157.279C38.6693 157.489 38.046 157.59 37.4196 157.579H35.8896V157.569ZM35.8896 155.739H37.3997C37.7402 155.751 38.0799 155.697 38.3997 155.579C38.6612 155.481 38.8956 155.322 39.0834 155.115C39.2712 154.908 39.407 154.659 39.4796 154.389C39.5814 154.066 39.6287 153.728 39.6196 153.389C39.6278 153.077 39.5804 152.765 39.4796 152.469C39.3985 152.21 39.262 151.971 39.0797 151.769C38.8917 151.57 38.6585 151.419 38.3997 151.329C38.0781 151.219 37.7393 151.169 37.3997 151.179H35.8896V155.739Z" fill="#808283"/>
<path d="M46 157.08V162H44V149.39H47.3C47.9436 149.379 48.5848 149.47 49.2 149.66C49.68 149.812 50.1204 150.068 50.49 150.41C50.8273 150.726 51.0814 151.121 51.23 151.56C51.3913 152.032 51.4691 152.53 51.46 153.03C51.4622 153.435 51.4084 153.839 51.3 154.23C51.1964 154.584 51.0414 154.92 50.84 155.23C50.6423 155.544 50.388 155.818 50.09 156.04C49.7871 156.276 49.4499 156.465 49.09 156.6C49.3572 156.792 49.5819 157.037 49.75 157.32L52.42 162H50.61C50.452 162 50.2967 161.959 50.16 161.88C50.0305 161.789 49.9242 161.669 49.85 161.53L47.58 157.53C47.5177 157.399 47.4208 157.289 47.3 157.21C47.1617 157.136 47.0063 157.102 46.85 157.11L46 157.08ZM46 155.4H47.26C47.6012 155.408 47.9409 155.351 48.26 155.23C48.5232 155.127 48.7617 154.971 48.96 154.77C49.1419 154.57 49.2814 154.335 49.37 154.08C49.4619 153.795 49.5091 153.498 49.51 153.2C49.5249 152.929 49.4847 152.658 49.3919 152.404C49.299 152.15 49.1555 151.917 48.97 151.72C48.5036 151.341 47.9085 151.158 47.31 151.21H46V155.4Z" fill="#808283"/>
<path d="M64.4803 155.7C64.488 156.573 64.3529 157.441 64.0803 158.27C63.8312 158.999 63.4517 159.677 62.9603 160.27C62.4891 160.841 61.8986 161.302 61.2303 161.62C60.5258 161.936 59.7624 162.1 58.9903 162.1C58.2181 162.1 57.4547 161.936 56.7503 161.62C56.0784 161.321 55.4809 160.877 55.0003 160.32C54.5089 159.727 54.1294 159.049 53.8803 158.32C53.3472 156.648 53.3472 154.852 53.8803 153.18C54.1294 152.451 54.5089 151.773 55.0003 151.18C55.7504 150.311 56.7634 149.71 57.8858 149.468C59.0082 149.226 60.1788 149.357 61.2203 149.84C61.8954 150.126 62.5021 150.552 63.0003 151.09C63.4917 151.683 63.8712 152.361 64.1203 153.09C64.3929 153.919 64.528 154.787 64.5203 155.66M62.4603 155.66C62.4705 155.032 62.3896 154.405 62.2203 153.8C62.0863 153.294 61.8553 152.818 61.5403 152.4C61.2598 152.021 60.8884 151.718 60.4603 151.52C60.0152 151.316 59.53 151.213 59.0403 151.22C58.5474 151.214 58.0593 151.317 57.6103 151.52C57.1874 151.727 56.8178 152.028 56.5303 152.4C56.2152 152.818 55.9843 153.294 55.8503 153.8C55.5304 155.02 55.5304 156.301 55.8503 157.52C55.9905 158.024 56.2209 158.498 56.5303 158.92C56.8208 159.29 57.1897 159.59 57.6103 159.8C58.0571 160.011 58.5462 160.117 59.0403 160.11C59.5313 160.119 60.0175 160.012 60.4603 159.8C60.8489 159.611 61.1905 159.338 61.4603 159C61.7696 158.578 62 158.104 62.1403 157.6C62.3096 156.995 62.3905 156.369 62.3803 155.74" fill="#808283"/>
<path d="M68.9004 157.569V161.999H66.9004V149.399H70.4204C71.0598 149.388 71.6962 149.49 72.3004 149.699C72.792 149.878 73.239 150.161 73.6104 150.529C73.9605 150.89 74.2209 151.329 74.3704 151.809C74.7101 152.883 74.7101 154.035 74.3704 155.109C74.2101 155.598 73.9438 156.045 73.5904 156.419C73.2222 156.799 72.7749 157.092 72.2804 157.279C71.69 157.489 71.0668 157.59 70.4404 157.579H68.9004V157.569ZM68.9004 155.739H70.4104C70.751 155.751 71.0906 155.697 71.4104 155.579C71.672 155.481 71.9063 155.322 72.0941 155.115C72.2819 154.908 72.4178 154.659 72.4904 154.389C72.5921 154.066 72.6394 153.728 72.6304 153.389C72.6386 153.077 72.5912 152.765 72.4904 152.469C72.4092 152.21 72.2728 151.971 72.0904 151.769C71.9025 151.57 71.6692 151.419 71.4104 151.329C71.0888 151.219 70.75 151.169 70.4104 151.179H68.9004V155.739Z" fill="#808283"/>
<path d="M83.7399 149.4V151.26H78.9499V154.76H82.7299V156.57H78.9499V160.14H83.7399V162.01H76.9199V149.4H83.7399Z" fill="#808283"/>
<path d="M88.3203 157.08V162H86.3203V149.39H89.6203C90.2639 149.379 90.9052 149.47 91.5203 149.66C92.0003 149.812 92.4408 150.068 92.8103 150.41C93.1476 150.726 93.4017 151.121 93.5503 151.56C93.7116 152.032 93.7894 152.53 93.7803 153.03C93.7825 153.435 93.7287 153.839 93.6203 154.23C93.5167 154.584 93.3617 154.92 93.1603 155.23C92.9626 155.544 92.7083 155.818 92.4103 156.04C92.1074 156.276 91.7702 156.465 91.4103 156.6C91.6775 156.792 91.9022 157.037 92.0703 157.32L94.7403 162H92.9303C92.7723 162 92.617 161.959 92.4803 161.88C92.3508 161.789 92.2445 161.669 92.1703 161.53L89.9003 157.53C89.838 157.399 89.7411 157.289 89.6203 157.21C89.482 157.136 89.3266 157.102 89.1703 157.11L88.3203 157.08ZM88.3203 155.4H89.5803C89.9215 155.408 90.2612 155.351 90.5803 155.23C90.8435 155.127 91.0821 154.971 91.2803 154.77C91.4622 154.57 91.6017 154.335 91.6903 154.08C91.7822 153.795 91.8294 153.498 91.8303 153.2C91.8452 152.929 91.805 152.658 91.7122 152.404C91.6194 152.15 91.4758 151.917 91.2903 151.72C90.8239 151.341 90.2288 151.158 89.6303 151.21H88.3303V155.4H88.3203Z" fill="#808283"/>
<path d="M103.99 149.4V151.32H100.74V162.01H98.73V151.32H95.46V149.4H103.99Z" fill="#808283"/>
<path d="M110.83 157.109V161.999H108.83V157.099L104.83 149.389H106.6C106.754 149.382 106.905 149.436 107.02 149.539C107.13 149.648 107.218 149.777 107.28 149.919L109.28 154.129C109.4 154.379 109.5 154.619 109.58 154.839C109.66 155.059 109.74 155.279 109.81 155.499C109.87 155.279 109.95 155.059 110.03 154.829C110.11 154.599 110.22 154.359 110.33 154.129L112.33 149.919C112.386 149.782 112.471 149.659 112.58 149.559C112.635 149.505 112.701 149.462 112.773 149.432C112.845 149.403 112.922 149.389 113 149.389H114.78L110.83 157.109Z" fill="#808283"/>
<path d="M129.81 155.701C129.818 156.567 129.683 157.429 129.41 158.251C129.169 158.981 128.792 159.66 128.3 160.251C127.825 160.805 127.235 161.249 126.57 161.551C125.867 161.868 125.102 162.025 124.33 162.011H120.2V149.401H124.33C125.102 149.391 125.867 149.551 126.57 149.871C127.235 150.173 127.825 150.616 128.3 151.171C128.8 151.757 129.177 152.437 129.41 153.171C129.687 153.989 129.822 154.848 129.81 155.711M127.75 155.711C127.76 155.083 127.68 154.456 127.51 153.851C127.37 153.347 127.14 152.873 126.83 152.451C126.546 152.079 126.18 151.778 125.76 151.571C125.312 151.364 124.824 151.259 124.33 151.261H122.23V160.141H124.33C124.824 160.148 125.313 160.042 125.76 159.831C126.184 159.63 126.551 159.328 126.83 158.951C127.14 158.529 127.37 158.055 127.51 157.551C127.68 156.953 127.76 156.333 127.75 155.711Z" fill="#808283"/>
<path d="M138.96 149.4V151.26H134.16V154.76H137.94V156.57H134.16V160.14H138.96V162.01H132.14V149.4H138.96Z" fill="#808283"/>
<path d="M140.39 149.399H142C142.157 149.392 142.311 149.445 142.43 149.549C142.542 149.658 142.628 149.791 142.68 149.939L145.22 157.629C145.3 157.879 145.39 158.149 145.46 158.449C145.53 158.749 145.61 159.069 145.68 159.449C145.778 158.849 145.922 158.257 146.11 157.679L148.65 149.989C148.698 149.848 148.781 149.721 148.89 149.619C149.006 149.51 149.16 149.449 149.32 149.449H151L146.58 161.999H144.76L140.39 149.399Z" fill="#808283"/>
<path d="M159.65 149.4V151.26H154.85V154.76H158.63V156.57H154.85V160.14H159.65V162.01H152.83V149.4H159.65Z" fill="#808283"/>
<path d="M164.16 160.07H168.49V162.01H162.14V149.4H164.16V160.07Z" fill="#808283"/>
<path d="M180.41 155.7C180.417 156.573 180.282 157.441 180.01 158.27C179.761 158.999 179.381 159.677 178.89 160.27C178.419 160.841 177.828 161.302 177.16 161.62C176.455 161.936 175.692 162.1 174.92 162.1C174.148 162.1 173.384 161.936 172.68 161.62C172.007 161.305 171.412 160.844 170.94 160.27C170.448 159.677 170.069 158.999 169.82 158.27C169.287 156.598 169.287 154.802 169.82 153.13C170.069 152.401 170.448 151.723 170.94 151.13C171.426 150.548 172.034 150.08 172.721 149.759C173.408 149.438 174.157 149.271 174.915 149.271C175.673 149.271 176.422 149.438 177.109 149.759C177.796 150.08 178.404 150.548 178.89 151.13C179.381 151.723 179.761 152.401 180.01 153.13C180.282 153.959 180.417 154.827 180.41 155.7ZM178.34 155.7C178.35 155.072 178.269 154.445 178.1 153.84C177.966 153.334 177.735 152.858 177.42 152.44C177.139 152.061 176.768 151.758 176.34 151.56C175.895 151.356 175.409 151.253 174.92 151.26C174.427 151.254 173.939 151.357 173.49 151.56C173.067 151.766 172.697 152.068 172.41 152.44C172.095 152.858 171.864 153.334 171.73 153.84C171.41 155.059 171.41 156.341 171.73 157.56C171.87 158.064 172.1 158.538 172.41 158.96C172.7 159.33 173.069 159.63 173.49 159.84C173.937 160.051 174.426 160.157 174.92 160.15C175.411 160.158 175.897 160.052 176.34 159.84C176.768 159.642 177.139 159.339 177.42 158.96C177.729 158.538 177.959 158.064 178.1 157.56C178.27 156.955 178.351 156.328 178.34 155.7Z" fill="#808283"/>
<path d="M184.82 157.569V161.999H182.82V149.399H186.34C186.98 149.388 187.616 149.49 188.22 149.699C188.712 149.878 189.159 150.161 189.53 150.529C189.88 150.89 190.141 151.329 190.29 151.809C190.63 152.883 190.63 154.035 190.29 155.109C190.13 155.598 189.864 156.045 189.51 156.419C189.14 156.796 188.694 157.09 188.2 157.279C187.61 157.489 186.987 157.59 186.36 157.579H184.82V157.569ZM184.82 155.739H186.33C186.671 155.751 187.011 155.697 187.33 155.579C187.592 155.481 187.826 155.322 188.014 155.115C188.202 154.908 188.338 154.659 188.41 154.389C188.512 154.066 188.559 153.728 188.55 153.389C188.558 153.077 188.511 152.765 188.41 152.469C188.329 152.21 188.193 151.971 188.01 151.769C187.822 151.57 187.589 151.419 187.33 151.329C187.009 151.219 186.67 151.169 186.33 151.179H184.82V155.739Z" fill="#808283"/>
<path d="M198.51 157.36L198.72 157.97C198.79 157.76 198.86 157.55 198.94 157.35L199.18 156.76L202.38 149.76C202.413 149.686 202.453 149.616 202.5 149.55L202.64 149.44H204.57V162H202.8V152.8L199.57 160C199.51 160.151 199.409 160.282 199.28 160.38C199.159 160.471 199.012 160.52 198.86 160.52H198.58C198.428 160.529 198.277 160.479 198.16 160.38C198.031 160.282 197.931 160.151 197.87 160L194.55 152.82V162H192.78V149.4H194.71L194.86 149.51C194.913 149.574 194.957 149.645 194.99 149.72L198.22 156.72C198.311 156.913 198.391 157.11 198.46 157.31" fill="#808283"/>
<path d="M214.34 149.4V151.26H209.54V154.76H213.32V156.57H209.54V160.14H214.34V162.01H207.51V149.4H214.34Z" fill="#808283"/>
<path d="M218.11 149.41L218.27 149.46L218.41 149.57L218.56 149.77L224.24 158.21V149.4H226V162H225C224.862 162.001 224.725 161.97 224.6 161.91C224.475 161.831 224.369 161.725 224.29 161.6L218.63 153.2C218.64 153.383 218.64 153.567 218.63 153.75V162H216.86V149.4H217.92C217.997 149.39 218.074 149.39 218.15 149.4" fill="#808283"/>
<path d="M236.52 149.4V151.32H233.26V162.01H231.25V151.32H227.98V149.4H236.52Z" fill="#808283"/>
<path d="M377.21 159.489C376.269 159.028 375.253 158.74 374.21 158.639C373.706 158.558 373.213 158.42 372.74 158.229C372.36 158.049 372.19 157.859 372.2 157.659C372.2 157.299 372.79 156.549 373.64 155.919C374.32 155.364 375.147 155.016 376.02 154.919C376.31 154.919 376.75 155.389 377.02 156.619V156.769H377.47V156.689C377.789 156.159 378.012 155.577 378.13 154.969C378.107 154.454 377.974 153.949 377.74 153.489C377.64 153.231 377.465 153.01 377.236 152.854C377.007 152.699 376.737 152.617 376.46 152.619C374.932 152.88 373.529 153.627 372.46 154.749C371.912 155.245 371.471 155.847 371.165 156.52C370.859 157.192 370.694 157.92 370.68 158.659C370.68 158.933 370.735 159.203 370.844 159.454C370.952 159.706 371.111 159.932 371.31 160.119C372.182 160.696 373.195 161.021 374.24 161.059C374.804 161.128 375.36 161.252 375.9 161.429L376.39 161.669L376.5 161.809C376.337 162.007 376.145 162.179 375.93 162.319C375.529 162.61 375.112 162.877 374.68 163.119C373.42 163.828 372.014 164.239 370.57 164.319C368.06 164.319 366.18 162.889 366.17 160.229C366.191 159.376 366.35 158.532 366.64 157.729L366.71 157.529L365.93 157.289H365.8L365.74 157.429C365.241 158.553 364.988 159.77 365 160.999C364.934 162.46 365.427 163.89 366.38 164.999C366.922 165.543 367.573 165.965 368.29 166.239C369.007 166.513 369.774 166.633 370.54 166.589C372.79 166.475 374.936 165.605 376.63 164.119C377.404 163.353 377.876 162.335 377.96 161.249C377.979 160.914 377.921 160.578 377.791 160.268C377.661 159.958 377.462 159.681 377.21 159.459V159.489Z" fill="#808283"/>
<path d="M385 154.509V154.439H384.74L384.68 154.529C384.29 155.139 383.93 155.739 383.57 156.379L383.51 156.489L383.58 156.599C384.277 157.612 384.893 158.679 385.42 159.789L385.61 160.489L385.46 161.059C384.46 163.169 382.27 164.909 380.17 164.919C379.6 164.919 379.033 164.831 378.49 164.659H378.34L378.12 165.319L378.06 165.489L378.21 165.559C379.458 166.235 380.842 166.624 382.26 166.699C382.774 166.659 383.275 166.516 383.734 166.279C384.193 166.042 384.599 165.716 384.93 165.319C386.08 164.198 386.79 162.7 386.93 161.099V159.479C386.938 158.46 386.661 157.459 386.13 156.589L385 154.509Z" fill="#808283"/>
<path d="M409.82 151.359L409.92 151.449L410.02 151.359C410.475 150.95 410.878 150.486 411.22 149.979L411.29 149.889C411.8 150.299 412.29 150.689 412.81 151.169L412.91 151.259L413.01 151.169C413.465 150.76 413.868 150.296 414.21 149.789L414.31 149.649L414.19 149.529C413.639 148.95 413.04 148.418 412.4 147.939L412.3 147.859L412.21 147.949C411.768 148.393 411.354 148.864 410.97 149.359L410.91 149.439C410.445 148.965 409.947 148.524 409.42 148.119L409.32 148.039L409.23 148.129C408.788 148.573 408.374 149.044 407.99 149.539L407.87 149.699L408.02 149.819C408.63 150.319 409.19 150.819 409.82 151.359Z" fill="#808283"/>
<path d="M369 171.391L369.1 171.481L369.2 171.391C369.654 170.981 370.057 170.518 370.4 170.011L370.47 169.921C370.98 170.331 371.47 170.721 371.99 171.201L372.09 171.291L372.19 171.201C372.644 170.791 373.047 170.328 373.39 169.821L373.49 169.681L373.37 169.561C372.819 168.981 372.22 168.449 371.58 167.971L371.48 167.891L371.39 167.981C370.948 168.424 370.533 168.895 370.15 169.391L370.09 169.471C369.624 168.997 369.126 168.556 368.6 168.151L368.5 168.071L368.41 168.161C367.968 168.604 367.553 169.075 367.17 169.571L367.05 169.731L367.2 169.851C367.81 170.351 368.37 170.851 369 171.391Z" fill="#808283"/>
<path d="M444.16 147.23V147.05L444.08 146.99L443.97 146.92L443.88 146.86L443.79 146.93C443.481 147.182 443.191 147.456 442.92 147.75C442.612 148.039 442.429 148.438 442.41 148.86C442.41 149.43 442.5 150.04 442.57 150.72C442.82 153.42 442.98 155.98 443.02 158.32C443.049 158.601 442.995 158.883 442.866 159.134C442.736 159.384 442.536 159.591 442.29 159.73C441.773 159.99 441.2 160.12 440.62 160.11H433.45C432.334 160.117 431.231 159.874 430.22 159.4L432.75 157.18L433.31 155.53L433.37 155.35L433.21 155.29C431.75 154.772 430.21 154.518 428.66 154.54C427.254 154.562 425.854 154.727 424.48 155.03L424 155.09H423.9L423.26 156.88L423.2 157.03L423.37 157.14H423.9C424.28 157.238 424.626 157.439 424.9 157.72C425.534 158.331 426.202 158.905 426.9 159.44C425.708 159.908 424.431 160.123 423.15 160.07H415.8C415.071 160.082 414.343 160.008 413.63 159.85C414.241 158.864 414.569 157.73 414.58 156.57C414.568 155.799 414.354 155.044 413.96 154.38C413.37 153.31 412.67 152.67 411.96 152.66C411.008 152.841 410.145 153.338 409.51 154.07C409.042 154.542 408.673 155.103 408.424 155.719C408.175 156.335 408.051 156.995 408.06 157.66C408.029 158.384 408.184 159.104 408.51 159.75C407.776 159.925 407.025 160.025 406.27 160.05H393.37C393.051 160.05 392.734 160 392.43 159.9C392.12 159.828 391.846 159.649 391.654 159.395C391.462 159.141 391.365 158.828 391.38 158.51V157.67C391.38 154.06 391.38 150.25 391.13 147.02V146.91L390.94 146.8L390.85 146.75L390.77 146.81C390.242 147.23 389.747 147.692 389.29 148.19L389.23 148.25V148.34C389.46 151.45 389.63 154.34 389.63 157.15C389.63 159.29 389.63 160.43 390.63 161.41C391.008 161.735 391.447 161.98 391.921 162.131C392.395 162.283 392.895 162.337 393.39 162.29H406.26C407.78 162.212 409.278 161.898 410.7 161.36C412.328 161.948 414.041 162.262 415.77 162.29H422.91C424.867 162.32 426.781 161.721 428.37 160.58C429.889 161.667 431.703 162.263 433.57 162.29H440.47C441.163 162.289 441.847 162.132 442.47 161.83C443.171 161.442 443.702 160.807 443.96 160.05C444.461 158.859 444.68 157.569 444.6 156.28C444.6 154.67 444.47 152.93 444.4 151.28C444.719 151.067 445.023 150.833 445.31 150.58L445.44 150.47L445.35 150.32C444.658 149.42 444.235 148.341 444.13 147.21M412.58 158.57C412.12 158.898 411.601 159.132 411.05 159.26C410.596 159.176 410.173 158.968 409.829 158.66C409.485 158.351 409.233 157.953 409.1 157.51C409.37 156.51 410.5 155.22 411.59 155.24C412.13 155.24 412.59 155.71 412.98 156.47C413.191 156.844 413.311 157.261 413.33 157.69C413.19 158.062 412.925 158.373 412.58 158.57ZM426.83 157.24L426.18 156.65C427.007 156.509 427.842 156.432 428.68 156.42C429.529 156.43 430.374 156.53 431.2 156.72C430.4 157.414 429.559 158.058 428.68 158.65C428.032 158.223 427.414 157.752 426.83 157.24Z" fill="#808283"/>
<path d="M449.37 147.39V147.26L449.12 147.18H449L448.93 147.24C448.372 147.721 447.857 148.25 447.39 148.82L447.34 148.88V149C447.59 151.54 447.89 155.44 447.89 158.12V159.56C447.918 160.529 447.861 161.5 447.72 162.46V162.61L448.04 162.78H448.14L448.22 162.7C448.989 162.083 449.493 161.196 449.63 160.22C449.711 159.409 449.748 158.594 449.74 157.78C449.79 154.319 449.66 150.857 449.35 147.41" fill="#808283"/>
<path d="M480.15 162.37C482.53 162.37 483.67 162.16 484.43 161.44C485.131 160.649 485.531 159.636 485.56 158.58C485.417 156.95 484.882 155.378 484 154L483.95 153.92H483.71V154C483.267 154.527 482.872 155.093 482.53 155.69L482.47 155.79V155.89C483.166 156.977 483.683 158.169 484 159.42L483.84 159.61L483.23 159.89C482.247 160.12 481.238 160.211 480.23 160.16H467.23C465.51 160.16 464.78 159.1 463.89 157.09L463.84 156.97H463.54V157C463.27 157.49 462.99 158 462.68 158.71V158.8V158.89C463.065 159.666 463.52 160.406 464.04 161.1L464.41 161.69C464.078 162.8 463.427 163.788 462.538 164.531C461.649 165.275 460.561 165.74 459.41 165.87C458.821 165.895 458.233 165.789 457.69 165.56L457.55 165.5L457.25 166.15L457.17 166.33L457.33 166.41C458.545 167.082 459.894 167.478 461.28 167.57C462.51 167.57 463.88 166.64 465.13 164.57C465.549 163.846 465.773 163.026 465.78 162.19V162C466.211 162.277 466.718 162.413 467.23 162.39H480.12L480.15 162.37Z" fill="#808283"/>
<path d="M532.66 154.891L532.76 154.981L532.86 154.891C533.315 154.481 533.717 154.018 534.06 153.511L534.13 153.421C534.64 153.821 535.13 154.221 535.65 154.701L535.75 154.791L535.85 154.701C536.303 154.286 536.708 153.824 537.06 153.321L537.16 153.181L537.04 153.061C536.489 152.481 535.89 151.949 535.25 151.471L535.15 151.391L535.06 151.481C534.615 151.922 534.201 152.393 533.82 152.891L533.76 152.971C533.299 152.492 532.801 152.05 532.27 151.651L532.16 151.571L532.07 151.661C531.628 152.104 531.214 152.575 530.83 153.071L530.71 153.231L530.86 153.351C531.47 153.851 532.02 154.351 532.66 154.891Z" fill="#808283"/>
<path d="M560.68 147.239V147.049L560.59 146.989L560.48 146.919L560.39 146.859L560.3 146.929C559.991 147.181 559.7 147.456 559.43 147.749C559.122 148.038 558.939 148.437 558.92 148.859C558.92 149.429 559.02 150.049 559.08 150.719C559.33 153.419 559.5 155.979 559.53 158.319C559.559 158.6 559.505 158.882 559.375 159.133C559.246 159.383 559.046 159.59 558.8 159.729C558.286 159.99 557.716 160.12 557.14 160.109H550.4C548.65 160.109 548.28 159.189 548.27 158.619C548.27 154.129 548.27 150.519 547.96 147.059V146.939L547.78 146.869H547.69L546.24 148.259L546.18 148.319L546.23 149.149C546.46 152.529 546.63 155.149 546.63 158.149C546.63 159.149 546.38 159.509 545.98 159.739C545.445 160.018 544.853 160.168 544.25 160.179H537.45C536.795 160.21 536.149 160.016 535.62 159.629C535.464 159.503 535.342 159.34 535.265 159.155C535.188 158.97 535.159 158.768 535.18 158.569C535.229 158.012 535.34 157.462 535.51 156.929V156.819L535.34 156.639L535.25 156.539L534.07 157.349H534L533.53 158.999C533.37 159.679 532.19 160.179 531.02 160.159H523.9C523.461 160.186 523.02 160.186 522.58 160.159C522.985 159.566 523.224 158.876 523.27 158.159C523.254 157.144 522.839 156.176 522.115 155.465C521.391 154.754 520.415 154.356 519.4 154.359C518.345 154.367 517.31 154.653 516.4 155.189C515.307 155.853 514.299 156.649 513.4 157.559C513.661 156.769 513.789 155.941 513.78 155.109C513.78 153.549 513.72 151.999 513.64 150.449L514.57 149.769L514.72 149.659L514.61 149.499C513.898 148.599 513.452 147.519 513.32 146.379V146.289L513.15 146.129L513.06 146.039L512.96 146.109C512.19 146.669 511.68 147.179 511.67 147.959C511.678 148.447 511.712 148.934 511.77 149.419C511.94 151.079 512.16 154.229 512.16 156.139C512.217 157.085 512.143 158.034 511.94 158.959L510.84 160.209H496.26C495.79 157.209 494.34 155.319 492.8 155.299C492.294 155.328 491.802 155.477 491.366 155.735C490.929 155.992 490.56 156.35 490.29 156.779C489.743 157.489 489.451 158.363 489.46 159.259C489.431 159.745 489.536 160.229 489.764 160.659C489.991 161.09 490.332 161.449 490.75 161.699C491.881 162.273 493.144 162.536 494.41 162.459H494.89C494.59 163.119 494.15 163.706 493.6 164.179C493.067 164.776 492.42 165.261 491.697 165.605C490.974 165.948 490.19 166.143 489.39 166.179C488.623 166.192 487.864 166.017 487.18 165.669L487.05 165.599L486.71 166.219L486.62 166.389L486.78 166.479C488.141 167.357 489.704 167.873 491.32 167.979C492.111 167.846 492.864 167.547 493.531 167.103C494.198 166.658 494.763 166.077 495.19 165.399C495.81 164.527 496.211 163.519 496.36 162.459H511C513.702 162.518 516.404 162.36 519.08 161.989C520.729 162.3 522.403 162.458 524.08 162.459H531C531.6 162.497 532.2 162.384 532.745 162.131C533.29 161.878 533.762 161.492 534.12 161.009C534.473 161.524 534.962 161.932 535.531 162.188C536.101 162.443 536.73 162.537 537.35 162.459H544.18C544.766 162.482 545.348 162.357 545.873 162.094C546.397 161.832 546.847 161.442 547.18 160.959C547.499 161.47 547.954 161.882 548.495 162.147C549.036 162.412 549.641 162.52 550.24 162.459H557C557.692 162.452 558.374 162.295 559 161.999C559.7 161.611 560.231 160.977 560.49 160.219C560.991 159.028 561.21 157.738 561.13 156.449C561.13 154.839 560.99 153.099 560.93 151.449C561.248 151.236 561.552 151.002 561.84 150.749L561.97 150.639L561.88 150.489C561.178 149.588 560.748 148.506 560.64 147.369M492.32 159.899C491.37 159.639 490.74 159.209 490.76 158.629C490.783 158.483 490.837 158.343 490.92 158.22C491.003 158.097 491.112 157.994 491.24 157.919C491.558 157.67 491.947 157.53 492.35 157.519C492.644 157.537 492.931 157.614 493.194 157.747C493.457 157.879 493.691 158.064 493.88 158.289C494.359 158.8 494.703 159.422 494.88 160.099C494.035 160.143 493.188 160.076 492.36 159.899M519.08 159.839C517.335 160.049 515.578 160.139 513.82 160.109H512.82C515.08 157.849 516.82 156.619 518.61 156.619C519.4 156.616 520.169 156.881 520.79 157.369C521.032 157.544 521.233 157.768 521.382 158.026C521.53 158.285 521.621 158.572 521.65 158.869C520.93 159.488 520.019 159.841 519.07 159.869" fill="#808283"/>
<path d="M66.7202 111.85C66.8494 113.932 66.2008 115.988 64.9002 117.62C64.246 118.308 63.4481 118.845 62.5632 119.19C61.6783 119.536 60.7281 119.683 59.7802 119.62C58.5997 119.648 57.4298 119.391 56.3702 118.87C55.4266 118.406 54.643 117.672 54.1202 116.76L49.4902 120.09C50.6247 121.661 52.1383 122.92 53.8902 123.75C55.732 124.627 57.7501 125.072 59.7902 125.05C63.7902 125.05 66.8936 123.893 69.1002 121.58C71.3069 119.266 72.4036 116.01 72.3902 111.81V84.3496H66.7302V111.85H66.7202Z" fill="#4E245D"/>
<path d="M90.8104 84.3496H85.1504V124.69H90.8104V84.3496Z" fill="#4E245D"/>
<path d="M127.66 114.49L108.6 84.3496H103.47V124.66H109.08V94.9896L128.08 124.66H133.27V84.3496H127.66V114.49Z" fill="#4E245D"/>
<path d="M156.51 84.3496L141.64 124.69H147.74L150.74 115.84H167L170 124.69H176.1L161.33 84.3496H156.51ZM152.64 110.46L158.93 92.1496L165.22 110.46H152.64Z" fill="#4E245D"/>
<path d="M209.18 84.3496V114.48L190.12 84.3496H184.98V124.67H190.59V94.9896L209.59 124.67H214.78V84.3496H209.18Z" fill="#4E245D"/>
<path d="M395.77 89.9099C396.271 90.3468 396.83 90.7135 397.43 90.9998C397.772 91.1595 398.142 91.2512 398.52 91.2698C399.054 91.2579 399.566 91.0517 399.96 90.6898C400.482 90.2411 400.937 89.719 401.31 89.1398C401.681 88.6657 401.999 88.1527 402.26 87.6098C402.43 87.2704 402.529 86.8993 402.55 86.5198C402.53 85.9681 402.338 85.4365 402 84.9998C401.566 84.4375 401.058 83.9363 400.49 83.5098C399.972 83.0899 399.416 82.7183 398.83 82.3998C398.481 82.2125 398.095 82.1065 397.7 82.0898C397.178 82.1069 396.681 82.313 396.3 82.6698C395.799 83.0994 395.361 83.5977 395 84.1498C394.649 84.6371 394.344 85.156 394.09 85.6998C393.909 86.0889 393.81 86.511 393.8 86.9398C393.822 87.4725 394.007 87.9855 394.33 88.4099C394.741 88.9688 395.221 89.4729 395.76 89.9099" fill="#4E245D"/>
<path d="M465.19 93.9995C465.694 94.4394 466.252 94.8125 466.85 95.1095C467.193 95.2691 467.563 95.3608 467.94 95.3794C468.475 95.3675 468.987 95.1613 469.38 94.7995C469.903 94.3507 470.358 93.8286 470.73 93.2495C471.102 92.7753 471.42 92.2623 471.68 91.7195C471.851 91.38 471.95 91.0089 471.97 90.6294C471.963 90.0758 471.777 89.5394 471.44 89.0994C471.006 88.5371 470.499 88.0359 469.93 87.6095C469.412 87.1895 468.857 86.8179 468.27 86.4995C467.922 86.3121 467.536 86.2062 467.14 86.1895C466.619 86.2065 466.121 86.4126 465.74 86.7694C465.24 87.1984 464.799 87.6928 464.43 88.2394C464.08 88.7267 463.775 89.2457 463.52 89.7895C463.34 90.1785 463.241 90.6006 463.23 91.0294C463.253 91.5621 463.438 92.0751 463.76 92.4995C464.182 93.0493 464.661 93.5522 465.19 93.9995Z" fill="#4E245D"/>
<path d="M518.52 130.43C518.002 130.01 517.446 129.638 516.86 129.32C516.512 129.132 516.126 129.026 515.73 129.01C515.209 129.027 514.711 129.233 514.33 129.59C513.832 130.021 513.392 130.515 513.02 131.06C512.662 131.542 512.357 132.062 512.11 132.61C511.93 132.999 511.831 133.421 511.82 133.85C511.843 134.382 512.028 134.895 512.35 135.32C512.763 135.877 513.239 136.384 513.77 136.83C514.274 137.27 514.831 137.643 515.43 137.94C515.773 138.099 516.143 138.191 516.52 138.21C517.055 138.198 517.567 137.992 517.96 137.63C518.48 137.178 518.934 136.657 519.31 136.08C519.699 135.609 520.035 135.095 520.31 134.55C520.481 134.21 520.58 133.839 520.6 133.46C520.588 132.907 520.402 132.372 520.07 131.93C519.648 131.358 519.143 130.852 518.57 130.43" fill="#4E245D"/>
<path d="M413.78 93.8197C413.54 93.3797 413.32 92.9897 413.11 92.6697C413.037 92.5309 412.93 92.413 412.799 92.3272C412.667 92.2415 412.516 92.1907 412.36 92.1797C412.15 92.1797 411.91 92.3497 411.63 92.6897C411.312 93.0895 411.037 93.5219 410.81 93.9797C410.539 94.5323 410.308 95.1038 410.12 95.6897C409.939 96.249 409.841 96.8319 409.83 97.4197C409.821 97.6677 409.858 97.9153 409.94 98.1497C410.03 98.3728 410.14 98.5871 410.27 98.7897C412.245 102.271 413.774 105.987 414.82 109.85C415.327 111.706 415.692 113.598 415.91 115.51C416.12 117.227 416.12 118.963 415.91 120.68C415.021 122.227 413.818 123.573 412.38 124.63C410.873 125.76 409.226 126.691 407.48 127.4C405.71 128.111 403.875 128.647 402 129C400.292 129.352 398.554 129.536 396.81 129.55C394.828 129.57 392.854 129.3 390.95 128.75C389.261 128.268 387.696 127.429 386.36 126.29C385.038 125.142 384.01 123.695 383.36 122.07C382.607 120.14 382.243 118.081 382.29 116.01C382.291 114.62 382.449 113.234 382.76 111.88C383.07 110.55 383.4 109.35 383.76 108.28C384.12 107.21 384.45 106.28 384.76 105.59C384.991 105.137 385.149 104.651 385.23 104.15C385.226 104.025 385.186 103.904 385.115 103.801C385.044 103.698 384.945 103.618 384.83 103.57C384.498 103.407 384.13 103.331 383.76 103.35C383.291 103.302 382.821 103.438 382.45 103.73C382.097 104.136 381.804 104.591 381.58 105.08C380.477 107.288 379.612 109.608 379 112C378.344 114.477 378.008 117.027 378 119.59C378.002 121.512 378.278 123.425 378.82 125.27C379.368 127.162 380.332 128.907 381.64 130.38C383.119 132.013 384.952 133.286 387 134.1C389.667 135.128 392.513 135.611 395.37 135.52C397.756 135.537 400.137 135.293 402.47 134.79C404.539 134.35 406.551 133.679 408.47 132.79C410.179 131.993 411.782 130.985 413.24 129.79C414.571 128.682 415.751 127.404 416.75 125.99C417.58 124.358 418.25 122.65 418.75 120.89C419.298 119.059 419.581 117.16 419.59 115.25C419.58 111.661 419.11 108.088 418.19 104.62C417.163 100.866 415.664 97.257 413.73 93.8797" fill="#4E245D"/>
<path d="M539.73 108.639C538.057 108.639 536.387 108.529 534.73 108.309C533.073 108.082 531.433 107.748 529.82 107.309C528.146 106.849 526.393 106.273 524.56 105.579C522.726 104.886 520.7 104.079 518.48 103.159L514.48 101.579C513.25 101.089 512.07 100.659 510.93 100.289C509.839 99.9292 508.727 99.6386 507.6 99.4193C506.525 99.2113 505.434 99.1075 504.34 99.1093C502.534 99.0689 500.748 99.4888 499.15 100.329C497.428 101.401 496.02 102.908 495.07 104.699C494.948 104.859 494.872 105.049 494.85 105.249C494.83 105.522 494.83 105.796 494.85 106.069C494.831 106.341 494.869 106.613 494.96 106.869C494.994 106.925 495.043 106.971 495.101 107.003C495.159 107.035 495.224 107.05 495.29 107.049C495.657 107.042 496.01 106.908 496.29 106.669C496.683 106.373 497.097 106.105 497.53 105.869C498.167 105.534 498.837 105.266 499.53 105.069C500.616 104.789 501.737 104.661 502.86 104.689C504.566 104.691 506.266 104.906 507.92 105.329C509.65 105.772 511.356 106.306 513.03 106.929C514.75 107.569 516.49 108.249 518.27 108.929C520.05 109.609 521.87 110.299 523.73 110.859V111.079C521.81 111.729 520.02 112.389 518.38 113.079L513.59 114.999C512.036 115.619 510.46 116.213 508.86 116.779C507.162 117.369 505.428 117.85 503.67 118.219C501.649 118.663 499.606 118.997 497.55 119.219C495.041 119.469 492.521 119.589 490 119.579H482.17C479.822 119.7 477.511 118.96 475.67 117.499C473.939 115.916 472.895 113.721 472.76 111.379C472.88 110.879 473.02 110.309 473.18 109.689L473.65 107.889C473.8 107.309 473.92 106.769 474.03 106.269C474.119 105.875 474.17 105.473 474.18 105.069C474.186 104.972 474.171 104.874 474.136 104.783C474.102 104.691 474.048 104.608 473.98 104.539C473.887 104.456 473.777 104.393 473.658 104.355C473.539 104.317 473.414 104.305 473.29 104.319C472.779 104.308 472.267 104.331 471.76 104.389C471.477 104.411 471.2 104.478 470.94 104.589C470.856 104.624 470.781 104.675 470.719 104.741C470.657 104.806 470.609 104.884 470.58 104.969C470.513 105.169 470.453 105.369 470.4 105.569C470.13 106.629 469.85 107.719 469.56 108.829C469.304 109.903 468.987 110.962 468.61 111.999C468.299 112.929 467.922 113.835 467.48 114.709C467.138 115.409 466.67 116.04 466.1 116.569C465.593 117.058 465.017 117.47 464.39 117.789C463.658 118.192 462.892 118.526 462.1 118.789C461.26 119.061 460.401 119.268 459.53 119.409C458.694 119.552 457.847 119.626 457 119.629H445.26C444.053 119.643 442.855 119.426 441.73 118.989C440.643 118.548 439.671 117.864 438.89 116.989C438.009 116.007 437.33 114.862 436.89 113.619C436.35 112.077 436.05 110.462 436 108.829L434.53 79.1793C434.44 77.4893 434.32 75.7893 434.15 74.0793C433.98 72.3693 433.79 70.8793 433.55 69.6393C433.515 69.5046 433.433 69.3866 433.32 69.3061C433.206 69.2256 433.068 69.1878 432.93 69.1993C432.69 69.1993 432.42 69.4393 432.11 69.9293C431.738 70.5299 431.42 71.1624 431.16 71.8193C430.762 72.6734 430.427 73.5558 430.16 74.4593C429.91 75.3611 429.789 76.2936 429.8 77.2293C430.326 82.5626 430.733 87.986 431.02 93.4993C431.306 99.0126 431.633 104.513 432 109.999C432.112 112.29 432.447 114.564 433 116.789C433.428 118.482 434.19 120.073 435.24 121.469C436.215 122.698 437.504 123.641 438.97 124.199C440.748 124.838 442.63 125.14 444.52 125.089H456.4C457.428 125.083 458.455 124.996 459.47 124.829C460.558 124.649 461.634 124.399 462.69 124.079C463.721 123.77 464.724 123.376 465.69 122.899C466.55 122.48 467.362 121.967 468.11 121.369C468.32 121.159 468.55 120.899 468.82 120.589C469.09 120.279 469.35 119.949 469.62 119.589C469.883 119.24 470.127 118.876 470.35 118.499C470.552 118.177 470.736 117.843 470.9 117.499H471.08C471.411 118.749 471.967 119.928 472.72 120.979C474.049 122.821 475.981 124.14 478.18 124.709C479.274 124.989 480.4 125.13 481.53 125.129H489.4C491.959 125.138 494.517 124.991 497.06 124.689C499.271 124.42 501.465 124.019 503.63 123.489C505.567 123.022 507.471 122.427 509.33 121.709C511.11 121.029 512.79 120.309 514.39 119.539L518.85 117.539C520.43 116.799 521.99 116.119 523.51 115.539C525.03 114.959 526.51 114.399 527.86 113.989C529.001 113.618 530.19 113.41 531.39 113.369C532.487 113.371 533.581 113.498 534.65 113.749C535.542 113.98 536.458 114.108 537.38 114.129C537.82 114.129 538.519 113.259 539.469 111.509C539.708 111.053 539.909 110.578 540.07 110.089C540.153 109.829 540.206 109.561 540.23 109.289C540.23 108.989 540.07 108.839 539.74 108.839" fill="#4E245D"/>
</svg>
