<svg xmlns="http://www.w3.org/2000/svg" xmlns:xlink="http://www.w3.org/1999/xlink" xmlns:inkscape="http://www.inkscape.org/namespaces/inkscape" version="1.1" width="1000.17" height="572.87" viewBox="0 0 1000.17 572.87">
<defs>
<clipPath id="clip_0">
<path transform="matrix(1,0,0,-1,0,572.87)" d="M947.13 56.994H53.04303V515.876H947.13Z"/>
</clipPath>
<g id="pattern_tile_1">
<path transform="matrix(1,0,0,-1,-2227.437,-1173.207)" stroke-width="4" stroke-linecap="butt" stroke-miterlimit="10" stroke-linejoin="miter" fill="none" stroke="#69686c" d="M0 0 40.16 39.88V166.765H0V0Z"/>
<path transform="matrix(1,0,0,-1,-2723.3,-921.48)" stroke-width="4" stroke-linecap="butt" stroke-miterlimit="10" stroke-linejoin="miter" fill="none" stroke="#69686c" d="M501.208 456.333H529.662V464.295H501.208ZM495.7 429.734V503.652H508.201V474.713H522.67V503.652H536.084V429.734H495.7Z"/>
<path transform="matrix(1,0,0,-1,-2290.0452,-983.8205)" stroke-width="4" stroke-linecap="butt" stroke-miterlimit="10" stroke-linejoin="miter" fill="none" stroke="#602b7c" d="M0 0V441.312H-40.099V139.075C-40.099 47.262 0 0 0 0Z"/>
<path transform="matrix(1,0,0,-1,-2238.702,-1425.1321)" stroke-width="4" stroke-linecap="butt" stroke-miterlimit="10" stroke-linejoin="miter" fill="none" stroke="#602b7c" d="M0 0H-40.098V-393.564C-40.098-393.564 0-351.354 0-269.445V0Z"/>
<path transform="matrix(1,0,0,-1,-2187.163,-1185.7528)" stroke-width="4" stroke-linecap="butt" stroke-miterlimit="10" stroke-linejoin="miter" fill="none" stroke="#69686c" d="M0 0-40.16-39.88V-166.765H0V0Z"/>
<path transform="matrix(1,0,0,-1,-2723.3,-921.48)" stroke-width="4" stroke-linecap="butt" stroke-miterlimit="10" stroke-linejoin="miter" fill="none" stroke="#69686c" d="M530.792 59.667H502.33799V51.705H530.792ZM536.3 86.266V12.348H523.799V41.287H509.33V12.348H495.916V86.266H536.3Z"/>
<path transform="matrix(1,0,0,-1,-2485.437,-1173.207)" stroke-width="4" stroke-linecap="butt" stroke-miterlimit="10" stroke-linejoin="miter" fill="none" stroke="#69686c" d="M0 0 40.16 39.88V166.765H0V0Z"/>
<path transform="matrix(1,0,0,-1,-2723.3,-921.48)" stroke-width="4" stroke-linecap="butt" stroke-miterlimit="10" stroke-linejoin="miter" fill="none" stroke="#69686c" d="M243.208 456.333H271.662V464.295H243.208ZM237.7 429.734V503.652H250.201V474.713H264.67V503.652H278.084V429.734H237.7Z"/>
<path transform="matrix(1,0,0,-1,-2548.0452,-983.8205)" stroke-width="4" stroke-linecap="butt" stroke-miterlimit="10" stroke-linejoin="miter" fill="none" stroke="#602b7c" d="M0 0V441.312H-40.099V139.075C-40.099 47.262 0 0 0 0Z"/>
<path transform="matrix(1,0,0,-1,-2496.7022,-1425.1321)" stroke-width="4" stroke-linecap="butt" stroke-miterlimit="10" stroke-linejoin="miter" fill="none" stroke="#602b7c" d="M0 0H-40.098V-393.564C-40.098-393.564 0-351.354 0-269.445V0Z"/>
<path transform="matrix(1,0,0,-1,-2445.163,-1185.7528)" stroke-width="4" stroke-linecap="butt" stroke-miterlimit="10" stroke-linejoin="miter" fill="none" stroke="#69686c" d="M0 0-40.16-39.88V-166.765H0V0Z"/>
<path transform="matrix(1,0,0,-1,-2723.3,-921.48)" stroke-width="4" stroke-linecap="butt" stroke-miterlimit="10" stroke-linejoin="miter" fill="none" stroke="#69686c" d="M272.792 59.667H244.338V51.705H272.792ZM278.3 86.266V12.348H265.799V41.287H251.33V12.348H237.916V86.266H278.3Z"/>
<path transform="matrix(1,0,0,-1,-2382.555,-1375.1394)" stroke-width="4" stroke-linecap="butt" stroke-miterlimit="10" stroke-linejoin="miter" fill="none" stroke="#602b7c" d="M0 0V-441.312H40.099V-139.075C40.099-47.262 0 0 0 0Z"/>
<path transform="matrix(1,0,0,-1,-2433.898,-933.8277)" stroke-width="4" stroke-linecap="butt" stroke-miterlimit="10" stroke-linejoin="miter" fill="none" stroke="#602b7c" d="M0 0H40.098V393.564C40.098 393.564 0 351.354 0 269.445V0Z"/>
<path transform="matrix(1,0,0,-1,-2743.437,-1173.207)" stroke-width="4" stroke-linecap="butt" stroke-miterlimit="10" stroke-linejoin="miter" fill="none" stroke="#69686c" d="M0 0 40.16 39.88V166.765H0V0Z"/>
<path transform="matrix(1,0,0,-1,-2723.3,-921.48)" stroke-width="4" stroke-linecap="butt" stroke-miterlimit="10" stroke-linejoin="miter" fill="none" stroke="#69686c" d="M-14.792 456.333H13.662001V464.295H-14.792ZM-20.3 429.734V503.652H-7.799V474.713H6.67V503.652H20.084V429.734H-20.3Z"/>
<path transform="matrix(1,0,0,-1,-2703.163,-1185.7528)" stroke-width="4" stroke-linecap="butt" stroke-miterlimit="10" stroke-linejoin="miter" fill="none" stroke="#69686c" d="M0 0-40.16-39.88V-166.765H0V0Z"/>
<path transform="matrix(1,0,0,-1,-2723.3,-921.48)" stroke-width="4" stroke-linecap="butt" stroke-miterlimit="10" stroke-linejoin="miter" fill="none" stroke="#69686c" d="M14.792 59.667H-13.662001V51.705H14.792ZM20.3 86.266V12.348H7.799V41.287H-6.67V12.348H-20.084V86.266H20.3Z"/>
<path transform="matrix(1,0,0,-1,-2640.555,-1375.1394)" stroke-width="4" stroke-linecap="butt" stroke-miterlimit="10" stroke-linejoin="miter" fill="none" stroke="#602b7c" d="M0 0V-441.312H40.099V-139.075C40.099-47.262 0 0 0 0Z"/>
<path transform="matrix(1,0,0,-1,-2691.898,-933.8277)" stroke-width="4" stroke-linecap="butt" stroke-miterlimit="10" stroke-linejoin="miter" fill="none" stroke="#602b7c" d="M0 0H40.098V393.564C40.098 393.564 0 351.354 0 269.445V0Z"/>
</g>
<pattern id="pattern_1" patternUnits="userSpaceOnUse" patternContentUnits="userSpaceOnUse" x="0" y="0" width="516" height="516">
<g transform="matrix(1,0,0,-1,2723.3,-921.48)">
<use x="0" y="0" xlink:href="#pattern_tile_1"/>
</g>
</pattern>
</defs>
<g inkscape:groupmode="layer" inkscape:label="Layer 1">
<g clip-path="url(#clip_0)">
<rect transform="matrix(1,0,0,-1,-2723.3,-921.48)" fill="url(#pattern_1)" x="2776.343" y="-1437.356" width="894.08718" height="458.88197"/>
</g>
</g>
</svg>
