<svg width="839" height="354" viewBox="0 0 839 354" fill="none" xmlns="http://www.w3.org/2000/svg">
<path d="M383.554 149.329L352.099 180.569V279.958H383.554V149.329Z" fill="#69686C"/>
<path d="M352.05 288.759V346.66H362.556V323.993H373.892V346.66H383.684V288.759H352.05ZM379.37 315.832H357.084V309.598H379.37V315.832Z" fill="#69686C"/>
<path d="M432.594 0.986816V346.66H464V109.921C464 38.0061 432.594 0.986816 432.594 0.986816Z" fill="#612C7C"/>
<path d="M392.38 346.66H423.786V38.3882C423.786 38.3882 392.38 71.4501 392.38 135.611V346.66Z" fill="#612C7C"/>
<path d="M9.24955 287.883C12.8703 287.883 15.3665 285.192 16.5718 280.987H17.0036L18.1236 286.483C18.1236 286.805 18.2944 286.915 18.5554 286.915H23.1206C23.3768 286.915 23.5524 286.701 23.5524 286.374V248.244C23.5524 247.921 23.3816 247.703 23.1206 247.703H12.6093C12.3483 247.703 12.1775 247.916 12.1775 248.244V255.675C12.1775 256.107 12.3483 256.321 12.6093 256.321H15.7983V273.879C15.7983 277.433 14.5929 279.156 12.0921 279.156C9.59122 279.156 8.30045 277.756 8.30045 273.77V224.004C8.30045 220.127 9.16413 218.618 12.0921 218.618C14.7638 218.618 15.7129 219.804 15.7129 224.004V240.808C15.7129 241.13 15.8837 241.349 16.1447 241.349H23.1253C23.3816 241.349 23.5571 241.135 23.5571 240.808V223.572C23.5571 214.418 19.3337 210 12.0114 210C4.68915 210 0.460938 214.423 0.460938 223.577V274.633C0.460938 283.251 3.13264 287.883 9.24955 287.883Z" fill="#69686C"/>
<path d="M45.353 282.71V286.374C45.353 286.696 45.5239 286.915 45.7849 286.915H52.3336C52.5899 286.915 52.7654 286.701 52.7654 286.374V233.054C52.7654 232.731 52.5946 232.513 52.3336 232.513H45.7849C45.5286 232.513 45.353 232.726 45.353 233.054V274.202C45.353 278.079 44.8358 280.233 42.5959 280.233C40.6123 280.233 40.095 278.724 40.095 275.383V233.054C40.095 232.731 39.9242 232.513 39.6632 232.513H33.1145C32.8535 232.513 32.6826 232.726 32.6826 233.054V277.324C32.6826 283.897 34.149 287.878 38.6287 287.878C41.8176 287.878 44.2283 285.937 44.9212 282.706H45.353V282.71Z" fill="#69686C"/>
<path d="M62.675 286.914H69.2237C69.48 286.914 69.6556 286.701 69.6556 286.373V211.514C69.6556 211.191 69.4847 210.973 69.2237 210.973H62.675C62.4187 210.973 62.2432 211.186 62.2432 211.514V286.373C62.2432 286.696 62.414 286.914 62.675 286.914Z" fill="#69686C"/>
<path d="M93.1829 240.162V233.486C93.1829 233.163 93.012 232.945 92.751 232.945H87.6686V222.063C87.6686 219.263 88.0151 218.722 89.8231 218.722H92.8412C93.0975 218.722 93.2731 218.509 93.2731 218.186V211.509C93.2731 211.187 93.1022 210.968 92.8412 210.968H87.2416C82.2446 210.968 80.261 213.336 80.261 219.8V232.94H76.2131C75.9568 232.94 75.7812 233.153 75.7812 233.481V240.158C75.7812 240.48 75.9521 240.699 76.2131 240.699H80.261V286.369C80.261 286.692 80.4318 286.91 80.6928 286.91H87.2416C87.4978 286.91 87.6734 286.696 87.6734 286.369V240.699H92.7558C93.012 240.699 93.1876 240.485 93.1876 240.158L93.1829 240.162Z" fill="#69686C"/>
<path d="M136.352 210.973H129.371C129.115 210.973 128.939 211.186 128.939 211.514V273.774C128.939 277.542 127.99 279.16 125.233 279.16C122.647 279.16 121.527 277.87 121.527 273.774V211.514C121.527 211.191 121.356 210.973 121.095 210.973H114.114C113.858 210.973 113.683 211.186 113.683 211.514V274.206C113.683 283.36 118.162 287.887 125.143 287.887C132.124 287.887 136.774 283.688 136.774 274.206V211.514C136.774 211.191 136.603 210.973 136.342 210.973H136.352Z" fill="#69686C"/>
<path d="M166.344 286.374V242.103C166.344 235.749 165.138 231.544 160.398 231.544C157.209 231.544 154.883 233.376 154.105 236.717H153.673V233.053C153.673 232.731 153.502 232.513 153.241 232.513H146.693C146.432 232.513 146.261 232.726 146.261 233.053V286.374C146.261 286.696 146.432 286.915 146.693 286.915H153.241C153.502 286.915 153.673 286.701 153.673 286.374V245.226C153.673 241.458 154.276 239.194 156.43 239.194C158.414 239.194 158.931 240.485 158.931 244.039V286.369C158.931 286.692 159.102 286.91 159.363 286.91H165.912C166.168 286.91 166.344 286.696 166.344 286.369V286.374Z" fill="#69686C"/>
<path d="M175.821 223.145H182.369C182.626 223.145 182.801 222.932 182.801 222.604V212.696C182.801 212.373 182.63 212.16 182.369 212.16H175.821C175.564 212.16 175.389 212.373 175.389 212.696V222.604C175.389 222.927 175.56 223.145 175.821 223.145Z" fill="#69686C"/>
<path d="M182.801 286.374V233.054C182.801 232.731 182.63 232.513 182.369 232.513H175.821C175.564 232.513 175.389 232.726 175.389 233.054V286.374C175.389 286.696 175.56 286.915 175.821 286.915H182.369C182.626 286.915 182.801 286.701 182.801 286.374Z" fill="#69686C"/>
<path d="M210.632 232.518H204.084C203.823 232.518 203.652 232.84 203.652 233.059L200.206 274.097H199.689L196.329 233.059C196.329 232.736 196.159 232.518 195.898 232.518H189.349C188.661 232.518 189.093 233.381 188.917 233.163L195.637 286.374C195.637 286.697 195.807 286.915 196.068 286.915H203.908C204.079 286.915 204.254 286.701 204.34 286.374L211.059 233.163C211.145 232.84 210.974 232.518 210.628 232.518H210.632Z" fill="#69686C"/>
<path d="M226.318 231.544C219.854 231.544 216.233 235.64 216.233 243.826V275.17C216.233 283.569 219.769 287.878 226.318 287.878C232.866 287.878 236.311 283.783 236.311 275.17V266.984C236.311 266.661 236.141 266.447 235.88 266.447H229.331C229.075 266.447 228.899 266.661 228.899 266.984V274.956C228.899 278.297 228.553 280.342 226.313 280.342C224.073 280.342 223.641 278.619 223.641 274.956V262.352H235.88C236.136 262.352 236.311 262.138 236.311 261.816V243.826C236.311 235.749 232.952 231.544 226.318 231.544ZM228.904 255.462H223.646V244.044C223.646 241.135 223.992 239.09 226.318 239.09C228.643 239.09 228.904 240.921 228.904 244.044V255.462Z" fill="#69686C"/>
<path d="M258.89 231.544C255.701 231.544 253.546 233.376 252.773 236.717H252.341V233.053C252.341 232.731 252.17 232.513 251.909 232.513H245.361C245.1 232.513 244.929 232.726 244.929 233.053V286.374C244.929 286.696 245.1 286.915 245.361 286.915H251.909C252.17 286.915 252.341 286.701 252.341 286.374V245.335C252.341 242.103 252.688 239.412 255.013 239.412C256.996 239.412 257.253 240.921 257.253 243.83V251.262C257.253 251.585 257.424 251.798 257.685 251.798H264.233C264.49 251.798 264.665 251.585 264.665 251.262V241.89C264.665 235.426 263.46 231.549 258.89 231.549V231.544Z" fill="#69686C"/>
<path d="M280.178 231.544C273.629 231.544 270.094 235.312 270.094 243.394V248.889C270.094 258.907 282.759 262.138 282.759 270.215V275.388C282.759 278.51 282.413 280.342 280.173 280.342C278.189 280.342 277.501 278.833 277.501 275.388V266.77C277.501 266.447 277.33 266.229 277.069 266.229H270.521C270.264 266.229 270.089 266.443 270.089 266.77V275.924C270.089 284.001 273.534 287.883 280.173 287.883C286.812 287.883 290.257 283.787 290.257 275.924V269.247C290.257 258.584 277.506 255.139 277.506 247.812V244.044C277.506 241.031 278.023 239.09 280.178 239.09C282.332 239.09 282.764 240.812 282.764 244.476V250.726C282.764 251.048 282.935 251.267 283.196 251.267H289.83C290.091 251.267 290.262 251.053 290.262 250.726V243.83C290.262 235.431 286.817 231.549 280.178 231.549V231.544Z" fill="#69686C"/>
<path d="M319.642 279.156C317.573 279.156 316.971 279.265 316.971 277.111V243.18C316.971 235.208 313.44 231.549 306.887 231.549C300.333 231.549 296.893 235.317 296.893 243.18V250.18C296.893 250.503 297.063 250.721 297.324 250.721H303.873C304.129 250.721 304.305 250.507 304.305 250.18V243.717C304.305 240.699 304.651 239.194 306.891 239.194C308.96 239.194 309.563 240.162 309.563 243.717V250.935C309.478 252.334 309.131 252.875 307.494 253.844L302.497 256.212C298.274 258.475 296.897 260.63 296.897 267.197V278.079C296.897 284.219 298.364 287.56 303.1 287.56C306.203 287.56 308.528 285.619 309.302 281.633H309.563C309.819 283.787 310.597 285.187 311.888 286.051C313.179 287.019 314.128 286.915 319.642 286.915C319.899 286.915 320.074 286.701 320.074 286.374V279.697C320.074 279.374 319.903 279.156 319.642 279.156ZM309.478 274.524C309.478 276.57 308.875 279.265 306.72 279.265C304.827 279.265 304.31 277.647 304.31 274.092V268.17C304.31 264.616 304.912 262.675 306.72 261.707L308.789 260.52C309.05 260.307 309.307 260.198 309.568 259.875L309.482 274.524H309.478Z" fill="#69686C"/>
<path d="M332.568 210.973H326.019C325.758 210.973 325.587 211.186 325.587 211.514V286.373C325.587 286.696 325.758 286.914 326.019 286.914H332.568C332.829 286.914 332.999 286.701 332.999 286.373V211.514C332.999 211.191 332.829 210.973 332.568 210.973Z" fill="#69686C"/>
<path d="M484.8 228.852H490.417C490.627 228.852 490.771 228.69 490.771 228.443V221.931C490.771 221.689 490.633 221.522 490.417 221.522H484.8C484.59 221.522 484.446 221.684 484.446 221.931V228.443C484.446 228.685 484.585 228.852 484.8 228.852Z" fill="#612C7C"/>
<path d="M492.947 228.852H498.565C498.775 228.852 498.918 228.69 498.918 228.443V221.931C498.918 221.689 498.78 221.522 498.565 221.522H492.947C492.737 221.522 492.594 221.684 492.594 221.931V228.443C492.594 228.685 492.732 228.852 492.947 228.852Z" fill="#612C7C"/>
<path d="M529.253 280.445H523.636C523.426 280.445 523.282 280.606 523.282 280.853V287.366C523.282 287.608 523.42 287.774 523.636 287.774H529.253C529.463 287.774 529.607 287.613 529.607 287.366V280.853C529.607 280.611 529.468 280.445 529.253 280.445Z" fill="#612C7C"/>
<path d="M538.037 280.445H532.419C532.209 280.445 532.065 280.606 532.065 280.853V287.366C532.065 287.608 532.204 287.774 532.419 287.774H538.037C538.247 287.774 538.39 287.613 538.39 287.366V280.853C538.39 280.611 538.252 280.445 538.037 280.445Z" fill="#612C7C"/>
<path d="M588.044 212.005H580.526C580.316 212.005 580.173 212.167 580.173 212.414V263.523H566.617V251.803C566.617 242.689 562.264 236.665 555.658 236.665C546.881 236.665 544.699 242.689 544.699 251.803V257.746C544.699 262.384 543.434 263.523 541.468 263.523H538.027C536.413 263.523 535.359 262.626 535.359 259.697V243.339C535.359 243.097 535.22 242.931 535.005 242.931H527.487C527.277 242.931 527.134 243.092 527.134 243.339V259.047C527.134 262.545 526.223 263.523 524.466 263.523H505.149C502.553 263.523 501.918 262.384 501.918 257.418V237.073C501.918 236.831 501.78 236.665 501.565 236.665H491.661C484.635 236.665 480 239.352 480 249.933V253.023C480 262.137 482.176 268.16 490.959 268.16C492.644 268.16 494.262 267.752 495.594 267.021C497.488 271.659 501.001 273.045 505.354 273.045H523.898C527.902 273.045 530.499 271.336 532.045 268.488C532.818 271.336 534.222 273.045 536.751 273.045H541.248C544.197 273.045 546.092 271.906 547.357 269.789C549.395 272.228 552.483 273.045 556.35 273.045H588.028C588.238 273.045 588.382 272.884 588.382 272.637V212.414C588.382 212.172 588.244 212.005 588.028 212.005H588.044ZM493.714 253.915C493.714 256.763 493.151 258.634 490.974 258.634C489.361 258.634 488.235 257.656 488.235 253.915V250.986C488.235 248.138 488.936 246.187 491.676 246.187H493.361C493.571 246.187 493.714 246.349 493.714 246.596V253.92V253.915ZM558.403 263.518H556.365C553.625 263.518 552.924 261.567 552.924 258.714V250.901C552.924 247.156 554.045 246.183 555.663 246.183C557.84 246.183 558.403 248.053 558.403 250.901V263.513V263.518Z" fill="#612C7C"/>
<path d="M661.864 212.004H654.346C654.136 212.004 653.992 212.166 653.992 212.413V263.522H636.151C638.819 261.732 640.575 256.767 640.575 253.677C640.575 245.621 635.168 239.109 627.02 239.109H615.149C614.939 239.109 614.796 239.27 614.796 239.517C614.796 253.515 615.006 258.803 619.712 263.527H606.228C603.417 263.527 601.522 262.549 601.522 258.723V212.417C601.522 212.175 601.384 212.009 601.169 212.009H593.651C593.441 212.009 593.298 212.171 593.298 212.417V258.723C593.298 267.348 595.193 273.044 602.71 273.044H619.425C622.585 273.044 625.253 272.555 627.573 270.438C630.804 272.555 634.737 273.044 639.582 273.044H661.848C662.058 273.044 662.202 272.883 662.202 272.636V212.413C662.202 212.171 662.063 212.004 661.848 212.004H661.864ZM627.798 263.275C624.219 260.916 623.092 258.068 623.02 248.626H626.462C631.168 248.626 632.853 249.927 632.853 254.161C632.853 257.337 631.66 260.916 627.793 263.275H627.798Z" fill="#612C7C"/>
<path d="M676.402 212.004H668.885C668.675 212.004 668.531 212.166 668.531 212.413V272.636C668.531 272.878 668.67 273.044 668.885 273.044H676.402C676.612 273.044 676.756 272.883 676.756 272.636V212.413C676.756 212.171 676.617 212.004 676.402 212.004Z" fill="#612C7C"/>
<path d="M711.308 285.087V278.574C711.308 278.332 711.17 278.166 710.955 278.166H705.337C705.127 278.166 704.983 278.327 704.983 278.574V285.087C704.983 285.329 705.122 285.495 705.337 285.495H710.955C711.165 285.495 711.308 285.334 711.308 285.087Z" fill="#612C7C"/>
<path d="M741.44 280.445H735.823C735.613 280.445 735.469 280.606 735.469 280.853V287.366C735.469 287.608 735.608 287.774 735.823 287.774H741.44C741.65 287.774 741.794 287.613 741.794 287.366V280.853C741.794 280.611 741.655 280.445 741.44 280.445Z" fill="#612C7C"/>
<path d="M750.217 287.769C750.427 287.769 750.57 287.607 750.57 287.36V280.848C750.57 280.606 750.432 280.439 750.217 280.439H744.599C744.389 280.439 744.246 280.601 744.246 280.848V287.36C744.246 287.602 744.384 287.769 744.599 287.769H750.217Z" fill="#612C7C"/>
<path d="M787.375 226.085H792.993C793.203 226.085 793.346 225.923 793.346 225.676V219.168C793.346 218.926 793.208 218.76 792.993 218.76H787.375C787.165 218.76 787.022 218.922 787.022 219.168V225.676C787.022 225.923 787.16 226.085 787.375 226.085Z" fill="#612C7C"/>
<path d="M808.653 273.04H824.103C824.313 273.04 824.457 272.878 824.457 272.631V212.408C824.457 212.166 824.318 212 824.103 212H816.586C816.376 212 816.232 212.161 816.232 212.408V263.517H803.942C802.257 263.517 801.13 262.701 801.13 259.53V249.438C801.13 240.078 798.954 233.897 790.171 233.897C783.57 233.897 779.212 236.665 779.212 247.16V252.775C779.212 253.017 779.351 253.184 779.566 253.184H787.083C787.293 253.184 787.437 253.022 787.437 252.775V248.218C787.437 245.37 788 243.415 790.176 243.415C791.79 243.415 792.916 244.392 792.916 248.218V260.342C792.916 261.481 793.055 262.54 793.27 263.517H771.147C769.534 263.517 768.479 262.62 768.479 259.691V212.408C768.479 212.166 768.34 212 768.125 212H760.608C760.398 212 760.254 212.161 760.254 212.408V259.041C760.254 262.54 759.343 263.517 757.586 263.517H750.212C748.594 263.517 747.544 262.62 747.544 259.691V243.334C747.544 243.092 747.405 242.926 747.196 242.926H739.678C739.468 242.926 739.33 243.087 739.33 243.334V259.041C739.33 262.54 738.418 263.517 736.662 263.517H714.119C712.434 263.517 711.307 262.701 711.307 259.53V249.438C711.307 240.078 709.131 233.897 700.348 233.897C693.747 233.897 689.389 236.584 689.389 247.16V256.032C689.389 256.274 689.527 256.44 689.743 256.44H697.26C697.47 256.44 697.614 256.278 697.614 256.032V248.218C697.614 245.37 698.177 243.415 700.353 243.415C701.966 243.415 703.093 244.392 703.093 248.218V260.342C703.093 261.481 703.231 262.54 703.446 263.517H699.862C691.013 263.517 685.18 269.864 685.18 280.203C685.18 291.842 691.007 299 699.862 299H708.501C708.711 299 708.854 298.839 708.854 298.592V289.886C708.854 289.644 708.716 289.478 708.501 289.478H699.862C695.929 289.478 693.399 286.549 693.399 281.256C693.399 275.964 695.929 273.035 699.862 273.035H736.103C740.108 273.035 742.704 271.326 744.251 268.478C745.024 271.326 746.427 273.035 748.957 273.035H757.033C761.038 273.035 763.634 271.326 765.181 268.478C765.954 271.326 767.357 273.035 769.887 273.035H808.658L808.653 273.04Z" fill="#612C7C"/>
<path d="M838.646 212.004H831.129C830.919 212.004 830.775 212.166 830.775 212.413V272.636C830.775 272.878 830.914 273.044 831.129 273.044H838.646C838.856 273.044 839 272.883 839 272.636V212.413C839 212.171 838.862 212.004 838.646 212.004Z" fill="#612C7C"/>
<path d="M2 343.953V303.29C2 303.111 2.10225 303 2.26416 303H9.49014C14.2705 303 17.5086 305.275 17.5086 310.422V321.176C17.5086 326.493 14.0575 328.657 9.49014 328.657H8.10971V343.961C8.10971 344.14 8.00745 344.251 7.84555 344.251H2.26416C2.10225 344.251 2 344.132 2 343.961V343.953ZM9.53275 322.803C10.8109 322.803 11.3904 322.275 11.3904 320.818V310.771C11.3904 309.365 10.8621 308.786 9.53275 308.786H8.10119V322.803H9.53275Z" fill="#69686C"/>
<path d="M21.2751 343.953V314.981C21.2751 314.802 21.3774 314.691 21.5393 314.691H26.7457C26.9076 314.691 27.0099 314.81 27.0099 314.981V317.145H27.3252C27.7001 315.219 29.1317 314.103 31.3046 314.103C34.2274 314.103 35.071 316.208 35.071 319.77V326.254C35.071 326.433 34.9687 326.544 34.8068 326.544H29.5492C29.3873 326.544 29.2851 326.425 29.2851 326.254V321.176C29.2851 320.008 29.1828 319.309 28.2199 319.309C27.1036 319.309 27.0014 320.417 27.0014 322.053V343.961C27.0014 344.14 26.8991 344.251 26.7372 344.251H21.5308C21.3689 344.251 21.2666 344.132 21.2666 343.961L21.2751 343.953Z" fill="#69686C"/>
<path d="M37.627 337.459V321.457C37.627 316.787 40.2856 314.094 44.5803 314.094C49.0965 314.094 51.5336 316.957 51.5336 321.457V337.459C51.5336 342.138 48.8749 344.822 44.5803 344.822C40.064 344.822 37.627 341.959 37.627 337.459ZM45.7562 337.638V321.278C45.7562 319.931 45.6539 319.173 44.5888 319.173C43.5236 319.173 43.3702 319.991 43.3702 321.278V337.638C43.3702 339.044 43.7452 339.683 44.5888 339.683C45.5943 339.683 45.7562 338.865 45.7562 337.638Z" fill="#69686C"/>
<path d="M55.5811 353.062V314.972C55.5811 314.793 55.6833 314.682 55.8452 314.682H61.0517C61.2136 314.682 61.3158 314.801 61.3158 314.972V317.136H61.6311C62.006 315.211 63.5399 314.094 65.7724 314.094C68.6952 314.094 69.4877 316.199 69.4877 319.761V339.683C69.4877 343.126 68.1072 344.822 65.3464 344.822C63.1649 344.822 62.0572 343.305 61.6311 341.669H61.3158V353.062C61.3158 353.241 61.2136 353.351 61.0517 353.351H55.8452C55.6833 353.351 55.5811 353.232 55.5811 353.062ZM63.7018 336.999V321.226C63.7018 319.94 63.5995 319.301 62.5855 319.301C61.4692 319.301 61.3073 320.298 61.3073 322.045V336.471C61.3073 338.167 61.5715 339.215 62.5855 339.215C63.5995 339.215 63.7018 338.397 63.7018 336.991V336.999Z" fill="#69686C"/>
<path d="M72.9978 337.877V320.997C72.9978 316.148 75.8098 314.103 79.9511 314.103C84.3054 314.103 86.9044 316.267 86.9044 320.997V330.634C86.9044 330.813 86.8021 330.924 86.6402 330.924H78.724V337.758C78.724 339.215 79.0393 339.863 79.9426 339.863C80.9481 339.863 81.11 339.045 81.11 337.758V333.088C81.11 332.909 81.2122 332.799 81.3741 332.799H86.6317C86.7936 332.799 86.8959 332.918 86.8959 333.088V337.877C86.8959 342.726 84.135 344.831 79.9426 344.831C75.7501 344.831 72.9893 342.555 72.9893 337.877H72.9978ZM81.1185 326.484V321.107C81.1185 319.821 81.0162 319.062 79.9511 319.062C78.8859 319.062 78.7326 319.88 78.7326 321.107V326.484H81.1185Z" fill="#69686C"/>
<path d="M90.9441 343.953V314.981C90.9441 314.802 91.0463 314.691 91.2082 314.691H96.4147C96.5766 314.691 96.6788 314.81 96.6788 314.981V317.145H96.9941C97.3691 315.219 98.8006 314.103 100.974 314.103C103.896 314.103 104.74 316.208 104.74 319.77V326.254C104.74 326.433 104.638 326.544 104.476 326.544H99.2182C99.0563 326.544 98.954 326.425 98.954 326.254V321.176C98.954 320.008 98.8517 319.309 97.8888 319.309C96.7726 319.309 96.6703 320.417 96.6703 322.053V343.961C96.6703 344.14 96.5681 344.251 96.4062 344.251H91.1997C91.0378 344.251 90.9355 344.132 90.9355 343.961L90.9441 343.953Z" fill="#69686C"/>
<path d="M108.422 339.215V319.821H106.036C105.874 319.821 105.771 319.702 105.771 319.531V314.973C105.771 314.794 105.874 314.683 106.036 314.683H108.422V307.15C108.422 306.971 108.524 306.86 108.686 306.86H113.892C114.054 306.86 114.156 306.98 114.156 307.15V314.683H117.079C117.241 314.683 117.343 314.802 117.343 314.973V319.531C117.343 319.71 117.241 319.821 117.079 319.821H114.156V337.639C114.156 338.687 114.421 339.045 115.375 339.045H117.071C117.233 339.045 117.335 339.164 117.335 339.335V343.953C117.335 344.132 117.233 344.243 117.071 344.243H112.878C109.64 344.243 108.422 342.436 108.422 339.215Z" fill="#69686C"/>
<path d="M133.432 314.972L128.651 348.801C128.225 352.244 127.373 353.241 124.723 353.241H119.303C119.142 353.241 119.039 353.122 119.039 352.951V348.333C119.039 348.154 119.142 348.043 119.303 348.043H121.8C122.703 348.043 123.019 347.694 123.129 346.637L123.342 345.001L122.916 345.06C122.814 345.06 122.703 344.941 122.652 344.771L118.349 314.981L118.4 315.04C118.298 314.921 118.187 314.691 118.613 314.691H123.871C124.033 314.691 124.135 314.81 124.135 314.981L125.728 335.841H126.044L127.688 314.981C127.688 314.802 127.791 314.691 127.952 314.691H133.159C133.372 314.691 133.534 314.87 133.423 314.981L133.432 314.972Z" fill="#69686C"/>
<path d="M144.423 343.953V303.29C144.423 303.111 144.525 303 144.687 303H152.279C157.06 303 160.349 305.216 160.349 310.422V336.77C160.349 342.146 156.949 344.251 152.279 344.251H144.687C144.525 344.251 144.423 344.132 144.423 343.961V343.953ZM152.39 338.397C153.668 338.397 154.248 337.869 154.248 336.412V310.763C154.248 309.357 153.719 308.777 152.39 308.777H150.533V338.397H152.39Z" fill="#69686C"/>
<path d="M164.125 337.877V320.997C164.125 316.148 166.937 314.103 171.078 314.103C175.432 314.103 178.031 316.267 178.031 320.997V330.634C178.031 330.813 177.929 330.924 177.767 330.924H169.851V337.758C169.851 339.215 170.166 339.863 171.07 339.863C172.075 339.863 172.237 339.045 172.237 337.758V333.088C172.237 332.909 172.339 332.799 172.501 332.799H177.759C177.921 332.799 178.023 332.918 178.023 333.088V337.877C178.023 342.726 175.262 344.831 171.07 344.831C166.877 344.831 164.116 342.555 164.116 337.877H164.125ZM172.254 326.484V321.107C172.254 319.821 172.152 319.062 171.087 319.062C170.021 319.062 169.868 319.88 169.868 321.107V326.484H172.254Z" fill="#69686C"/>
<path d="M195.09 314.972L190.949 343.944C190.898 344.123 190.787 344.234 190.685 344.234H184.473C184.311 344.234 184.208 344.115 184.208 343.944L180.016 314.972L180.067 315.032C179.965 314.913 179.854 314.683 180.28 314.683H185.538C185.7 314.683 185.802 314.802 185.802 314.972L187.395 335.832H187.711L189.355 314.972C189.355 314.793 189.458 314.683 189.619 314.683H194.826C195.039 314.683 195.201 314.862 195.09 314.972Z" fill="#69686C"/>
<path d="M197.05 337.877V320.997C197.05 316.148 199.862 314.103 204.003 314.103C208.357 314.103 210.956 316.267 210.956 320.997V330.634C210.956 330.813 210.854 330.924 210.692 330.924H202.776V337.758C202.776 339.215 203.091 339.863 203.994 339.863C205 339.863 205.162 339.045 205.162 337.758V333.088C205.162 332.909 205.264 332.799 205.426 332.799H210.683C210.845 332.799 210.948 332.918 210.948 333.088V337.877C210.948 342.726 208.187 344.831 203.994 344.831C199.802 344.831 197.041 342.555 197.041 337.877H197.05ZM205.179 326.484V321.107C205.179 319.821 205.077 319.062 204.011 319.062C202.946 319.062 202.793 319.88 202.793 321.107V326.484H205.179Z" fill="#69686C"/>
<path d="M215.004 343.953V303.29C215.004 303.111 215.106 303 215.268 303H220.475C220.636 303 220.739 303.119 220.739 303.29V343.953C220.739 344.132 220.636 344.243 220.475 344.243H215.268C215.106 344.243 215.004 344.123 215.004 343.953Z" fill="#69686C"/>
<path d="M224.77 337.459V321.457C224.77 316.787 227.428 314.094 231.723 314.094C236.239 314.094 238.676 316.957 238.676 321.457V337.459C238.676 342.138 236.018 344.822 231.723 344.822C227.207 344.822 224.77 341.959 224.77 337.459ZM232.899 337.638V321.278C232.899 319.931 232.797 319.173 231.731 319.173C230.666 319.173 230.513 319.991 230.513 321.278V337.638C230.513 339.044 230.888 339.683 231.731 339.683C232.737 339.683 232.899 338.865 232.899 337.638Z" fill="#69686C"/>
<path d="M242.725 353.062V314.972C242.725 314.793 242.827 314.682 242.989 314.682H248.195C248.357 314.682 248.459 314.801 248.459 314.972V317.136H248.775C249.15 315.211 250.683 314.094 252.916 314.094C255.839 314.094 256.631 316.199 256.631 319.761V339.683C256.631 343.126 255.251 344.822 252.49 344.822C250.308 344.822 249.201 343.305 248.775 341.669H248.459V353.062C248.459 353.241 248.357 353.351 248.195 353.351H242.989C242.827 353.351 242.725 353.232 242.725 353.062ZM250.845 336.999V321.226C250.845 319.94 250.743 319.301 249.729 319.301C248.613 319.301 248.451 320.298 248.451 322.045V336.471C248.451 338.167 248.715 339.215 249.729 339.215C250.743 339.215 250.845 338.397 250.845 336.991V336.999Z" fill="#69686C"/>
<path d="M260.67 343.953V314.981C260.67 314.802 260.772 314.691 260.934 314.691H266.14C266.302 314.691 266.404 314.81 266.404 314.981V317.145H266.72C267.095 315.219 268.628 314.103 270.861 314.103C273.094 314.103 273.886 315.151 274.363 317.145H274.627C275.318 315.1 276.698 314.103 278.879 314.103C281.802 314.103 282.757 316.148 282.757 319.77V343.953C282.757 344.132 282.654 344.243 282.492 344.243H277.235C277.073 344.243 276.971 344.123 276.971 343.953V321.167C276.971 319.65 276.758 319.182 275.854 319.182C274.738 319.182 274.576 320.349 274.576 321.985V343.953C274.576 344.132 274.474 344.243 274.312 344.243H269.055C268.893 344.243 268.79 344.123 268.79 343.953V321.167C268.79 319.65 268.577 319.182 267.674 319.182C266.558 319.182 266.396 320.349 266.396 321.985V343.953C266.396 344.132 266.294 344.243 266.132 344.243H260.925C260.763 344.243 260.661 344.123 260.661 343.953H260.67Z" fill="#69686C"/>
<path d="M286.48 337.877V320.997C286.48 316.148 289.292 314.103 293.434 314.103C297.788 314.103 300.387 316.267 300.387 320.997V330.634C300.387 330.813 300.285 330.924 300.123 330.924H292.206V337.758C292.206 339.215 292.522 339.863 293.425 339.863C294.43 339.863 294.592 339.045 294.592 337.758V333.088C294.592 332.909 294.695 332.799 294.857 332.799H300.114C300.276 332.799 300.378 332.918 300.378 333.088V337.877C300.378 342.726 297.617 344.831 293.425 344.831C289.233 344.831 286.472 342.555 286.472 337.877H286.48ZM294.609 326.484V321.107C294.609 319.821 294.507 319.062 293.442 319.062C292.377 319.062 292.223 319.88 292.223 321.107V326.484H294.609Z" fill="#69686C"/>
<path d="M304.435 343.953V314.981C304.435 314.802 304.538 314.691 304.699 314.691H309.906C310.068 314.691 310.17 314.81 310.17 314.981V317.145H310.485C310.86 315.219 312.454 314.103 314.627 314.103C317.549 314.103 318.342 316.208 318.342 319.77V343.953C318.342 344.132 318.24 344.243 318.078 344.243H312.82C312.658 344.243 312.556 344.123 312.556 343.953V321.167C312.556 319.65 312.343 319.182 311.44 319.182C310.323 319.182 310.162 320.349 310.162 321.985V343.953C310.162 344.132 310.059 344.243 309.897 344.243H304.691C304.529 344.243 304.427 344.123 304.427 343.953H304.435Z" fill="#69686C"/>
<path d="M323.283 339.215V319.821H320.897C320.735 319.821 320.633 319.702 320.633 319.531V314.973C320.633 314.794 320.735 314.683 320.897 314.683H323.283V307.15C323.283 306.971 323.385 306.86 323.547 306.86H328.754C328.915 306.86 329.018 306.98 329.018 307.15V314.683H331.94C332.102 314.683 332.205 314.802 332.205 314.973V319.531C332.205 319.71 332.102 319.821 331.94 319.821H329.018V337.639C329.018 338.687 329.282 339.045 330.236 339.045H331.932C332.094 339.045 332.196 339.164 332.196 339.335V343.953C332.196 344.132 332.094 344.243 331.932 344.243H327.739C324.501 344.243 323.283 342.436 323.283 339.215Z" fill="#69686C"/>
<path d="M522.795 310.511V322.343C522.795 322.459 522.657 322.54 522.459 322.54H515.131C514.932 322.54 514.794 322.459 514.794 322.343V314.991H509.379C507.803 314.991 506.702 315.348 506.702 316.793V320.434C506.702 323.271 508.079 324.155 511.765 325.752C518.145 328.509 518.955 329.866 518.955 331.909C518.955 335.264 516.355 337.781 505.937 337.781H499.42C490.165 337.781 484 335.827 484 327.903V322.95C484 322.834 484.138 322.754 484.337 322.754H491.664C491.863 322.754 492.001 322.834 492.001 322.95V327.947C492.001 331.026 493.515 333.105 499.405 333.105H505.646C509.348 333.105 510.924 332.784 510.924 331.508C510.924 330.312 510.312 329.545 504.897 327.51C500.231 325.752 498.655 324.155 498.655 320.434V316.436C498.655 312.76 500.782 310.324 509.348 310.324H522.443C522.642 310.324 522.78 310.404 522.78 310.52L522.795 310.511ZM501.822 341.609V344.803C501.822 344.919 501.684 345 501.485 345H496.009C495.81 345 495.672 344.919 495.672 344.803V341.609C495.672 341.493 495.81 341.413 496.009 341.413H501.485C501.684 341.413 501.822 341.493 501.822 341.609ZM510.389 341.609V344.803C510.389 344.919 510.251 345 510.052 345H504.576C504.377 345 504.239 344.919 504.239 344.803V341.609C504.239 341.493 504.377 341.413 504.576 341.413H510.052C510.251 341.413 510.389 341.493 510.389 341.609Z" fill="#612C7C"/>
<path d="M524.173 338.771V334.497C524.173 334.381 524.31 334.3 524.509 334.3H527.798C532.25 334.3 535.202 333.301 535.202 329.143V314.393C535.202 314.277 535.34 314.196 535.539 314.196H542.866C543.065 314.196 543.203 314.277 543.203 314.393V329.107C543.203 335.023 540.113 338.985 527.783 338.985H524.494C524.295 338.985 524.157 338.905 524.157 338.789L524.173 338.771Z" fill="#612C7C"/>
<path d="M565.827 328.982H559.249C551.921 328.982 550.07 326.18 550.07 321.951V299.205C550.07 299.089 550.208 299.009 550.407 299.009H557.735C557.933 299.009 558.071 299.089 558.071 299.205V321.951C558.071 323.833 559.922 324.306 562.66 324.306H565.812V328.982H565.827Z" fill="#612C7C"/>
<path d="M564.468 324.306H570.847C569.96 323.789 569.271 322.388 569.271 320.746V316.748C569.271 312.867 573.524 310.315 579.964 310.315C586.405 310.315 590.658 312.876 590.658 316.748V320.746C590.658 322.388 589.969 323.78 589.082 324.306H595.461V328.982H564.483V324.306H564.468ZM573.233 302.873H578.71C578.909 302.873 579.047 302.953 579.047 303.069V306.263C579.047 306.379 578.909 306.46 578.71 306.46H573.233C573.035 306.46 572.897 306.379 572.897 306.263V303.069C572.897 302.953 573.035 302.873 573.233 302.873ZM579.949 324.306C581.525 324.306 582.626 323.503 582.626 322.343V316.945C582.626 315.785 581.525 314.981 579.949 314.981C578.373 314.981 577.272 315.785 577.272 316.945V322.343C577.272 323.503 578.373 324.306 579.949 324.306ZM581.188 302.873H586.665C586.864 302.873 587.001 302.953 587.001 303.069V306.263C587.001 306.379 586.864 306.46 586.665 306.46H581.188C580.989 306.46 580.852 306.379 580.852 306.263V303.069C580.852 302.953 580.989 302.873 581.188 302.873Z" fill="#612C7C"/>
<path d="M593.395 324.306H605.449C600.86 321.986 600.646 319.39 600.646 312.51C600.646 312.394 600.784 312.313 600.983 312.313H612.563C620.518 312.313 625.795 315.508 625.795 319.47C625.795 320.987 624.082 323.423 621.482 324.306H631.486V328.982H624.832C620.105 328.982 616.265 328.741 613.114 327.706C610.85 328.75 608.249 328.982 605.159 328.982H593.364V324.306H593.395ZM613.328 324.182C617.091 323.021 618.269 321.264 618.269 319.702C618.269 317.623 616.617 316.98 612.027 316.98H608.677C608.738 321.621 609.84 323.013 613.343 324.173L613.328 324.182Z" fill="#612C7C"/>
<path d="M630.123 324.306H638.889V299.205C638.889 299.089 639.026 299.009 639.225 299.009H646.553C646.752 299.009 646.89 299.089 646.89 299.205V328.786C646.89 328.902 646.752 328.982 646.553 328.982H630.108V324.306H630.123Z" fill="#612C7C"/>
<path d="M654.798 299H662.126C662.325 299 662.463 299.08 662.463 299.196V328.777C662.463 328.893 662.325 328.973 662.126 328.973H654.798C654.6 328.973 654.462 328.893 654.462 328.777V299.196C654.462 299.08 654.6 299 654.798 299Z" fill="#612C7C"/>
<path d="M696.806 324.306V328.982H695.016C693.716 328.982 692.339 328.821 691.116 328.5V329.098C691.116 335.014 688.025 338.976 675.695 338.976H672.406C672.208 338.976 672.07 338.896 672.07 338.78V334.506C672.07 334.39 672.208 334.309 672.406 334.309H675.695C680.147 334.309 683.1 333.31 683.1 329.152V314.401C683.1 314.285 683.237 314.205 683.436 314.205H690.764C690.963 314.205 691.1 314.285 691.1 314.401V321.237C691.1 323.717 692.752 324.315 695.139 324.315H696.791L696.806 324.306Z" fill="#612C7C"/>
<path d="M695.446 324.307H704.212V313.59C704.212 313.474 704.349 313.394 704.548 313.394H711.876C712.075 313.394 712.212 313.474 712.212 313.59V328.983H695.416V324.307H695.446ZM696.532 331.82H702.009C702.208 331.82 702.345 331.901 702.345 332.017V335.211C702.345 335.327 702.208 335.407 702.009 335.407H696.532C696.333 335.407 696.196 335.327 696.196 335.211V332.017C696.196 331.901 696.333 331.82 696.532 331.82ZM705.114 331.82H710.591C710.79 331.82 710.927 331.901 710.927 332.017V335.211C710.927 335.327 710.79 335.407 710.591 335.407H705.114C704.915 335.407 704.778 335.327 704.778 335.211V332.017C704.778 331.901 704.915 331.82 705.114 331.82Z" fill="#612C7C"/>
<path d="M744.444 328.983H737.729V329.099C737.729 335.015 734.639 338.977 723.685 338.977H720.396C720.197 338.977 720.06 338.896 720.06 338.78V334.506C720.06 334.39 720.197 334.31 720.396 334.31H723.685C726.775 334.31 729.713 333.31 729.713 329.152V328.991H728.137C722.446 328.991 717.719 327.51 717.719 321.558V317.561C717.719 312.965 719.846 309.922 727.036 309.922C733.476 309.922 737.729 311.243 737.729 316.436V324.316H744.444V328.991V328.983ZM729.713 316.151C729.713 315.553 729.3 314.589 727.8 314.589C726.561 314.589 725.751 315.071 725.751 316.151V322.388C725.751 323.352 726.5 324.307 728.703 324.307H729.728V316.151H729.713Z" fill="#612C7C"/>
<path d="M784.815 324.306V328.982H743.083V324.306H749.798V299.205C749.798 299.089 749.936 299.009 750.135 299.009H757.462C757.661 299.009 757.799 299.089 757.799 299.205V312.519C760.813 310.716 764.102 310.083 766.503 310.083C772.668 310.083 776.784 311.644 776.784 317.962V324.315H784.8L784.815 324.306ZM768.783 317.346C768.783 315.865 767.957 314.866 764.744 314.866C763.031 314.866 760.491 315.544 757.814 316.347V324.306H768.783V317.346Z" fill="#612C7C"/>
<path d="M803.188 324.306V328.982H798.874C796.411 328.982 795.035 328.143 794.285 326.742C792.77 328.143 790.246 328.982 786.33 328.982H783.454V324.306H786.881C788.594 324.306 789.481 323.824 789.481 322.111V314.393C789.481 314.277 789.619 314.196 789.818 314.196H797.146C797.344 314.196 797.482 314.277 797.482 314.393V322.423C797.482 323.86 798.507 324.306 800.083 324.306H803.173H803.188ZM786.529 309.351V306.156C786.529 306.04 786.667 305.96 786.866 305.96H792.342C792.541 305.96 792.679 306.04 792.679 306.156V309.351C792.679 309.467 792.541 309.547 792.342 309.547H786.866C786.667 309.547 786.529 309.467 786.529 309.351ZM794.484 309.351V306.156C794.484 306.04 794.621 305.96 794.82 305.96H800.297C800.496 305.96 800.634 306.04 800.634 306.156V309.351C800.634 309.467 800.496 309.547 800.297 309.547H794.82C794.621 309.547 794.484 309.467 794.484 309.351Z" fill="#612C7C"/>
<path d="M823.61 324.306V328.982H819.296C816.833 328.982 815.456 328.143 814.707 326.742C813.192 328.143 810.668 328.982 806.752 328.982H801.811V324.306H807.287C809.001 324.306 809.888 323.825 809.888 322.111V299.205C809.888 299.089 810.025 299.009 810.224 299.009H817.552C817.751 299.009 817.889 299.089 817.889 299.205V322.432C817.889 323.869 818.913 324.315 820.489 324.315H823.579L823.61 324.306Z" fill="#612C7C"/>
<path d="M822.234 324.306H830.999V299.205C830.999 299.089 831.137 299.009 831.336 299.009H838.663C838.862 299.009 839 299.089 839 299.205V328.786C839 328.902 838.862 328.982 838.663 328.982H822.218V324.306H822.234Z" fill="#612C7C"/>
</svg>
