<svg width="618" height="354" viewBox="0 0 618 354" fill="none" xmlns="http://www.w3.org/2000/svg">
<path d="M537.093 148.342L505.638 179.582V278.971H537.093V148.342Z" fill="white"/>
<path d="M505.589 287.772V345.673H516.095V323.006H527.431V345.673H537.223V287.772H505.589ZM532.909 314.846H510.623V308.611H532.909V314.846Z" fill="white"/>
<path d="M586.133 0V345.673H617.539V108.934C617.539 37.0192 586.133 0 586.133 0Z" fill="white"/>
<path d="M545.919 345.674H577.325V37.4014C577.325 37.4014 545.919 70.4633 545.919 134.624V345.674Z" fill="white"/>
<path d="M12.8523 261.894C18.1472 261.894 21.7975 257.959 23.5602 251.81H24.1917L25.8294 259.847C25.8294 260.318 26.0792 260.478 26.4609 260.478H33.1369C33.5116 260.478 33.7684 260.166 33.7684 259.687V203.927C33.7684 203.455 33.5186 203.136 33.1369 203.136H17.7655C17.3839 203.136 17.134 203.448 17.134 203.927V214.794C17.134 215.426 17.3839 215.738 17.7655 215.738H22.429V241.415C22.429 246.613 20.6663 249.132 17.0091 249.132C13.3519 249.132 11.4643 247.084 11.4643 241.255V168.479C11.4643 162.809 12.7273 160.602 17.0091 160.602C20.9161 160.602 22.3041 162.337 22.3041 168.479V193.052C22.3041 193.524 22.5539 193.843 22.9356 193.843H33.1438C33.5186 193.843 33.7753 193.531 33.7753 193.052V167.847C33.7753 154.461 27.599 148 16.8911 148C6.18324 148 0 154.468 0 167.854V242.518C0 255.121 3.90703 261.894 12.8523 261.894Z" fill="white"/>
<path d="M65.649 254.33V259.687C65.649 260.159 65.8988 260.478 66.2805 260.478H75.8573C76.232 260.478 76.4888 260.166 76.4888 259.687V181.713C76.4888 181.241 76.2389 180.922 75.8573 180.922H66.2805C65.9058 180.922 65.649 181.234 65.649 181.713V241.887C65.649 247.557 64.8926 250.707 61.6171 250.707C58.7163 250.707 57.9599 248.5 57.9599 243.615V181.713C57.9599 181.241 57.71 180.922 57.3284 180.922H47.7516C47.3699 180.922 47.1201 181.234 47.1201 181.713V246.453C47.1201 256.064 49.2645 261.887 55.8155 261.887C60.479 261.887 64.0043 259.049 65.0175 254.323H65.649V254.33Z" fill="white"/>
<path d="M90.9801 260.478H100.557C100.932 260.478 101.188 260.165 101.188 259.687V150.213C101.188 149.742 100.939 149.422 100.557 149.422H90.9801C90.6054 149.422 90.3486 149.735 90.3486 150.213V259.687C90.3486 260.159 90.5985 260.478 90.9801 260.478Z" fill="white"/>
<path d="M135.594 192.109V182.345C135.594 181.873 135.344 181.554 134.963 181.554H127.53V165.641C127.53 161.547 128.037 160.755 130.681 160.755H135.095C135.469 160.755 135.726 160.443 135.726 159.971V150.207C135.726 149.735 135.476 149.416 135.095 149.416H126.906C119.598 149.416 116.698 152.879 116.698 162.331V181.547H110.778C110.403 181.547 110.146 181.859 110.146 182.338V192.102C110.146 192.574 110.396 192.893 110.778 192.893H116.698V259.68C116.698 260.152 116.947 260.471 117.329 260.471H126.906C127.281 260.471 127.537 260.159 127.537 259.68V192.893H134.97C135.344 192.893 135.601 192.581 135.601 192.102L135.594 192.109Z" fill="white"/>
<path d="M198.723 149.422H188.515C188.14 149.422 187.883 149.735 187.883 150.213V241.262C187.883 246.772 186.495 249.138 182.463 249.138C178.681 249.138 177.044 247.251 177.044 241.262V150.213C177.044 149.742 176.794 149.422 176.412 149.422H166.204C165.829 149.422 165.572 149.735 165.572 150.213V241.893C165.572 255.28 172.123 261.9 182.332 261.9C192.54 261.9 199.341 255.759 199.341 241.893V150.213C199.341 149.742 199.091 149.422 198.709 149.422H198.723Z" fill="white"/>
<path d="M242.583 259.687V194.947C242.583 185.654 240.82 179.506 233.887 179.506C229.224 179.506 225.823 182.185 224.685 187.07H224.054V181.713C224.054 181.241 223.804 180.922 223.422 180.922H213.845C213.464 180.922 213.214 181.234 213.214 181.713V259.687C213.214 260.159 213.464 260.478 213.845 260.478H223.422C223.804 260.478 224.054 260.166 224.054 259.687V199.513C224.054 194.003 224.935 190.693 228.086 190.693C230.986 190.693 231.743 192.58 231.743 197.778V259.68C231.743 260.152 231.993 260.471 232.374 260.471H241.951C242.326 260.471 242.583 260.159 242.583 259.68V259.687Z" fill="white"/>
<path d="M256.442 167.224H266.019C266.394 167.224 266.65 166.911 266.65 166.432V151.942C266.65 151.47 266.4 151.158 266.019 151.158H256.442C256.067 151.158 255.811 151.47 255.811 151.942V166.432C255.811 166.904 256.06 167.224 256.442 167.224Z" fill="white"/>
<path d="M266.65 259.687V181.713C266.65 181.241 266.4 180.922 266.019 180.922H256.442C256.067 180.922 255.811 181.234 255.811 181.713V259.687C255.811 260.159 256.06 260.478 256.442 260.478H266.019C266.394 260.478 266.65 260.166 266.65 259.687Z" fill="white"/>
<path d="M307.35 180.929H297.773C297.391 180.929 297.141 181.401 297.141 181.72L292.103 241.735H291.347L286.433 181.72C286.433 181.248 286.184 180.929 285.802 180.929H276.225C275.219 180.929 275.851 182.192 275.594 181.873L285.42 259.687C285.42 260.159 285.67 260.479 286.052 260.479H297.516C297.766 260.479 298.023 260.166 298.148 259.687L307.974 181.873C308.099 181.401 307.849 180.929 307.343 180.929H307.35Z" fill="white"/>
<path d="M330.287 179.506C320.835 179.506 315.54 185.495 315.54 197.466V243.302C315.54 255.585 320.71 261.887 330.287 261.887C339.864 261.887 344.902 255.898 344.902 243.302V231.331C344.902 230.859 344.652 230.547 344.27 230.547H334.694C334.319 230.547 334.062 230.859 334.062 231.331V242.99C334.062 247.875 333.555 250.866 330.28 250.866C327.004 250.866 326.373 248.347 326.373 242.99V224.558H344.27C344.645 224.558 344.902 224.246 344.902 223.774V197.466C344.902 185.654 339.988 179.506 330.287 179.506ZM334.069 214.482H326.38V197.785C326.38 193.531 326.886 190.54 330.287 190.54C333.687 190.54 334.069 193.219 334.069 197.785V214.482Z" fill="white"/>
<path d="M377.92 179.506C373.257 179.506 370.106 182.185 368.975 187.07H368.344V181.713C368.344 181.241 368.094 180.922 367.712 180.922H358.135C357.754 180.922 357.504 181.234 357.504 181.713V259.687C357.504 260.159 357.754 260.478 358.135 260.478H367.712C368.094 260.478 368.344 260.166 368.344 259.687V199.673C368.344 194.947 368.85 191.012 372.251 191.012C375.151 191.012 375.526 193.219 375.526 197.473V208.34C375.526 208.812 375.776 209.124 376.158 209.124H385.734C386.109 209.124 386.366 208.812 386.366 208.34V194.634C386.366 185.182 384.603 179.513 377.92 179.513V179.506Z" fill="white"/>
<path d="M409.052 179.506C399.475 179.506 394.305 185.016 394.305 196.834V204.87C394.305 219.52 412.827 224.246 412.827 236.057V243.621C412.827 248.188 412.32 250.866 409.045 250.866C406.144 250.866 405.138 248.66 405.138 243.621V231.019C405.138 230.547 404.888 230.228 404.506 230.228H394.929C394.555 230.228 394.298 230.54 394.298 231.019V244.406C394.298 256.217 399.336 261.893 409.045 261.893C418.753 261.893 423.791 255.905 423.791 244.406V234.641C423.791 219.048 405.145 214.01 405.145 203.295V197.785C405.145 193.378 405.901 190.54 409.052 190.54C412.202 190.54 412.834 193.059 412.834 198.416V207.556C412.834 208.028 413.084 208.347 413.465 208.347H423.167C423.549 208.347 423.798 208.035 423.798 207.556V197.473C423.798 185.189 418.76 179.513 409.052 179.513V179.506Z" fill="white"/>
<path d="M466.763 249.132C463.737 249.132 462.856 249.291 462.856 246.141V196.522C462.856 184.864 457.693 179.513 448.109 179.513C438.525 179.513 433.494 185.023 433.494 196.522V206.758C433.494 207.23 433.744 207.549 434.126 207.549H443.702C444.077 207.549 444.334 207.237 444.334 206.758V197.306C444.334 192.893 444.84 190.693 448.116 190.693C451.142 190.693 452.023 192.109 452.023 197.306V207.862C451.898 209.909 451.392 210.7 448.997 212.116L441.69 215.579C435.514 218.889 433.501 222.039 433.501 231.644V247.557C433.501 256.536 435.645 261.422 442.571 261.422C447.11 261.422 450.51 258.584 451.641 252.754H452.023C452.398 255.905 453.536 257.952 455.423 259.215C457.311 260.631 458.699 260.478 466.763 260.478C467.138 260.478 467.394 260.166 467.394 259.687V249.923C467.394 249.451 467.145 249.132 466.763 249.132ZM451.898 242.359C451.898 245.35 451.017 249.291 447.866 249.291C445.097 249.291 444.341 246.925 444.341 241.727V233.067C444.341 227.869 445.222 225.03 447.866 223.615L450.892 221.88C451.274 221.568 451.648 221.408 452.03 220.936L451.905 242.359H451.898Z" fill="white"/>
<path d="M485.664 149.422H476.088C475.706 149.422 475.456 149.735 475.456 150.213V259.687C475.456 260.159 475.706 260.478 476.088 260.478H485.664C486.046 260.478 486.296 260.165 486.296 259.687V150.213C486.296 149.742 486.046 149.422 485.664 149.422Z" fill="white"/>
<path d="M0 339.243V279.426C0 279.163 0.15042 279 0.388586 279H11.0183C18.0504 279 22.8137 282.347 22.8137 289.918V305.737C22.8137 313.559 17.7371 316.743 11.0183 316.743H8.98761V339.256C8.98761 339.519 8.83719 339.682 8.59903 339.682H0.388586C0.15042 339.682 0 339.507 0 339.256V339.243ZM11.081 308.131C12.9612 308.131 13.8136 307.354 13.8136 305.211V290.432C13.8136 288.364 13.0364 287.511 11.081 287.511H8.97508V308.131H11.081Z" fill="white"/>
<path d="M28.3543 339.243V296.624C28.3543 296.361 28.5048 296.198 28.7429 296.198H36.4018C36.64 296.198 36.7904 296.373 36.7904 296.624V299.808H37.2542C37.8057 296.975 39.9116 295.333 43.1081 295.333C47.4076 295.333 48.6485 298.429 48.6485 303.669V313.208C48.6485 313.471 48.4981 313.634 48.26 313.634H40.5258C40.2877 313.634 40.1373 313.459 40.1373 313.208V305.737C40.1373 304.02 39.9868 302.992 38.5704 302.992C36.9283 302.992 36.7779 304.621 36.7779 307.028V339.256C36.7779 339.519 36.6274 339.682 36.3893 339.682H28.7304C28.4922 339.682 28.3418 339.506 28.3418 339.256L28.3543 339.243Z" fill="white"/>
<path d="M52.4082 329.691V306.15C52.4082 299.281 56.3191 295.32 62.6368 295.32C69.2803 295.32 72.8654 299.532 72.8654 306.15V329.691C72.8654 336.573 68.9544 340.521 62.6368 340.521C55.9932 340.521 52.4082 336.309 52.4082 329.691ZM64.3666 329.954V305.887C64.3666 303.906 64.2162 302.791 62.6493 302.791C61.0824 302.791 60.8568 303.994 60.8568 305.887V329.954C60.8568 332.022 61.4084 332.962 62.6493 332.962C64.1285 332.962 64.3666 331.759 64.3666 329.954Z" fill="white"/>
<path d="M78.8193 352.642V296.611C78.8193 296.348 78.9698 296.185 79.2079 296.185H86.8668C87.105 296.185 87.2554 296.36 87.2554 296.611V299.795H87.7192C88.2707 296.962 90.5271 295.32 93.8112 295.32C98.1107 295.32 99.2765 298.416 99.2765 303.656V332.962C99.2765 338.027 97.2458 340.521 93.1845 340.521C89.9755 340.521 88.346 338.29 87.7192 335.883H87.2554V352.642C87.2554 352.906 87.105 353.069 86.8668 353.069H79.2079C78.9698 353.069 78.8193 352.893 78.8193 352.642ZM90.7652 329.014V305.812C90.7652 303.919 90.6148 302.979 89.1231 302.979C87.481 302.979 87.2429 304.445 87.2429 307.015V328.237C87.2429 330.731 87.6315 332.273 89.1231 332.273C90.6148 332.273 90.7652 331.07 90.7652 329.001V329.014Z" fill="white"/>
<path d="M104.44 330.306V305.474C104.44 298.341 108.577 295.333 114.669 295.333C121.074 295.333 124.897 298.517 124.897 305.474V319.651C124.897 319.914 124.747 320.077 124.509 320.077H112.864V330.13C112.864 332.274 113.328 333.226 114.656 333.226C116.135 333.226 116.374 332.023 116.374 330.13V323.261C116.374 322.998 116.524 322.835 116.762 322.835H124.496C124.734 322.835 124.885 323.01 124.885 323.261V330.306C124.885 337.438 120.824 340.534 114.656 340.534C108.489 340.534 104.428 337.187 104.428 330.306H104.44ZM116.386 313.546V305.637C116.386 303.744 116.236 302.628 114.669 302.628C113.102 302.628 112.876 303.832 112.876 305.637V313.546H116.386Z" fill="white"/>
<path d="M130.84 339.243V296.624C130.84 296.361 130.99 296.198 131.228 296.198H138.887C139.125 296.198 139.276 296.373 139.276 296.624V299.808H139.74C140.291 296.975 142.397 295.333 145.593 295.333C149.893 295.333 151.134 298.429 151.134 303.669V313.208C151.134 313.471 150.983 313.634 150.745 313.634H143.011C142.773 313.634 142.623 313.459 142.623 313.208V305.737C142.623 304.02 142.472 302.992 141.056 302.992C139.414 302.992 139.263 304.621 139.263 307.028V339.256C139.263 339.519 139.113 339.682 138.875 339.682H131.216C130.978 339.682 130.827 339.506 130.827 339.256L130.84 339.243Z" fill="white"/>
<path d="M156.55 332.274V303.744H153.04C152.802 303.744 152.651 303.569 152.651 303.318V296.612C152.651 296.349 152.802 296.186 153.04 296.186H156.55V285.105C156.55 284.842 156.7 284.679 156.938 284.679H164.597C164.835 284.679 164.986 284.854 164.986 285.105V296.186H169.285C169.524 296.186 169.674 296.361 169.674 296.612V303.318C169.674 303.582 169.524 303.744 169.285 303.744H164.986V329.955C164.986 331.497 165.374 332.023 166.778 332.023H169.273C169.511 332.023 169.661 332.199 169.661 332.45V339.244C169.661 339.507 169.511 339.67 169.273 339.67H163.106C158.342 339.67 156.55 337.012 156.55 332.274Z" fill="white"/>
<path d="M193.341 296.611L186.309 346.375C185.682 351.44 184.429 352.906 180.53 352.906H172.558C172.32 352.906 172.17 352.731 172.17 352.48V345.686C172.17 345.423 172.32 345.26 172.558 345.26H176.231C177.56 345.26 178.023 344.746 178.186 343.192L178.5 340.785L177.873 340.873C177.723 340.873 177.56 340.697 177.484 340.446L171.154 296.624L171.229 296.712C171.079 296.536 170.916 296.198 171.543 296.198H179.277C179.515 296.198 179.665 296.373 179.665 296.624L182.009 327.31H182.473L184.893 296.624C184.893 296.361 185.043 296.198 185.281 296.198H192.94C193.253 296.198 193.492 296.461 193.329 296.624L193.341 296.611Z" fill="white"/>
<path d="M209.51 339.243V279.426C209.51 279.163 209.66 279 209.898 279H221.067C228.099 279 232.938 282.259 232.938 289.918V328.676C232.938 336.586 227.936 339.682 221.067 339.682H209.898C209.66 339.682 209.51 339.507 209.51 339.256V339.243ZM221.23 331.071C223.11 331.071 223.963 330.293 223.963 328.15V290.419C223.963 288.351 223.185 287.499 221.23 287.499H218.497V331.071H221.23Z" fill="white"/>
<path d="M238.492 330.306V305.474C238.492 298.341 242.629 295.333 248.721 295.333C255.126 295.333 258.949 298.517 258.949 305.474V319.651C258.949 319.914 258.799 320.077 258.561 320.077H246.916V330.13C246.916 332.274 247.379 333.226 248.708 333.226C250.187 333.226 250.425 332.023 250.425 330.13V323.261C250.425 322.998 250.576 322.835 250.814 322.835H258.548C258.786 322.835 258.937 323.01 258.937 323.261V330.306C258.937 337.438 254.875 340.534 248.708 340.534C242.541 340.534 238.479 337.187 238.479 330.306H238.492ZM250.45 313.546V305.637C250.45 303.744 250.3 302.628 248.733 302.628C247.166 302.628 246.941 303.832 246.941 305.637V313.546H250.45Z" fill="white"/>
<path d="M284.043 296.612L277.95 339.231C277.875 339.494 277.712 339.657 277.562 339.657H268.424C268.186 339.657 268.035 339.481 268.035 339.231L261.868 296.612L261.943 296.699C261.793 296.524 261.63 296.186 262.257 296.186H269.991C270.229 296.186 270.379 296.361 270.379 296.612L272.723 327.297H273.187L275.606 296.612C275.606 296.348 275.757 296.186 275.995 296.186H283.654C283.967 296.186 284.205 296.449 284.043 296.612Z" fill="white"/>
<path d="M286.926 330.306V305.474C286.926 298.341 291.062 295.333 297.154 295.333C303.56 295.333 307.383 298.517 307.383 305.474V319.651C307.383 319.914 307.232 320.077 306.994 320.077H295.349V330.13C295.349 332.274 295.813 333.226 297.142 333.226C298.621 333.226 298.859 332.023 298.859 330.13V323.261C298.859 322.998 299.009 322.835 299.248 322.835H306.982C307.22 322.835 307.37 323.01 307.37 323.261V330.306C307.37 337.438 303.309 340.534 297.142 340.534C290.974 340.534 286.913 337.187 286.913 330.306H286.926ZM298.884 313.546V305.637C298.884 303.744 298.734 302.628 297.167 302.628C295.6 302.628 295.374 303.832 295.374 305.637V313.546H298.884Z" fill="white"/>
<path d="M313.337 339.243V279.426C313.337 279.163 313.487 279 313.725 279H321.384C321.623 279 321.773 279.176 321.773 279.426V339.243C321.773 339.507 321.623 339.67 321.384 339.67H313.725C313.487 339.67 313.337 339.494 313.337 339.243Z" fill="white"/>
<path d="M327.702 329.691V306.15C327.702 299.281 331.613 295.32 337.931 295.32C344.574 295.32 348.159 299.532 348.159 306.15V329.691C348.159 336.573 344.248 340.521 337.931 340.521C331.287 340.521 327.702 336.309 327.702 329.691ZM339.661 329.954V305.887C339.661 303.906 339.51 302.791 337.943 302.791C336.376 302.791 336.151 303.994 336.151 305.887V329.954C336.151 332.022 336.702 332.962 337.943 332.962C339.422 332.962 339.661 331.759 339.661 329.954Z" fill="white"/>
<path d="M354.115 352.642V296.611C354.115 296.348 354.266 296.185 354.504 296.185H362.163C362.401 296.185 362.551 296.36 362.551 296.611V299.795H363.015C363.567 296.962 365.823 295.32 369.107 295.32C373.407 295.32 374.572 298.416 374.572 303.656V332.962C374.572 338.027 372.542 340.521 368.48 340.521C365.271 340.521 363.642 338.29 363.015 335.883H362.551V352.642C362.551 352.906 362.401 353.069 362.163 353.069H354.504C354.266 353.069 354.115 352.893 354.115 352.642ZM366.061 329.014V305.812C366.061 303.919 365.911 302.979 364.419 302.979C362.777 302.979 362.539 304.445 362.539 307.015V328.237C362.539 330.731 362.927 332.273 364.419 332.273C365.911 332.273 366.061 331.07 366.061 329.001V329.014Z" fill="white"/>
<path d="M380.513 339.243V296.624C380.513 296.361 380.663 296.198 380.901 296.198H388.56C388.798 296.198 388.949 296.373 388.949 296.624V299.808H389.412C389.964 296.975 392.22 295.333 395.504 295.333C398.789 295.333 399.954 296.875 400.656 299.808H401.045C402.06 296.8 404.091 295.333 407.3 295.333C411.599 295.333 413.003 298.341 413.003 303.669V339.243C413.003 339.506 412.853 339.669 412.615 339.669H404.881C404.642 339.669 404.492 339.494 404.492 339.243V305.725C404.492 303.493 404.179 302.804 402.85 302.804C401.208 302.804 400.97 304.521 400.97 306.928V339.243C400.97 339.506 400.819 339.669 400.581 339.669H392.847C392.609 339.669 392.458 339.494 392.458 339.243V305.725C392.458 303.493 392.145 302.804 390.816 302.804C389.174 302.804 388.936 304.521 388.936 306.928V339.243C388.936 339.506 388.786 339.669 388.548 339.669H380.889C380.65 339.669 380.5 339.494 380.5 339.243H380.513Z" fill="white"/>
<path d="M418.481 330.306V305.474C418.481 298.341 422.618 295.333 428.71 295.333C435.115 295.333 438.938 298.517 438.938 305.474V319.651C438.938 319.914 438.788 320.077 438.55 320.077H426.905V330.13C426.905 332.274 427.369 333.226 428.697 333.226C430.176 333.226 430.415 332.023 430.415 330.13V323.261C430.415 322.998 430.565 322.835 430.803 322.835H438.537C438.776 322.835 438.926 323.01 438.926 323.261V330.306C438.926 337.438 434.865 340.534 428.697 340.534C422.53 340.534 418.469 337.187 418.469 330.306H418.481ZM430.44 313.546V305.637C430.44 303.744 430.289 302.628 428.722 302.628C427.156 302.628 426.93 303.832 426.93 305.637V313.546H430.44Z" fill="white"/>
<path d="M444.894 339.243V296.624C444.894 296.361 445.045 296.198 445.283 296.198H452.942C453.18 296.198 453.33 296.373 453.33 296.624V299.808H453.794C454.346 296.975 456.69 295.333 459.886 295.333C464.186 295.333 465.352 298.429 465.352 303.669V339.243C465.352 339.506 465.201 339.669 464.963 339.669H457.229C456.991 339.669 456.84 339.494 456.84 339.243V305.725C456.84 303.493 456.527 302.804 455.198 302.804C453.556 302.804 453.318 304.521 453.318 306.928V339.243C453.318 339.506 453.168 339.669 452.929 339.669H445.27C445.032 339.669 444.882 339.494 444.882 339.243H444.894Z" fill="white"/>
<path d="M472.619 332.274V303.744H469.109C468.871 303.744 468.721 303.569 468.721 303.318V296.612C468.721 296.349 468.871 296.186 469.109 296.186H472.619V285.105C472.619 284.842 472.77 284.679 473.008 284.679H480.667C480.905 284.679 481.055 284.854 481.055 285.105V296.186H485.355C485.593 296.186 485.743 296.361 485.743 296.612V303.318C485.743 303.582 485.593 303.744 485.355 303.744H481.055V329.955C481.055 331.497 481.444 332.023 482.848 332.023H485.342C485.58 332.023 485.731 332.199 485.731 332.45V339.244C485.731 339.507 485.58 339.67 485.342 339.67H479.175C474.412 339.67 472.619 337.012 472.619 332.274Z" fill="white"/>
</svg>
